<?xml version="1.0" encoding="UTF-8" standalone="no"?>
<!DOCTYPE svg PUBLIC "-//W3C//DTD SVG 1.1//EN"
 "http://www.w3.org/Graphics/SVG/1.1/DTD/svg11.dtd">
<!-- Generated by graphviz version 6.0.2 (0)
 -->
<!-- Title: ParseTree::getRightNode Pages: 1 -->
<svg width="459pt" height="102pt"
 viewBox="0.00 0.00 459.00 102.00" xmlns="http://www.w3.org/2000/svg" xmlns:xlink="http://www.w3.org/1999/xlink">
<g id="graph0" class="graph" transform="scale(1 1) rotate(0) translate(4 98)">
<title>ParseTree::getRightNode</title>
<polygon fill="white" stroke="none" points="-4,4 -4,-98 455,-98 455,4 -4,4"/>
<!-- Node1 -->
<g id="node1" class="node">
<title>Node1</title>
<g id="a_node1"><a xlink:title="Get the Right node when a node is given.">
<polygon fill="#bfbfbf" stroke="black" points="314,-28.5 314,-47.5 451,-47.5 451,-28.5 314,-28.5"/>
<text text-anchor="middle" x="382.5" y="-35.5" font-family="Helvetica,sans-Serif" font-size="10.00">ParseTree::getRightNode</text>
</a>
</g>
</g>
<!-- Node2 -->
<g id="node2" class="node">
<title>Node2</title>
<g id="a_node2"><a xlink:href="tree_8cpp.html#aa0c28b938620dfeec544e2f97d6d04ea" target="_top" xlink:title="Get the truth value of a given node.">
<polygon fill="white" stroke="black" points="168,-56.5 168,-75.5 278,-75.5 278,-56.5 168,-56.5"/>
<text text-anchor="middle" x="223" y="-63.5" font-family="Helvetica,sans-Serif" font-size="10.00">getNodeTruthValue</text>
</a>
</g>
</g>
<!-- Node1&#45;&gt;Node2 -->
<g id="edge1" class="edge">
<title>Node1&#45;&gt;Node2</title>
<path fill="none" stroke="midnightblue" d="M317.69,-49.34C304.36,-51.71 290.43,-54.19 277.52,-56.49"/>
<polygon fill="midnightblue" stroke="midnightblue" points="318.5,-52.75 327.74,-47.56 317.28,-45.86 318.5,-52.75"/>
</g>
<!-- Node4 -->
<g id="node4" class="node">
<title>Node4</title>
<g id="a_node4"><a xlink:href="tree_8cpp.html#a267afe61d4284c3fa8388b5590a8c560" target="_top" xlink:title="Method which prints the binary tree.">
<polygon fill="white" stroke="black" points="197,-0.5 197,-19.5 249,-19.5 249,-0.5 197,-0.5"/>
<text text-anchor="middle" x="223" y="-7.5" font-family="Helvetica,sans-Serif" font-size="10.00">printBT</text>
</a>
</g>
</g>
<!-- Node1&#45;&gt;Node4 -->
<g id="edge4" class="edge">
<title>Node1&#45;&gt;Node4</title>
<path fill="none" stroke="midnightblue" d="M317.61,-26.64C293.64,-22.38 267.76,-17.78 249.3,-14.5"/>
<polygon fill="midnightblue" stroke="midnightblue" points="317.28,-30.14 327.74,-28.44 318.5,-23.25 317.28,-30.14"/>
</g>
<!-- Node2&#45;&gt;Node2 -->
<g id="edge3" class="edge">
<title>Node2&#45;&gt;Node2</title>
<path fill="none" stroke="midnightblue" d="M252.31,-84.65C251.08,-89.94 241.31,-94 223,-94 195.1,-94 187.03,-84.57 198.8,-75.76"/>
<polygon fill="midnightblue" stroke="midnightblue" points="255.21,-82.69 247.2,-75.76 249.14,-86.17 255.21,-82.69"/>
</g>
<!-- Node3 -->
<g id="node3" class="node">
<title>Node3</title>
<g id="a_node3"><a xlink:href="tree_8cpp.html#a25643aa8241f085240d87644329f4656" target="_top" xlink:title="Evaluates the truth value of a given parse tree.">
<polygon fill="white" stroke="black" points="0,-56.5 0,-75.5 132,-75.5 132,-56.5 0,-56.5"/>
<text text-anchor="middle" x="66" y="-63.5" font-family="Helvetica,sans-Serif" font-size="10.00">evaluateTreeTruthValue</text>
</a>
</g>
</g>
<!-- Node2&#45;&gt;Node3 -->
<g id="edge2" class="edge">
<title>Node2&#45;&gt;Node3</title>
<path fill="none" stroke="midnightblue" d="M157.63,-66C149.2,-66 140.55,-66 132.1,-66"/>
<polygon fill="midnightblue" stroke="midnightblue" points="157.79,-69.5 167.79,-66 157.79,-62.5 157.79,-69.5"/>
</g>
<!-- Node4&#45;&gt;Node4 -->
<g id="edge5" class="edge">
<title>Node4&#45;&gt;Node4</title>
<path fill="none" stroke="midnightblue" d="M252.31,-28.65C251.08,-33.94 241.31,-38 223,-38 195.1,-38 187.03,-28.57 198.8,-19.76"/>
<polygon fill="midnightblue" stroke="midnightblue" points="255.21,-26.69 247.2,-19.76 249.14,-30.17 255.21,-26.69"/>
</g>
</g>
</svg>
