<?xml version="1.0" encoding="UTF-8" standalone="no"?>
<!DOCTYPE svg PUBLIC "-//W3C//DTD SVG 1.1//EN"
 "http://www.w3.org/Graphics/SVG/1.1/DTD/svg11.dtd">
<!-- Generated by graphviz version 6.0.2 (0)
 -->
<!-- Title: ParseTree::getLeftNode Pages: 1 -->
<svg width="452pt" height="102pt"
 viewBox="0.00 0.00 452.00 102.00" xmlns="http://www.w3.org/2000/svg" xmlns:xlink="http://www.w3.org/1999/xlink">
<g id="graph0" class="graph" transform="scale(1 1) rotate(0) translate(4 98)">
<title>ParseTree::getLeftNode</title>
<polygon fill="white" stroke="none" points="-4,4 -4,-98 448,-98 448,4 -4,4"/>
<!-- Node1 -->
<g id="node1" class="node">
<title>Node1</title>
<g id="a_node1"><a xlink:title="Get the Left node when a node is given.">
<polygon fill="#bfbfbf" stroke="black" points="314,-28.5 314,-47.5 444,-47.5 444,-28.5 314,-28.5"/>
<text text-anchor="middle" x="379" y="-35.5" font-family="Helvetica,sans-Serif" font-size="10.00">ParseTree::getLeftNode</text>
</a>
</g>
</g>
<!-- Node2 -->
<g id="node2" class="node">
<title>Node2</title>
<g id="a_node2"><a xlink:href="tree_8cpp.html#aa0c28b938620dfeec544e2f97d6d04ea" target="_top" xlink:title="Get the truth value of a given node.">
<polygon fill="white" stroke="black" points="168,-56.5 168,-75.5 278,-75.5 278,-56.5 168,-56.5"/>
<text text-anchor="middle" x="223" y="-63.5" font-family="Helvetica,sans-Serif" font-size="10.00">getNodeTruthValue</text>
</a>
</g>
</g>
<!-- Node1&#45;&gt;Node2 -->
<g id="edge1" class="edge">
<title>Node1&#45;&gt;Node2</title>
<path fill="none" stroke="midnightblue" d="M315.22,-49.41C302.3,-51.76 288.83,-54.21 276.33,-56.49"/>
<polygon fill="midnightblue" stroke="midnightblue" points="316.22,-52.79 325.43,-47.56 314.97,-45.9 316.22,-52.79"/>
</g>
<!-- Node4 -->
<g id="node4" class="node">
<title>Node4</title>
<g id="a_node4"><a xlink:href="tree_8cpp.html#a267afe61d4284c3fa8388b5590a8c560" target="_top" xlink:title="Method which prints the binary tree.">
<polygon fill="white" stroke="black" points="197,-0.5 197,-19.5 249,-19.5 249,-0.5 197,-0.5"/>
<text text-anchor="middle" x="223" y="-7.5" font-family="Helvetica,sans-Serif" font-size="10.00">printBT</text>
</a>
</g>
</g>
<!-- Node1&#45;&gt;Node4 -->
<g id="edge4" class="edge">
<title>Node1&#45;&gt;Node4</title>
<path fill="none" stroke="midnightblue" d="M315.28,-26.6C292.09,-22.38 267.11,-17.84 249.16,-14.57"/>
<polygon fill="midnightblue" stroke="midnightblue" points="314.97,-30.1 325.43,-28.44 316.22,-23.21 314.97,-30.1"/>
</g>
<!-- Node2&#45;&gt;Node2 -->
<g id="edge3" class="edge">
<title>Node2&#45;&gt;Node2</title>
<path fill="none" stroke="midnightblue" d="M252.12,-84.65C250.9,-89.94 241.2,-94 223,-94 195.27,-94 187.26,-84.57 198.96,-75.76"/>
<polygon fill="midnightblue" stroke="midnightblue" points="255.04,-82.71 247.04,-75.76 248.96,-86.18 255.04,-82.71"/>
</g>
<!-- Node3 -->
<g id="node3" class="node">
<title>Node3</title>
<g id="a_node3"><a xlink:href="tree_8cpp.html#a25643aa8241f085240d87644329f4656" target="_top" xlink:title="Evaluates the truth value of a given parse tree.">
<polygon fill="white" stroke="black" points="0,-56.5 0,-75.5 132,-75.5 132,-56.5 0,-56.5"/>
<text text-anchor="middle" x="66" y="-63.5" font-family="Helvetica,sans-Serif" font-size="10.00">evaluateTreeTruthValue</text>
</a>
</g>
</g>
<!-- Node2&#45;&gt;Node3 -->
<g id="edge2" class="edge">
<title>Node2&#45;&gt;Node3</title>
<path fill="none" stroke="midnightblue" d="M157.63,-66C149.2,-66 140.55,-66 132.1,-66"/>
<polygon fill="midnightblue" stroke="midnightblue" points="157.79,-69.5 167.79,-66 157.79,-62.5 157.79,-69.5"/>
</g>
<!-- Node4&#45;&gt;Node4 -->
<g id="edge5" class="edge">
<title>Node4&#45;&gt;Node4</title>
<path fill="none" stroke="midnightblue" d="M252.12,-28.65C250.9,-33.94 241.2,-38 223,-38 195.27,-38 187.26,-28.57 198.96,-19.76"/>
<polygon fill="midnightblue" stroke="midnightblue" points="255.04,-26.71 247.04,-19.76 248.96,-30.18 255.04,-26.71"/>
</g>
</g>
</svg>
