<?xml version="1.0" encoding="UTF-8" standalone="no"?>
<!DOCTYPE svg PUBLIC "-//W3C//DTD SVG 1.1//EN"
 "http://www.w3.org/Graphics/SVG/1.1/DTD/svg11.dtd">
<!-- Generated by graphviz version 7.0.0 (0)
 -->
<!-- Title: ParseTree::inOrderTraversal Pages: 1 -->
<svg width="332pt" height="101pt"
 viewBox="0.00 0.00 332.00 101.00" xmlns="http://www.w3.org/2000/svg" xmlns:xlink="http://www.w3.org/1999/xlink">
<g id="graph0" class="graph" transform="scale(1 1) rotate(0) translate(4 97)">
<title>ParseTree::inOrderTraversal</title>
<!-- Node1 -->
<g id="node1" class="node">
<title>Node1</title>
<g id="a_node1"><a xlink:title="Utility method which traverses the tree in in&#45;order manner.">
<polygon fill="#999999" stroke="#666666" points="151,-56 0,-56 0,-37 151,-37 151,-56"/>
<text text-anchor="middle" x="75.5" y="-44" font-family="Helvetica,sans-Serif" font-size="10.00">ParseTree::inOrderTraversal</text>
</a>
</g>
</g>
<!-- Node1&#45;&gt;Node1 -->
<g id="edge4" class="edge">
<title>Node1&#45;&gt;Node1</title>
<path fill="none" stroke="#63b8ff" d="M47.32,-56.37C34.47,-64.94 43.86,-74 75.5,-74 93.3,-74 104.06,-71.13 107.78,-67.1"/>
<polygon fill="#63b8ff" stroke="#63b8ff" points="111.06,-65.88 104.22,-57.78 104.52,-68.37 111.06,-65.88"/>
</g>
<!-- Node2 -->
<g id="node2" class="node">
<title>Node2</title>
<g id="a_node2"><a xlink:href="classParseTree.html#ae1cb6829644917b9437f28a08b1e60a1" target="_top" xlink:title="Get the left node when a node is given.">
<polygon fill="white" stroke="#666666" points="320.5,-93 190.5,-93 190.5,-74 320.5,-74 320.5,-93"/>
<text text-anchor="middle" x="255.5" y="-81" font-family="Helvetica,sans-Serif" font-size="10.00">ParseTree::getLeftNode</text>
</a>
</g>
</g>
<!-- Node1&#45;&gt;Node2 -->
<g id="edge1" class="edge">
<title>Node1&#45;&gt;Node2</title>
<path fill="none" stroke="#63b8ff" d="M124.2,-56.42C146.15,-60.98 172.4,-66.43 195.57,-71.25"/>
<polygon fill="#63b8ff" stroke="#63b8ff" points="194.68,-74.64 205.19,-73.25 196.11,-67.79 194.68,-74.64"/>
</g>
<!-- Node3 -->
<g id="node3" class="node">
<title>Node3</title>
<g id="a_node3"><a xlink:href="classParseTree.html#a101193b71bc7e02d051dd73e6f079aa1" target="_top" xlink:title="Get the right node when a node is given.">
<polygon fill="white" stroke="#666666" points="324,-56 187,-56 187,-37 324,-37 324,-56"/>
<text text-anchor="middle" x="255.5" y="-44" font-family="Helvetica,sans-Serif" font-size="10.00">ParseTree::getRightNode</text>
</a>
</g>
</g>
<!-- Node1&#45;&gt;Node3 -->
<g id="edge2" class="edge">
<title>Node1&#45;&gt;Node3</title>
<path fill="none" stroke="#63b8ff" d="M151.47,-46.5C159.32,-46.5 167.33,-46.5 175.22,-46.5"/>
<polygon fill="#63b8ff" stroke="#63b8ff" points="175.18,-50 185.18,-46.5 175.18,-43 175.18,-50"/>
</g>
<!-- Node4 -->
<g id="node4" class="node">
<title>Node4</title>
<g id="a_node4"><a xlink:href="classParseTree.html#a816af779bb7d32b6ab6e513cf69648a4" target="_top" xlink:title="Get the value of the node.">
<polygon fill="white" stroke="#666666" points="312,-19 199,-19 199,0 312,0 312,-19"/>
<text text-anchor="middle" x="255.5" y="-7" font-family="Helvetica,sans-Serif" font-size="10.00">ParseTree::getValue</text>
</a>
</g>
</g>
<!-- Node1&#45;&gt;Node4 -->
<g id="edge3" class="edge">
<title>Node1&#45;&gt;Node4</title>
<path fill="none" stroke="#63b8ff" d="M124.2,-36.58C146.15,-32.02 172.4,-26.57 195.57,-21.75"/>
<polygon fill="#63b8ff" stroke="#63b8ff" points="196.11,-25.21 205.19,-19.75 194.68,-18.36 196.11,-25.21"/>
</g>
</g>
</svg>
