<?xml version="1.0" encoding="UTF-8" standalone="no"?>
<!DOCTYPE svg PUBLIC "-//W3C//DTD SVG 1.1//EN"
 "http://www.w3.org/Graphics/SVG/1.1/DTD/svg11.dtd">
<!-- Generated by graphviz version 7.0.0 (0)
 -->
<!-- Title: ParseTree::printParseTree Pages: 1 -->
<svg width="321pt" height="101pt"
 viewBox="0.00 0.00 321.00 101.00" xmlns="http://www.w3.org/2000/svg" xmlns:xlink="http://www.w3.org/1999/xlink">
<g id="graph0" class="graph" transform="scale(1 1) rotate(0) translate(4 97)">
<title>ParseTree::printParseTree</title>
<!-- Node1 -->
<g id="node1" class="node">
<title>Node1</title>
<g id="a_node1"><a xlink:title="Prints the binary tree.">
<polygon fill="#999999" stroke="#666666" points="140,-56 0,-56 0,-37 140,-37 140,-56"/>
<text text-anchor="middle" x="70" y="-44" font-family="Helvetica,sans-Serif" font-size="10.00">ParseTree::printParseTree</text>
</a>
</g>
</g>
<!-- Node1&#45;&gt;Node1 -->
<g id="edge4" class="edge">
<title>Node1&#45;&gt;Node1</title>
<path fill="none" stroke="#63b8ff" d="M42.68,-56.37C30.22,-64.94 39.33,-74 70,-74 87.25,-74 97.68,-71.13 101.29,-67.1"/>
<polygon fill="#63b8ff" stroke="#63b8ff" points="104.6,-65.95 97.84,-57.79 98.03,-68.38 104.6,-65.95"/>
</g>
<!-- Node2 -->
<g id="node2" class="node">
<title>Node2</title>
<g id="a_node2"><a xlink:href="classParseTree.html#ae1cb6829644917b9437f28a08b1e60a1" target="_top" xlink:title="Get the left node when a node is given.">
<polygon fill="white" stroke="#666666" points="309.5,-93 179.5,-93 179.5,-74 309.5,-74 309.5,-93"/>
<text text-anchor="middle" x="244.5" y="-81" font-family="Helvetica,sans-Serif" font-size="10.00">ParseTree::getLeftNode</text>
</a>
</g>
</g>
<!-- Node1&#45;&gt;Node2 -->
<g id="edge1" class="edge">
<title>Node1&#45;&gt;Node2</title>
<path fill="none" stroke="#63b8ff" d="M117.23,-56.42C138.4,-60.96 163.71,-66.38 186.09,-71.19"/>
<polygon fill="#63b8ff" stroke="#63b8ff" points="185.15,-74.56 195.67,-73.24 186.62,-67.72 185.15,-74.56"/>
</g>
<!-- Node3 -->
<g id="node3" class="node">
<title>Node3</title>
<g id="a_node3"><a xlink:href="classParseTree.html#a101193b71bc7e02d051dd73e6f079aa1" target="_top" xlink:title="Get the right node when a node is given.">
<polygon fill="white" stroke="#666666" points="313,-56 176,-56 176,-37 313,-37 313,-56"/>
<text text-anchor="middle" x="244.5" y="-44" font-family="Helvetica,sans-Serif" font-size="10.00">ParseTree::getRightNode</text>
</a>
</g>
</g>
<!-- Node1&#45;&gt;Node3 -->
<g id="edge2" class="edge">
<title>Node1&#45;&gt;Node3</title>
<path fill="none" stroke="#63b8ff" d="M140.17,-46.5C148.13,-46.5 156.3,-46.5 164.38,-46.5"/>
<polygon fill="#63b8ff" stroke="#63b8ff" points="164.21,-50 174.21,-46.5 164.21,-43 164.21,-50"/>
</g>
<!-- Node4 -->
<g id="node4" class="node">
<title>Node4</title>
<g id="a_node4"><a xlink:href="classParseTree.html#a816af779bb7d32b6ab6e513cf69648a4" target="_top" xlink:title="Get the value of the node.">
<polygon fill="white" stroke="#666666" points="301,-19 188,-19 188,0 301,0 301,-19"/>
<text text-anchor="middle" x="244.5" y="-7" font-family="Helvetica,sans-Serif" font-size="10.00">ParseTree::getValue</text>
</a>
</g>
</g>
<!-- Node1&#45;&gt;Node4 -->
<g id="edge3" class="edge">
<title>Node1&#45;&gt;Node4</title>
<path fill="none" stroke="#63b8ff" d="M117.23,-36.58C138.4,-32.04 163.71,-26.62 186.09,-21.81"/>
<polygon fill="#63b8ff" stroke="#63b8ff" points="186.62,-25.28 195.67,-19.76 185.15,-18.44 186.62,-25.28"/>
</g>
</g>
</svg>
