<?xml version="1.0" encoding="UTF-8" standalone="no"?>
<!DOCTYPE svg PUBLIC "-//W3C//DTD SVG 1.1//EN"
 "http://www.w3.org/Graphics/SVG/1.1/DTD/svg11.dtd">
<!-- Generated by graphviz version 6.0.2 (0)
 -->
<!-- Title: ParseTree::getInfixExpression Pages: 1 -->
<svg width="529pt" height="104pt"
 viewBox="0.00 0.00 529.00 104.00" xmlns="http://www.w3.org/2000/svg" xmlns:xlink="http://www.w3.org/1999/xlink">
<g id="graph0" class="graph" transform="scale(1 1) rotate(0) translate(4 100)">
<title>ParseTree::getInfixExpression</title>
<polygon fill="white" stroke="none" points="-4,4 -4,-100 525,-100 525,4 -4,4"/>
<!-- Node1 -->
<g id="node1" class="node">
<title>Node1</title>
<g id="a_node1"><a xlink:title="Traverses the parse tree and return the infix formula.">
<polygon fill="#bfbfbf" stroke="black" points="0,-38.5 0,-57.5 161,-57.5 161,-38.5 0,-38.5"/>
<text text-anchor="middle" x="80.5" y="-45.5" font-family="Helvetica,sans-Serif" font-size="10.00">ParseTree::getInfixExpression</text>
</a>
</g>
</g>
<!-- Node2 -->
<g id="node2" class="node">
<title>Node2</title>
<g id="a_node2"><a xlink:href="classParseTree.html#a434c3422fae323882805bd4109f06ba0" target="_top" xlink:title="Utility method which traverses the tree in in&#45;order manner.">
<polygon fill="white" stroke="black" points="197,-38.5 197,-57.5 348,-57.5 348,-38.5 197,-38.5"/>
<text text-anchor="middle" x="272.5" y="-45.5" font-family="Helvetica,sans-Serif" font-size="10.00">ParseTree::inOrderTraversal</text>
</a>
</g>
</g>
<!-- Node1&#45;&gt;Node2 -->
<g id="edge1" class="edge">
<title>Node1&#45;&gt;Node2</title>
<path fill="none" stroke="midnightblue" d="M161.25,-48C169.63,-48 178.16,-48 186.59,-48"/>
<polygon fill="midnightblue" stroke="midnightblue" points="186.81,-51.5 196.81,-48 186.81,-44.5 186.81,-51.5"/>
</g>
<!-- Node2&#45;&gt;Node2 -->
<g id="edge5" class="edge">
<title>Node2&#45;&gt;Node2</title>
<path fill="none" stroke="midnightblue" d="M244.76,-57.76C231.26,-66.57 240.51,-76 272.5,-76 294.49,-76 305.74,-71.54 306.23,-65.89"/>
<polygon fill="midnightblue" stroke="midnightblue" points="308.99,-63.73 300.24,-57.76 303.35,-67.88 308.99,-63.73"/>
</g>
<!-- Node3 -->
<g id="node3" class="node">
<title>Node3</title>
<g id="a_node3"><a xlink:href="classParseTree.html#ae1cb6829644917b9437f28a08b1e60a1" target="_top" xlink:title="Get the left node when a node is given.">
<polygon fill="white" stroke="black" points="387.5,-76.5 387.5,-95.5 517.5,-95.5 517.5,-76.5 387.5,-76.5"/>
<text text-anchor="middle" x="452.5" y="-83.5" font-family="Helvetica,sans-Serif" font-size="10.00">ParseTree::getLeftNode</text>
</a>
</g>
</g>
<!-- Node2&#45;&gt;Node3 -->
<g id="edge2" class="edge">
<title>Node2&#45;&gt;Node3</title>
<path fill="none" stroke="midnightblue" d="M318.42,-57.59C342.33,-62.69 371.92,-69.01 397.12,-74.39"/>
<polygon fill="midnightblue" stroke="midnightblue" points="396.4,-77.81 406.91,-76.48 397.86,-70.97 396.4,-77.81"/>
</g>
<!-- Node4 -->
<g id="node4" class="node">
<title>Node4</title>
<g id="a_node4"><a xlink:href="classParseTree.html#a101193b71bc7e02d051dd73e6f079aa1" target="_top" xlink:title="Get the right node when a node is given.">
<polygon fill="white" stroke="black" points="384,-38.5 384,-57.5 521,-57.5 521,-38.5 384,-38.5"/>
<text text-anchor="middle" x="452.5" y="-45.5" font-family="Helvetica,sans-Serif" font-size="10.00">ParseTree::getRightNode</text>
</a>
</g>
</g>
<!-- Node2&#45;&gt;Node4 -->
<g id="edge3" class="edge">
<title>Node2&#45;&gt;Node4</title>
<path fill="none" stroke="midnightblue" d="M348.21,-48C356.6,-48 365.16,-48 373.59,-48"/>
<polygon fill="midnightblue" stroke="midnightblue" points="373.78,-51.5 383.78,-48 373.78,-44.5 373.78,-51.5"/>
</g>
<!-- Node5 -->
<g id="node5" class="node">
<title>Node5</title>
<g id="a_node5"><a xlink:href="classParseTree.html#a816af779bb7d32b6ab6e513cf69648a4" target="_top" xlink:title="Get the value of the node.">
<polygon fill="white" stroke="black" points="396,-0.5 396,-19.5 509,-19.5 509,-0.5 396,-0.5"/>
<text text-anchor="middle" x="452.5" y="-7.5" font-family="Helvetica,sans-Serif" font-size="10.00">ParseTree::getValue</text>
</a>
</g>
</g>
<!-- Node2&#45;&gt;Node5 -->
<g id="edge4" class="edge">
<title>Node2&#45;&gt;Node5</title>
<path fill="none" stroke="midnightblue" d="M318.42,-38.41C342.33,-33.31 371.92,-26.99 397.12,-21.61"/>
<polygon fill="midnightblue" stroke="midnightblue" points="397.86,-25.03 406.91,-19.52 396.4,-18.19 397.86,-25.03"/>
</g>
</g>
</svg>
