<?xml version="1.0" encoding="UTF-8" standalone="no"?>
<!DOCTYPE svg PUBLIC "-//W3C//DTD SVG 1.1//EN"
 "http://www.w3.org/Graphics/SVG/1.1/DTD/svg11.dtd">
<!-- Generated by graphviz version 7.0.0 (0)
 -->
<!-- Title: ParseTree::getHeight Pages: 1 -->
<svg width="299pt" height="64pt"
 viewBox="0.00 0.00 299.00 64.00" xmlns="http://www.w3.org/2000/svg" xmlns:xlink="http://www.w3.org/1999/xlink">
<g id="graph0" class="graph" transform="scale(1 1) rotate(0) translate(4 60)">
<title>ParseTree::getHeight</title>
<!-- Node1 -->
<g id="node1" class="node">
<title>Node1</title>
<g id="a_node1"><a xlink:title="Calculate the height of the binary tree recursively.">
<polygon fill="#999999" stroke="#666666" points="118,-37 0,-37 0,-18 118,-18 118,-37"/>
<text text-anchor="middle" x="59" y="-25" font-family="Helvetica,sans-Serif" font-size="10.00">ParseTree::getHeight</text>
</a>
</g>
</g>
<!-- Node1&#45;&gt;Node1 -->
<g id="edge1" class="edge">
<title>Node1&#45;&gt;Node1</title>
<path fill="none" stroke="#63b8ff" d="M33.4,-37.37C21.73,-45.94 30.26,-55 59,-55 75.17,-55 84.94,-52.13 88.32,-48.1"/>
<polygon fill="#63b8ff" stroke="#63b8ff" points="91.68,-47.1 85.09,-38.8 85.06,-49.39 91.68,-47.1"/>
</g>
<!-- Node2 -->
<g id="node2" class="node">
<title>Node2</title>
<g id="a_node2"><a xlink:href="classParseTree.html#ae1cb6829644917b9437f28a08b1e60a1" target="_top" xlink:title="Get the left node when a node is given.">
<polygon fill="white" stroke="#666666" points="287.5,-56 157.5,-56 157.5,-37 287.5,-37 287.5,-56"/>
<text text-anchor="middle" x="222.5" y="-44" font-family="Helvetica,sans-Serif" font-size="10.00">ParseTree::getLeftNode</text>
</a>
</g>
</g>
<!-- Node1&#45;&gt;Node2 -->
<g id="edge2" class="edge">
<title>Node1&#45;&gt;Node2</title>
<path fill="none" stroke="#63b8ff" d="M118.31,-34.36C127.3,-35.42 136.69,-36.52 146,-37.62"/>
<polygon fill="#63b8ff" stroke="#63b8ff" points="145.42,-41.07 155.76,-38.77 146.24,-34.12 145.42,-41.07"/>
</g>
<!-- Node3 -->
<g id="node3" class="node">
<title>Node3</title>
<g id="a_node3"><a xlink:href="classParseTree.html#a101193b71bc7e02d051dd73e6f079aa1" target="_top" xlink:title="Get the right node when a node is given.">
<polygon fill="white" stroke="#666666" points="291,-19 154,-19 154,0 291,0 291,-19"/>
<text text-anchor="middle" x="222.5" y="-7" font-family="Helvetica,sans-Serif" font-size="10.00">ParseTree::getRightNode</text>
</a>
</g>
</g>
<!-- Node1&#45;&gt;Node3 -->
<g id="edge3" class="edge">
<title>Node1&#45;&gt;Node3</title>
<path fill="none" stroke="#63b8ff" d="M118.31,-21C126.1,-20.13 134.21,-19.23 142.29,-18.33"/>
<polygon fill="#63b8ff" stroke="#63b8ff" points="142.61,-21.81 152.16,-17.23 141.84,-14.86 142.61,-21.81"/>
</g>
</g>
</svg>
