<?xml version="1.0" encoding="UTF-8" standalone="no"?>
<!DOCTYPE svg PUBLIC "-//W3C//DTD SVG 1.1//EN"
 "http://www.w3.org/Graphics/SVG/1.1/DTD/svg11.dtd">
<!-- Generated by graphviz version 6.0.2 (0)
 -->
<!-- Title: ParseTree::getHeight Pages: 1 -->
<svg width="299pt" height="66pt"
 viewBox="0.00 0.00 299.00 66.00" xmlns="http://www.w3.org/2000/svg" xmlns:xlink="http://www.w3.org/1999/xlink">
<g id="graph0" class="graph" transform="scale(1 1) rotate(0) translate(4 62)">
<title>ParseTree::getHeight</title>
<polygon fill="white" stroke="none" points="-4,4 -4,-62 295,-62 295,4 -4,4"/>
<!-- Node1 -->
<g id="node1" class="node">
<title>Node1</title>
<g id="a_node1"><a xlink:title="Calculate the height of the binary tree recursively.">
<polygon fill="#bfbfbf" stroke="black" points="0,-19.5 0,-38.5 118,-38.5 118,-19.5 0,-19.5"/>
<text text-anchor="middle" x="59" y="-26.5" font-family="Helvetica,sans-Serif" font-size="10.00">ParseTree::getHeight</text>
</a>
</g>
</g>
<!-- Node1&#45;&gt;Node1 -->
<g id="edge1" class="edge">
<title>Node1&#45;&gt;Node1</title>
<path fill="none" stroke="midnightblue" d="M33.8,-38.76C21.54,-47.57 29.94,-57 59,-57 78.52,-57 88.72,-52.74 89.6,-47.27"/>
<polygon fill="midnightblue" stroke="midnightblue" points="92.51,-45.33 84.2,-38.76 86.59,-49.08 92.51,-45.33"/>
</g>
<!-- Node2 -->
<g id="node2" class="node">
<title>Node2</title>
<g id="a_node2"><a xlink:href="classParseTree.html#ae1cb6829644917b9437f28a08b1e60a1" target="_top" xlink:title="Get the left node when a node is given.">
<polygon fill="white" stroke="black" points="157.5,-38.5 157.5,-57.5 287.5,-57.5 287.5,-38.5 157.5,-38.5"/>
<text text-anchor="middle" x="222.5" y="-45.5" font-family="Helvetica,sans-Serif" font-size="10.00">ParseTree::getLeftNode</text>
</a>
</g>
</g>
<!-- Node1&#45;&gt;Node2 -->
<g id="edge2" class="edge">
<title>Node1&#45;&gt;Node2</title>
<path fill="none" stroke="midnightblue" d="M118.31,-35.86C127.69,-36.96 137.52,-38.12 147.22,-39.26"/>
<polygon fill="midnightblue" stroke="midnightblue" points="146.92,-42.75 157.26,-40.44 147.74,-35.8 146.92,-42.75"/>
</g>
<!-- Node3 -->
<g id="node3" class="node">
<title>Node3</title>
<g id="a_node3"><a xlink:href="classParseTree.html#a101193b71bc7e02d051dd73e6f079aa1" target="_top" xlink:title="Get the right node when a node is given.">
<polygon fill="white" stroke="black" points="154,-0.5 154,-19.5 291,-19.5 291,-0.5 154,-0.5"/>
<text text-anchor="middle" x="222.5" y="-7.5" font-family="Helvetica,sans-Serif" font-size="10.00">ParseTree::getRightNode</text>
</a>
</g>
</g>
<!-- Node1&#45;&gt;Node3 -->
<g id="edge3" class="edge">
<title>Node1&#45;&gt;Node3</title>
<path fill="none" stroke="midnightblue" d="M118.31,-22.14C126.62,-21.16 135.27,-20.14 143.88,-19.13"/>
<polygon fill="midnightblue" stroke="midnightblue" points="144.42,-22.59 153.95,-17.95 143.6,-15.64 144.42,-22.59"/>
</g>
</g>
</svg>
