<?xml version="1.0" encoding="UTF-8" standalone="no"?>
<!DOCTYPE svg PUBLIC "-//W3C//DTD SVG 1.1//EN"
 "http://www.w3.org/Graphics/SVG/1.1/DTD/svg11.dtd">
<!-- Generated by graphviz version 6.0.2 (0)
 -->
<!-- Title: ParseTree::getValue Pages: 1 -->
<svg width="512pt" height="140pt"
 viewBox="0.00 0.00 512.00 140.00" xmlns="http://www.w3.org/2000/svg" xmlns:xlink="http://www.w3.org/1999/xlink">
<g id="graph0" class="graph" transform="scale(1 1) rotate(0) translate(4 136)">
<title>ParseTree::getValue</title>
<polygon fill="white" stroke="none" points="-4,4 -4,-136 508,-136 508,4 -4,4"/>
<!-- Node1 -->
<g id="node1" class="node">
<title>Node1</title>
<g id="a_node1"><a xlink:title="Get the value of the node.">
<polygon fill="#bfbfbf" stroke="black" points="391,-38.5 391,-57.5 504,-57.5 504,-38.5 391,-38.5"/>
<text text-anchor="middle" x="447.5" y="-45.5" font-family="Helvetica,sans-Serif" font-size="10.00">ParseTree::getValue</text>
</a>
</g>
</g>
<!-- Node2 -->
<g id="node2" class="node">
<title>Node2</title>
<g id="a_node2"><a xlink:href="tree_8cpp.html#aa0c28b938620dfeec544e2f97d6d04ea" target="_top" xlink:title="Gets the truth value of a given node.">
<polygon fill="white" stroke="black" points="245,-94.5 245,-113.5 355,-113.5 355,-94.5 245,-94.5"/>
<text text-anchor="middle" x="300" y="-101.5" font-family="Helvetica,sans-Serif" font-size="10.00">getNodeTruthValue</text>
</a>
</g>
</g>
<!-- Node1&#45;&gt;Node2 -->
<g id="edge1" class="edge">
<title>Node1&#45;&gt;Node2</title>
<path fill="none" stroke="midnightblue" d="M413.99,-61.57C396.57,-68.73 374.7,-77.56 355,-85 346.54,-88.2 337.27,-91.52 328.84,-94.48"/>
<polygon fill="midnightblue" stroke="midnightblue" points="415.77,-64.62 423.68,-57.57 413.1,-58.15 415.77,-64.62"/>
</g>
<!-- Node5 -->
<g id="node5" class="node">
<title>Node5</title>
<g id="a_node5"><a xlink:href="tree_8cpp.html#aa2112d5255c2ad249f275f84a5c02181" target="_top" xlink:title="Utility method which traverses the tree in in&#45;order manner.">
<polygon fill="white" stroke="black" points="251,-38.5 251,-57.5 349,-57.5 349,-38.5 251,-38.5"/>
<text text-anchor="middle" x="300" y="-45.5" font-family="Helvetica,sans-Serif" font-size="10.00">inOrderTraversal</text>
</a>
</g>
</g>
<!-- Node1&#45;&gt;Node5 -->
<g id="edge5" class="edge">
<title>Node1&#45;&gt;Node5</title>
<path fill="none" stroke="midnightblue" d="M380.65,-48C370.1,-48 359.37,-48 349.34,-48"/>
<polygon fill="midnightblue" stroke="midnightblue" points="380.66,-51.5 390.66,-48 380.66,-44.5 380.66,-51.5"/>
</g>
<!-- Node7 -->
<g id="node7" class="node">
<title>Node7</title>
<g id="a_node7"><a xlink:href="tree_8cpp.html#a705609245a7281d7c1186f2097e53427" target="_top" xlink:title="Prints the binary tree.">
<polygon fill="white" stroke="black" points="84,-0.5 84,-19.5 202,-19.5 202,-0.5 84,-0.5"/>
<text text-anchor="middle" x="143" y="-7.5" font-family="Helvetica,sans-Serif" font-size="10.00">printBinaryParseTree</text>
</a>
</g>
</g>
<!-- Node1&#45;&gt;Node7 -->
<g id="edge9" class="edge">
<title>Node1&#45;&gt;Node7</title>
<path fill="none" stroke="midnightblue" d="M395.81,-36.39C382.58,-33.66 368.3,-30.97 355,-29 303.7,-21.39 244.9,-16.4 202.43,-13.45"/>
<polygon fill="midnightblue" stroke="midnightblue" points="395.18,-39.84 405.69,-38.48 396.63,-32.99 395.18,-39.84"/>
</g>
<!-- Node2&#45;&gt;Node2 -->
<g id="edge4" class="edge">
<title>Node2&#45;&gt;Node2</title>
<path fill="none" stroke="midnightblue" d="M327.53,-122.65C326.38,-127.94 317.2,-132 300,-132 273.78,-132 266.21,-122.57 277.27,-113.76"/>
<polygon fill="midnightblue" stroke="midnightblue" points="330.56,-120.9 322.73,-113.76 324.4,-124.22 330.56,-120.9"/>
</g>
<!-- Node3 -->
<g id="node3" class="node">
<title>Node3</title>
<g id="a_node3"><a xlink:href="tree_8cpp.html#a25643aa8241f085240d87644329f4656" target="_top" xlink:title="Evaluates the truth value of a given parse tree.">
<polygon fill="white" stroke="black" points="77,-94.5 77,-113.5 209,-113.5 209,-94.5 77,-94.5"/>
<text text-anchor="middle" x="143" y="-101.5" font-family="Helvetica,sans-Serif" font-size="10.00">evaluateTreeTruthValue</text>
</a>
</g>
</g>
<!-- Node2&#45;&gt;Node3 -->
<g id="edge2" class="edge">
<title>Node2&#45;&gt;Node3</title>
<path fill="none" stroke="midnightblue" d="M234.63,-104C226.2,-104 217.55,-104 209.1,-104"/>
<polygon fill="midnightblue" stroke="midnightblue" points="234.79,-107.5 244.79,-104 234.79,-100.5 234.79,-107.5"/>
</g>
<!-- Node4 -->
<g id="node4" class="node">
<title>Node4</title>
<g id="a_node4"><a xlink:href="main_8cpp.html#ae66f6b31b5ad750f1fe042a706a4e3d4" target="_top" xlink:title="Where the tasks are run.">
<polygon fill="white" stroke="black" points="0,-56.5 0,-75.5 41,-75.5 41,-56.5 0,-56.5"/>
<text text-anchor="middle" x="20.5" y="-63.5" font-family="Helvetica,sans-Serif" font-size="10.00">main</text>
</a>
</g>
</g>
<!-- Node3&#45;&gt;Node4 -->
<g id="edge3" class="edge">
<title>Node3&#45;&gt;Node4</title>
<path fill="none" stroke="midnightblue" d="M98.52,-91.59C91.31,-89.45 83.93,-87.2 77,-85 65.06,-81.21 51.78,-76.68 41.21,-72.99"/>
<polygon fill="midnightblue" stroke="midnightblue" points="97.59,-94.96 108.18,-94.43 99.57,-88.25 97.59,-94.96"/>
</g>
<!-- Node5&#45;&gt;Node5 -->
<g id="edge6" class="edge">
<title>Node5&#45;&gt;Node5</title>
<path fill="none" stroke="midnightblue" d="M327.53,-66.65C326.38,-71.94 317.2,-76 300,-76 273.78,-76 266.21,-66.57 277.27,-57.76"/>
<polygon fill="midnightblue" stroke="midnightblue" points="330.56,-64.9 322.73,-57.76 324.4,-68.22 330.56,-64.9"/>
</g>
<!-- Node6 -->
<g id="node6" class="node">
<title>Node6</title>
<g id="a_node6"><a xlink:href="tree_8cpp.html#abbc27d85ce3224d78c8b59f4744f76f5" target="_top" xlink:title="Traverses the parse tree and return the infix formula.">
<polygon fill="white" stroke="black" points="95,-56.5 95,-75.5 191,-75.5 191,-56.5 95,-56.5"/>
<text text-anchor="middle" x="143" y="-63.5" font-family="Helvetica,sans-Serif" font-size="10.00">parseTreeToInfix</text>
</a>
</g>
</g>
<!-- Node5&#45;&gt;Node6 -->
<g id="edge7" class="edge">
<title>Node5&#45;&gt;Node6</title>
<path fill="none" stroke="midnightblue" d="M240.78,-54.76C224.39,-56.66 206.76,-58.71 191.1,-60.53"/>
<polygon fill="midnightblue" stroke="midnightblue" points="241.28,-58.23 250.81,-53.6 240.47,-51.27 241.28,-58.23"/>
</g>
<!-- Node6&#45;&gt;Node4 -->
<g id="edge8" class="edge">
<title>Node6&#45;&gt;Node4</title>
<path fill="none" stroke="midnightblue" d="M84.57,-66C69.01,-66 53.2,-66 41.3,-66"/>
<polygon fill="midnightblue" stroke="midnightblue" points="84.72,-69.5 94.72,-66 84.72,-62.5 84.72,-69.5"/>
</g>
<!-- Node7&#45;&gt;Node4 -->
<g id="edge10" class="edge">
<title>Node7&#45;&gt;Node4</title>
<path fill="none" stroke="midnightblue" d="M112,-23.94C89.85,-34.23 60.35,-47.94 41.15,-56.87"/>
<polygon fill="midnightblue" stroke="midnightblue" points="113.69,-27.02 121.29,-19.63 110.74,-20.67 113.69,-27.02"/>
</g>
<!-- Node7&#45;&gt;Node7 -->
<g id="edge11" class="edge">
<title>Node7&#45;&gt;Node7</title>
<path fill="none" stroke="midnightblue" d="M165.79,-29.03C164.54,-34.13 156.95,-38 143,-38 121.23,-38 114.93,-28.57 124.12,-19.76"/>
<polygon fill="midnightblue" stroke="midnightblue" points="168.99,-27.61 161.88,-19.76 162.54,-30.33 168.99,-27.61"/>
</g>
</g>
</svg>
