<?xml version="1.0" encoding="UTF-8" standalone="no"?>
<!DOCTYPE svg PUBLIC "-//W3C//DTD SVG 1.1//EN"
 "http://www.w3.org/Graphics/SVG/1.1/DTD/svg11.dtd">
<!-- Generated by graphviz version 6.0.2 (0)
 -->
<!-- Title: ParseTree::setLeftNode Pages: 1 -->
<svg width="380pt" height="46pt"
 viewBox="0.00 0.00 380.00 46.00" xmlns="http://www.w3.org/2000/svg" xmlns:xlink="http://www.w3.org/1999/xlink">
<g id="graph0" class="graph" transform="scale(1 1) rotate(0) translate(4 42)">
<title>ParseTree::setLeftNode</title>
<polygon fill="white" stroke="none" points="-4,4 -4,-42 376,-42 376,4 -4,4"/>
<!-- Node1 -->
<g id="node1" class="node">
<title>Node1</title>
<g id="a_node1"><a xlink:title="Set the left node when a node is given.">
<polygon fill="#bfbfbf" stroke="black" points="243,-0.5 243,-19.5 372,-19.5 372,-0.5 243,-0.5"/>
<text text-anchor="middle" x="307.5" y="-7.5" font-family="Helvetica,sans-Serif" font-size="10.00">ParseTree::setLeftNode</text>
</a>
</g>
</g>
<!-- Node2 -->
<g id="node2" class="node">
<title>Node2</title>
<g id="a_node2"><a xlink:href="tree_8cpp.html#a383cbc4e98ccb86d6506d9a145cff85b" target="_top" xlink:title="Method which takes in start and end pointers and generates a binary tree recursively.">
<polygon fill="white" stroke="black" points="139,-0.5 139,-19.5 207,-19.5 207,-0.5 139,-0.5"/>
<text text-anchor="middle" x="173" y="-7.5" font-family="Helvetica,sans-Serif" font-size="10.00">createTree</text>
</a>
</g>
</g>
<!-- Node1&#45;&gt;Node2 -->
<g id="edge1" class="edge">
<title>Node1&#45;&gt;Node2</title>
<path fill="none" stroke="midnightblue" d="M232.84,-10C223.91,-10 215.16,-10 207.25,-10"/>
<polygon fill="midnightblue" stroke="midnightblue" points="232.97,-13.5 242.97,-10 232.97,-6.5 232.97,-13.5"/>
</g>
<!-- Node2&#45;&gt;Node2 -->
<g id="edge2" class="edge">
<title>Node2&#45;&gt;Node2</title>
<path fill="none" stroke="midnightblue" d="M195.6,-29.03C194.37,-34.13 186.83,-38 173,-38 151.41,-38 145.16,-28.57 154.27,-19.76"/>
<polygon fill="midnightblue" stroke="midnightblue" points="198.81,-27.63 191.73,-19.76 192.35,-30.33 198.81,-27.63"/>
</g>
<!-- Node3 -->
<g id="node3" class="node">
<title>Node3</title>
<g id="a_node3"><a xlink:href="tree_8cpp.html#a9f774923275158a677269871dc4dda65" target="_top" xlink:title="Method which takes in a prefix formula and converts it into a rooted binary parse tree.">
<polygon fill="white" stroke="black" points="0,-0.5 0,-19.5 103,-19.5 103,-0.5 0,-0.5"/>
<text text-anchor="middle" x="51.5" y="-7.5" font-family="Helvetica,sans-Serif" font-size="10.00">prefixToParseTree</text>
</a>
</g>
</g>
<!-- Node2&#45;&gt;Node3 -->
<g id="edge3" class="edge">
<title>Node2&#45;&gt;Node3</title>
<path fill="none" stroke="midnightblue" d="M128.52,-10C120.25,-10 111.52,-10 103.05,-10"/>
<polygon fill="midnightblue" stroke="midnightblue" points="128.71,-13.5 138.71,-10 128.71,-6.5 128.71,-13.5"/>
</g>
</g>
</svg>
