<?xml version="1.0" encoding="UTF-8" standalone="no"?>
<!DOCTYPE svg PUBLIC "-//W3C//DTD SVG 1.1//EN"
 "http://www.w3.org/Graphics/SVG/1.1/DTD/svg11.dtd">
<!-- Generated by graphviz version 6.0.2 (0)
 -->
<!-- Title: ParseTree::getValue Pages: 1 -->
<svg width="435pt" height="102pt"
 viewBox="0.00 0.00 435.00 102.00" xmlns="http://www.w3.org/2000/svg" xmlns:xlink="http://www.w3.org/1999/xlink">
<g id="graph0" class="graph" transform="scale(1 1) rotate(0) translate(4 98)">
<title>ParseTree::getValue</title>
<polygon fill="white" stroke="none" points="-4,4 -4,-98 431,-98 431,4 -4,4"/>
<!-- Node1 -->
<g id="node1" class="node">
<title>Node1</title>
<g id="a_node1"><a xlink:title="Get the value of the node.">
<polygon fill="#bfbfbf" stroke="black" points="314,-28.5 314,-47.5 427,-47.5 427,-28.5 314,-28.5"/>
<text text-anchor="middle" x="370.5" y="-35.5" font-family="Helvetica,sans-Serif" font-size="10.00">ParseTree::getValue</text>
</a>
</g>
</g>
<!-- Node2 -->
<g id="node2" class="node">
<title>Node2</title>
<g id="a_node2"><a xlink:href="tree_8cpp.html#aa0c28b938620dfeec544e2f97d6d04ea" target="_top" xlink:title="Get the truth value of a given node.">
<polygon fill="white" stroke="black" points="168,-56.5 168,-75.5 278,-75.5 278,-56.5 168,-56.5"/>
<text text-anchor="middle" x="223" y="-63.5" font-family="Helvetica,sans-Serif" font-size="10.00">getNodeTruthValue</text>
</a>
</g>
</g>
<!-- Node1&#45;&gt;Node2 -->
<g id="edge1" class="edge">
<title>Node1&#45;&gt;Node2</title>
<path fill="none" stroke="midnightblue" d="M309.82,-49.48C297.73,-51.81 285.14,-54.23 273.44,-56.49"/>
<polygon fill="midnightblue" stroke="midnightblue" points="310.68,-52.88 319.83,-47.56 309.35,-46.01 310.68,-52.88"/>
</g>
<!-- Node4 -->
<g id="node4" class="node">
<title>Node4</title>
<g id="a_node4"><a xlink:href="tree_8cpp.html#a267afe61d4284c3fa8388b5590a8c560" target="_top" xlink:title="Method which prints the binary tree.">
<polygon fill="white" stroke="black" points="197,-0.5 197,-19.5 249,-19.5 249,-0.5 197,-0.5"/>
<text text-anchor="middle" x="223" y="-7.5" font-family="Helvetica,sans-Serif" font-size="10.00">printBT</text>
</a>
</g>
</g>
<!-- Node1&#45;&gt;Node4 -->
<g id="edge4" class="edge">
<title>Node1&#45;&gt;Node4</title>
<path fill="none" stroke="midnightblue" d="M309.93,-26.54C288.79,-22.47 266.11,-18.1 249.36,-14.88"/>
<polygon fill="midnightblue" stroke="midnightblue" points="309.35,-29.99 319.83,-28.44 310.68,-23.12 309.35,-29.99"/>
</g>
<!-- Node2&#45;&gt;Node2 -->
<g id="edge3" class="edge">
<title>Node2&#45;&gt;Node2</title>
<path fill="none" stroke="midnightblue" d="M250.53,-84.65C249.38,-89.94 240.2,-94 223,-94 196.78,-94 189.21,-84.57 200.27,-75.76"/>
<polygon fill="midnightblue" stroke="midnightblue" points="253.56,-82.9 245.73,-75.76 247.4,-86.22 253.56,-82.9"/>
</g>
<!-- Node3 -->
<g id="node3" class="node">
<title>Node3</title>
<g id="a_node3"><a xlink:href="tree_8cpp.html#a25643aa8241f085240d87644329f4656" target="_top" xlink:title="Evaluates the truth value of a given parse tree.">
<polygon fill="white" stroke="black" points="0,-56.5 0,-75.5 132,-75.5 132,-56.5 0,-56.5"/>
<text text-anchor="middle" x="66" y="-63.5" font-family="Helvetica,sans-Serif" font-size="10.00">evaluateTreeTruthValue</text>
</a>
</g>
</g>
<!-- Node2&#45;&gt;Node3 -->
<g id="edge2" class="edge">
<title>Node2&#45;&gt;Node3</title>
<path fill="none" stroke="midnightblue" d="M157.63,-66C149.2,-66 140.55,-66 132.1,-66"/>
<polygon fill="midnightblue" stroke="midnightblue" points="157.79,-69.5 167.79,-66 157.79,-62.5 157.79,-69.5"/>
</g>
<!-- Node4&#45;&gt;Node4 -->
<g id="edge5" class="edge">
<title>Node4&#45;&gt;Node4</title>
<path fill="none" stroke="midnightblue" d="M250.53,-28.65C249.38,-33.94 240.2,-38 223,-38 196.78,-38 189.21,-28.57 200.27,-19.76"/>
<polygon fill="midnightblue" stroke="midnightblue" points="253.56,-26.9 245.73,-19.76 247.4,-30.22 253.56,-26.9"/>
</g>
</g>
</svg>
