<?xml version="1.0" encoding="UTF-8" standalone="no"?>
<!DOCTYPE svg PUBLIC "-//W3C//DTD SVG 1.1//EN"
 "http://www.w3.org/Graphics/SVG/1.1/DTD/svg11.dtd">
<!-- Generated by graphviz version 6.0.2 (0)
 -->
<!-- Title: ParseTree::setRightNode Pages: 1 -->
<svg width="491pt" height="46pt"
 viewBox="0.00 0.00 491.00 46.00" xmlns="http://www.w3.org/2000/svg" xmlns:xlink="http://www.w3.org/1999/xlink">
<g id="graph0" class="graph" transform="scale(1 1) rotate(0) translate(4 42)">
<title>ParseTree::setRightNode</title>
<polygon fill="white" stroke="none" points="-4,4 -4,-42 487,-42 487,4 -4,4"/>
<!-- Node1 -->
<g id="node1" class="node">
<title>Node1</title>
<g id="a_node1"><a xlink:title="Set the right node of a given node.">
<polygon fill="#bfbfbf" stroke="black" points="347,-0.5 347,-19.5 483,-19.5 483,-0.5 347,-0.5"/>
<text text-anchor="middle" x="415" y="-7.5" font-family="Helvetica,sans-Serif" font-size="10.00">ParseTree::setRightNode</text>
</a>
</g>
</g>
<!-- Node2 -->
<g id="node2" class="node">
<title>Node2</title>
<g id="a_node2"><a xlink:href="tree_8cpp.html#ac3a144eab5f857eeb3aabaf201b57796" target="_top" xlink:title="Takes in start and end pointers and generates a binary tree recursively.">
<polygon fill="white" stroke="black" points="216,-0.5 216,-19.5 311,-19.5 311,-0.5 216,-0.5"/>
<text text-anchor="middle" x="263.5" y="-7.5" font-family="Helvetica,sans-Serif" font-size="10.00">createParseTree</text>
</a>
</g>
</g>
<!-- Node1&#45;&gt;Node2 -->
<g id="edge1" class="edge">
<title>Node1&#45;&gt;Node2</title>
<path fill="none" stroke="midnightblue" d="M336.58,-10C327.97,-10 319.41,-10 311.35,-10"/>
<polygon fill="midnightblue" stroke="midnightblue" points="336.68,-13.5 346.68,-10 336.68,-6.5 336.68,-13.5"/>
</g>
<!-- Node2&#45;&gt;Node2 -->
<g id="edge2" class="edge">
<title>Node2&#45;&gt;Node2</title>
<path fill="none" stroke="midnightblue" d="M288.61,-29.03C287.24,-34.13 278.87,-38 263.5,-38 239.51,-38 232.57,-28.57 242.69,-19.76"/>
<polygon fill="midnightblue" stroke="midnightblue" points="291.69,-27.35 284.31,-19.76 285.34,-30.3 291.69,-27.35"/>
</g>
<!-- Node3 -->
<g id="node3" class="node">
<title>Node3</title>
<g id="a_node3"><a xlink:href="tree_8cpp.html#a9f774923275158a677269871dc4dda65" target="_top" xlink:title="Takes in a prefix formula and converts it into a rooted binary parse tree.">
<polygon fill="white" stroke="black" points="77,-0.5 77,-19.5 180,-19.5 180,-0.5 77,-0.5"/>
<text text-anchor="middle" x="128.5" y="-7.5" font-family="Helvetica,sans-Serif" font-size="10.00">prefixToParseTree</text>
</a>
</g>
</g>
<!-- Node2&#45;&gt;Node3 -->
<g id="edge3" class="edge">
<title>Node2&#45;&gt;Node3</title>
<path fill="none" stroke="midnightblue" d="M205.8,-10C197.32,-10 188.64,-10 180.3,-10"/>
<polygon fill="midnightblue" stroke="midnightblue" points="205.98,-13.5 215.98,-10 205.98,-6.5 205.98,-13.5"/>
</g>
<!-- Node4 -->
<g id="node4" class="node">
<title>Node4</title>
<g id="a_node4"><a xlink:href="main_8cpp.html#ae66f6b31b5ad750f1fe042a706a4e3d4" target="_top" xlink:title="Where the tasks are run.">
<polygon fill="white" stroke="black" points="0,-0.5 0,-19.5 41,-19.5 41,-0.5 0,-0.5"/>
<text text-anchor="middle" x="20.5" y="-7.5" font-family="Helvetica,sans-Serif" font-size="10.00">main</text>
</a>
</g>
</g>
<!-- Node3&#45;&gt;Node4 -->
<g id="edge4" class="edge">
<title>Node3&#45;&gt;Node4</title>
<path fill="none" stroke="midnightblue" d="M66.8,-10C57.48,-10 48.49,-10 41,-10"/>
<polygon fill="midnightblue" stroke="midnightblue" points="66.98,-13.5 76.98,-10 66.98,-6.5 66.98,-13.5"/>
</g>
</g>
</svg>
