<?xml version="1.0" encoding="UTF-8" standalone="no"?>
<!DOCTYPE svg PUBLIC "-//W3C//DTD SVG 1.1//EN"
 "http://www.w3.org/Graphics/SVG/1.1/DTD/svg11.dtd">
<!-- Generated by graphviz version 6.0.2 (0)
 -->
<!-- Title: ParseTree::getRightNode Pages: 1 -->
<svg width="536pt" height="196pt"
 viewBox="0.00 0.00 536.00 196.00" xmlns="http://www.w3.org/2000/svg" xmlns:xlink="http://www.w3.org/1999/xlink">
<g id="graph0" class="graph" transform="scale(1 1) rotate(0) translate(4 192)">
<title>ParseTree::getRightNode</title>
<polygon fill="white" stroke="none" points="-4,4 -4,-192 532,-192 532,4 -4,4"/>
<!-- Node1 -->
<g id="node1" class="node">
<title>Node1</title>
<g id="a_node1"><a xlink:title="Get the right node when a node is given.">
<polygon fill="#bfbfbf" stroke="black" points="391,-66.5 391,-85.5 528,-85.5 528,-66.5 391,-66.5"/>
<text text-anchor="middle" x="459.5" y="-73.5" font-family="Helvetica,sans-Serif" font-size="10.00">ParseTree::getRightNode</text>
</a>
</g>
</g>
<!-- Node2 -->
<g id="node2" class="node">
<title>Node2</title>
<g id="a_node2"><a xlink:href="tree_8cpp.html#af018a1a010b6d8165c511b6ba72ec8b2" target="_top" xlink:title="Get the max height of the node.">
<polygon fill="white" stroke="black" points="255,-150.5 255,-169.5 345,-169.5 345,-150.5 255,-150.5"/>
<text text-anchor="middle" x="300" y="-157.5" font-family="Helvetica,sans-Serif" font-size="10.00">getNodeHeight</text>
</a>
</g>
</g>
<!-- Node1&#45;&gt;Node2 -->
<g id="edge1" class="edge">
<title>Node1&#45;&gt;Node2</title>
<path fill="none" stroke="midnightblue" d="M437.08,-91.44C416.69,-105.65 384.8,-126.62 355,-141 347.75,-144.5 339.68,-147.68 332.04,-150.41"/>
<polygon fill="midnightblue" stroke="midnightblue" points="439.17,-94.25 445.33,-85.62 435.14,-88.53 439.17,-94.25"/>
</g>
<!-- Node5 -->
<g id="node5" class="node">
<title>Node5</title>
<g id="a_node5"><a xlink:href="tree_8cpp.html#aa0c28b938620dfeec544e2f97d6d04ea" target="_top" xlink:title="Gets the truth value of a given node.">
<polygon fill="white" stroke="black" points="245,-94.5 245,-113.5 355,-113.5 355,-94.5 245,-94.5"/>
<text text-anchor="middle" x="300" y="-101.5" font-family="Helvetica,sans-Serif" font-size="10.00">getNodeTruthValue</text>
</a>
</g>
</g>
<!-- Node1&#45;&gt;Node5 -->
<g id="edge5" class="edge">
<title>Node1&#45;&gt;Node5</title>
<path fill="none" stroke="midnightblue" d="M394.69,-87.34C381.36,-89.71 367.43,-92.19 354.52,-94.49"/>
<polygon fill="midnightblue" stroke="midnightblue" points="395.5,-90.75 404.74,-85.56 394.28,-83.86 395.5,-90.75"/>
</g>
<!-- Node7 -->
<g id="node7" class="node">
<title>Node7</title>
<g id="a_node7"><a xlink:href="tree_8cpp.html#aa2112d5255c2ad249f275f84a5c02181" target="_top" xlink:title="Utility method which traverses the tree in in&#45;order manner.">
<polygon fill="white" stroke="black" points="251,-38.5 251,-57.5 349,-57.5 349,-38.5 251,-38.5"/>
<text text-anchor="middle" x="300" y="-45.5" font-family="Helvetica,sans-Serif" font-size="10.00">inOrderTraversal</text>
</a>
</g>
</g>
<!-- Node1&#45;&gt;Node7 -->
<g id="edge9" class="edge">
<title>Node1&#45;&gt;Node7</title>
<path fill="none" stroke="midnightblue" d="M394.87,-64.69C379.65,-61.98 363.64,-59.14 349.24,-56.58"/>
<polygon fill="midnightblue" stroke="midnightblue" points="394.28,-68.14 404.74,-66.44 395.5,-61.25 394.28,-68.14"/>
</g>
<!-- Node9 -->
<g id="node9" class="node">
<title>Node9</title>
<g id="a_node9"><a xlink:href="tree_8cpp.html#a705609245a7281d7c1186f2097e53427" target="_top" xlink:title="Prints the binary tree.">
<polygon fill="white" stroke="black" points="84,-0.5 84,-19.5 202,-19.5 202,-0.5 84,-0.5"/>
<text text-anchor="middle" x="143" y="-7.5" font-family="Helvetica,sans-Serif" font-size="10.00">printBinaryParseTree</text>
</a>
</g>
</g>
<!-- Node1&#45;&gt;Node9 -->
<g id="edge13" class="edge">
<title>Node1&#45;&gt;Node9</title>
<path fill="none" stroke="midnightblue" d="M432.98,-61.47C412.56,-50.58 382.84,-36.35 355,-29 304.5,-15.67 245.1,-11.28 202.22,-10.02"/>
<polygon fill="midnightblue" stroke="midnightblue" points="431.48,-64.64 441.94,-66.35 434.83,-58.5 431.48,-64.64"/>
</g>
<!-- Node2&#45;&gt;Node2 -->
<g id="edge4" class="edge">
<title>Node2&#45;&gt;Node2</title>
<path fill="none" stroke="midnightblue" d="M329.31,-178.65C328.08,-183.94 318.31,-188 300,-188 272.1,-188 264.03,-178.57 275.8,-169.76"/>
<polygon fill="midnightblue" stroke="midnightblue" points="332.21,-176.69 324.2,-169.76 326.14,-180.17 332.21,-176.69"/>
</g>
<!-- Node3 -->
<g id="node3" class="node">
<title>Node3</title>
<g id="a_node3"><a xlink:href="tree_8cpp.html#a547f3073058ac0de704fff6c21e4134c" target="_top" xlink:title="Calculate the height of the binary tree recursively.">
<polygon fill="white" stroke="black" points="85,-141.5 85,-160.5 201,-160.5 201,-141.5 85,-141.5"/>
<text text-anchor="middle" x="143" y="-148.5" font-family="Helvetica,sans-Serif" font-size="10.00">getBinaryTreeHeight</text>
</a>
</g>
</g>
<!-- Node2&#45;&gt;Node3 -->
<g id="edge2" class="edge">
<title>Node2&#45;&gt;Node3</title>
<path fill="none" stroke="midnightblue" d="M244.93,-156.86C230.77,-156.04 215.47,-155.15 201.16,-154.32"/>
<polygon fill="midnightblue" stroke="midnightblue" points="244.81,-160.36 255,-157.45 245.22,-153.37 244.81,-160.36"/>
</g>
<!-- Node4 -->
<g id="node4" class="node">
<title>Node4</title>
<g id="a_node4"><a xlink:href="main_8cpp.html#ae66f6b31b5ad750f1fe042a706a4e3d4" target="_top" xlink:title="Where the tasks are run.">
<polygon fill="white" stroke="black" points="0,-75.5 0,-94.5 41,-94.5 41,-75.5 0,-75.5"/>
<text text-anchor="middle" x="20.5" y="-82.5" font-family="Helvetica,sans-Serif" font-size="10.00">main</text>
</a>
</g>
</g>
<!-- Node3&#45;&gt;Node4 -->
<g id="edge3" class="edge">
<title>Node3&#45;&gt;Node4</title>
<path fill="none" stroke="midnightblue" d="M107.48,-137.6C97.45,-133.32 86.62,-128.3 77,-123 61.66,-114.55 45.24,-102.95 34.28,-94.8"/>
<polygon fill="midnightblue" stroke="midnightblue" points="106.19,-140.85 116.77,-141.46 108.88,-134.39 106.19,-140.85"/>
</g>
<!-- Node5&#45;&gt;Node5 -->
<g id="edge8" class="edge">
<title>Node5&#45;&gt;Node5</title>
<path fill="none" stroke="midnightblue" d="M329.31,-122.65C328.08,-127.94 318.31,-132 300,-132 272.1,-132 264.03,-122.57 275.8,-113.76"/>
<polygon fill="midnightblue" stroke="midnightblue" points="332.21,-120.69 324.2,-113.76 326.14,-124.17 332.21,-120.69"/>
</g>
<!-- Node6 -->
<g id="node6" class="node">
<title>Node6</title>
<g id="a_node6"><a xlink:href="tree_8cpp.html#a25643aa8241f085240d87644329f4656" target="_top" xlink:title="Evaluates the truth value of a given parse tree.">
<polygon fill="white" stroke="black" points="77,-94.5 77,-113.5 209,-113.5 209,-94.5 77,-94.5"/>
<text text-anchor="middle" x="143" y="-101.5" font-family="Helvetica,sans-Serif" font-size="10.00">evaluateTreeTruthValue</text>
</a>
</g>
</g>
<!-- Node5&#45;&gt;Node6 -->
<g id="edge6" class="edge">
<title>Node5&#45;&gt;Node6</title>
<path fill="none" stroke="midnightblue" d="M234.63,-104C226.2,-104 217.55,-104 209.1,-104"/>
<polygon fill="midnightblue" stroke="midnightblue" points="234.79,-107.5 244.79,-104 234.79,-100.5 234.79,-107.5"/>
</g>
<!-- Node6&#45;&gt;Node4 -->
<g id="edge7" class="edge">
<title>Node6&#45;&gt;Node4</title>
<path fill="none" stroke="midnightblue" d="M71.23,-92.84C60.25,-91.11 49.75,-89.46 41.26,-88.12"/>
<polygon fill="midnightblue" stroke="midnightblue" points="70.97,-96.34 81.4,-94.44 72.06,-89.43 70.97,-96.34"/>
</g>
<!-- Node7&#45;&gt;Node7 -->
<g id="edge10" class="edge">
<title>Node7&#45;&gt;Node7</title>
<path fill="none" stroke="midnightblue" d="M329.31,-66.65C328.08,-71.94 318.31,-76 300,-76 272.1,-76 264.03,-66.57 275.8,-57.76"/>
<polygon fill="midnightblue" stroke="midnightblue" points="332.21,-64.69 324.2,-57.76 326.14,-68.17 332.21,-64.69"/>
</g>
<!-- Node8 -->
<g id="node8" class="node">
<title>Node8</title>
<g id="a_node8"><a xlink:href="tree_8cpp.html#abbc27d85ce3224d78c8b59f4744f76f5" target="_top" xlink:title="Traverses the parse tree and return the infix formula.">
<polygon fill="white" stroke="black" points="95,-56.5 95,-75.5 191,-75.5 191,-56.5 95,-56.5"/>
<text text-anchor="middle" x="143" y="-63.5" font-family="Helvetica,sans-Serif" font-size="10.00">parseTreeToInfix</text>
</a>
</g>
</g>
<!-- Node7&#45;&gt;Node8 -->
<g id="edge11" class="edge">
<title>Node7&#45;&gt;Node8</title>
<path fill="none" stroke="midnightblue" d="M240.78,-54.76C224.39,-56.66 206.76,-58.71 191.1,-60.53"/>
<polygon fill="midnightblue" stroke="midnightblue" points="241.28,-58.23 250.81,-53.6 240.47,-51.27 241.28,-58.23"/>
</g>
<!-- Node8&#45;&gt;Node4 -->
<g id="edge12" class="edge">
<title>Node8&#45;&gt;Node4</title>
<path fill="none" stroke="midnightblue" d="M84.57,-75.05C69.01,-77.51 53.2,-80 41.3,-81.88"/>
<polygon fill="midnightblue" stroke="midnightblue" points="85.39,-78.47 94.72,-73.45 84.3,-71.56 85.39,-78.47"/>
</g>
<!-- Node9&#45;&gt;Node4 -->
<g id="edge14" class="edge">
<title>Node9&#45;&gt;Node4</title>
<path fill="none" stroke="midnightblue" d="M115.41,-24.48C103.52,-31.12 89.42,-39.23 77,-47 62.35,-56.16 46.09,-67.43 34.98,-75.31"/>
<polygon fill="midnightblue" stroke="midnightblue" points="117.34,-27.41 124.39,-19.51 113.94,-21.29 117.34,-27.41"/>
</g>
<!-- Node9&#45;&gt;Node9 -->
<g id="edge15" class="edge">
<title>Node9&#45;&gt;Node9</title>
<path fill="none" stroke="midnightblue" d="M165.79,-29.03C164.54,-34.13 156.95,-38 143,-38 121.23,-38 114.93,-28.57 124.12,-19.76"/>
<polygon fill="midnightblue" stroke="midnightblue" points="168.99,-27.61 161.88,-19.76 162.54,-30.33 168.99,-27.61"/>
</g>
</g>
</svg>
