<?xml version="1.0" encoding="UTF-8" standalone="no"?>
<!DOCTYPE svg PUBLIC "-//W3C//DTD SVG 1.1//EN"
 "http://www.w3.org/Graphics/SVG/1.1/DTD/svg11.dtd">
<!-- Generated by graphviz version 7.0.0 (0)
 -->
<!-- Title: ParseTree::getInfixExpression Pages: 1 -->
<svg width="529pt" height="101pt"
 viewBox="0.00 0.00 529.00 101.00" xmlns="http://www.w3.org/2000/svg" xmlns:xlink="http://www.w3.org/1999/xlink">
<g id="graph0" class="graph" transform="scale(1 1) rotate(0) translate(4 97)">
<title>ParseTree::getInfixExpression</title>
<!-- Node1 -->
<g id="node1" class="node">
<title>Node1</title>
<g id="a_node1"><a xlink:title="Traverses the parse tree and return the infix formula.">
<polygon fill="#999999" stroke="#666666" points="161,-56 0,-56 0,-37 161,-37 161,-56"/>
<text text-anchor="middle" x="80.5" y="-44" font-family="Helvetica,sans-Serif" font-size="10.00">ParseTree::getInfixExpression</text>
</a>
</g>
</g>
<!-- Node2 -->
<g id="node2" class="node">
<title>Node2</title>
<g id="a_node2"><a xlink:href="classParseTree.html#a434c3422fae323882805bd4109f06ba0" target="_top" xlink:title="Utility method which traverses the tree in in&#45;order manner.">
<polygon fill="white" stroke="#666666" points="348,-56 197,-56 197,-37 348,-37 348,-56"/>
<text text-anchor="middle" x="272.5" y="-44" font-family="Helvetica,sans-Serif" font-size="10.00">ParseTree::inOrderTraversal</text>
</a>
</g>
</g>
<!-- Node1&#45;&gt;Node2 -->
<g id="edge1" class="edge">
<title>Node1&#45;&gt;Node2</title>
<path fill="none" stroke="#63b8ff" d="M161.25,-46.5C169.1,-46.5 177.09,-46.5 185,-46.5"/>
<polygon fill="#63b8ff" stroke="#63b8ff" points="184.99,-50 194.99,-46.5 184.99,-43 184.99,-50"/>
</g>
<!-- Node2&#45;&gt;Node2 -->
<g id="edge5" class="edge">
<title>Node2&#45;&gt;Node2</title>
<path fill="none" stroke="#63b8ff" d="M244.32,-56.37C231.47,-64.94 240.86,-74 272.5,-74 290.3,-74 301.06,-71.13 304.78,-67.1"/>
<polygon fill="#63b8ff" stroke="#63b8ff" points="308.06,-65.88 301.22,-57.78 301.52,-68.37 308.06,-65.88"/>
</g>
<!-- Node3 -->
<g id="node3" class="node">
<title>Node3</title>
<g id="a_node3"><a xlink:href="classParseTree.html#ae1cb6829644917b9437f28a08b1e60a1" target="_top" xlink:title="Get the left node when a node is given.">
<polygon fill="white" stroke="#666666" points="517.5,-93 387.5,-93 387.5,-74 517.5,-74 517.5,-93"/>
<text text-anchor="middle" x="452.5" y="-81" font-family="Helvetica,sans-Serif" font-size="10.00">ParseTree::getLeftNode</text>
</a>
</g>
</g>
<!-- Node2&#45;&gt;Node3 -->
<g id="edge2" class="edge">
<title>Node2&#45;&gt;Node3</title>
<path fill="none" stroke="#63b8ff" d="M321.2,-56.42C343.15,-60.98 369.4,-66.43 392.57,-71.25"/>
<polygon fill="#63b8ff" stroke="#63b8ff" points="391.68,-74.64 402.19,-73.25 393.11,-67.79 391.68,-74.64"/>
</g>
<!-- Node4 -->
<g id="node4" class="node">
<title>Node4</title>
<g id="a_node4"><a xlink:href="classParseTree.html#a101193b71bc7e02d051dd73e6f079aa1" target="_top" xlink:title="Get the right node when a node is given.">
<polygon fill="white" stroke="#666666" points="521,-56 384,-56 384,-37 521,-37 521,-56"/>
<text text-anchor="middle" x="452.5" y="-44" font-family="Helvetica,sans-Serif" font-size="10.00">ParseTree::getRightNode</text>
</a>
</g>
</g>
<!-- Node2&#45;&gt;Node4 -->
<g id="edge3" class="edge">
<title>Node2&#45;&gt;Node4</title>
<path fill="none" stroke="#63b8ff" d="M348.47,-46.5C356.32,-46.5 364.33,-46.5 372.22,-46.5"/>
<polygon fill="#63b8ff" stroke="#63b8ff" points="372.18,-50 382.18,-46.5 372.18,-43 372.18,-50"/>
</g>
<!-- Node5 -->
<g id="node5" class="node">
<title>Node5</title>
<g id="a_node5"><a xlink:href="classParseTree.html#a816af779bb7d32b6ab6e513cf69648a4" target="_top" xlink:title="Get the value of the node.">
<polygon fill="white" stroke="#666666" points="509,-19 396,-19 396,0 509,0 509,-19"/>
<text text-anchor="middle" x="452.5" y="-7" font-family="Helvetica,sans-Serif" font-size="10.00">ParseTree::getValue</text>
</a>
</g>
</g>
<!-- Node2&#45;&gt;Node5 -->
<g id="edge4" class="edge">
<title>Node2&#45;&gt;Node5</title>
<path fill="none" stroke="#63b8ff" d="M321.2,-36.58C343.15,-32.02 369.4,-26.57 392.57,-21.75"/>
<polygon fill="#63b8ff" stroke="#63b8ff" points="393.11,-25.21 402.19,-19.75 391.68,-18.36 393.11,-25.21"/>
</g>
</g>
</svg>
