<?xml version="1.0" encoding="UTF-8" standalone="no"?>
<!DOCTYPE svg PUBLIC "-//W3C//DTD SVG 1.1//EN"
 "http://www.w3.org/Graphics/SVG/1.1/DTD/svg11.dtd">
<!-- Generated by graphviz version 6.0.2 (0)
 -->
<!-- Title: include/conversions.h Pages: 1 -->
<svg width="148pt" height="85pt"
 viewBox="0.00 0.00 148.00 84.80" xmlns="http://www.w3.org/2000/svg" xmlns:xlink="http://www.w3.org/1999/xlink">
<g id="graph0" class="graph" transform="scale(1 1) rotate(0) translate(4 80.8)">
<title>include/conversions.h</title>
<polygon fill="white" stroke="none" points="-4,4 -4,-80.8 144,-80.8 144,4 -4,4"/>
<!-- Node1 -->
<g id="node1" class="node">
<title>Node1</title>
<g id="a_node1"><a xlink:title="Header file for conversions.">
<polygon fill="#bfbfbf" stroke="black" points="0,-56.5 0,-75.5 122,-75.5 122,-56.5 0,-56.5"/>
<text text-anchor="middle" x="61" y="-63.5" font-family="Helvetica,sans-Serif" font-size="10.00">include/conversions.h</text>
</a>
</g>
</g>
<!-- Node1&#45;&gt;Node1 -->
<g id="edge1" class="edge">
<title>Node1&#45;&gt;Node1</title>
<path fill="none" stroke="midnightblue" d="M104.79,-76.37C123.75,-77.23 140,-73.78 140,-66 140,-56.87 117.59,-53.69 94.69,-56.47"/>
<polygon fill="midnightblue" stroke="midnightblue" points="104.95,-72.87 94.69,-75.53 104.37,-79.85 104.95,-72.87"/>
</g>
<!-- Node2 -->
<g id="node2" class="node">
<title>Node2</title>
<g id="a_node2"><a xlink:href="conversions_8cpp.html" target="_top" xlink:title="Source file for conversions.">
<polygon fill="white" stroke="black" points="4.5,-0.5 4.5,-19.5 117.5,-19.5 117.5,-0.5 4.5,-0.5"/>
<text text-anchor="middle" x="61" y="-7.5" font-family="Helvetica,sans-Serif" font-size="10.00">src/conversions.cpp</text>
</a>
</g>
</g>
<!-- Node1&#45;&gt;Node2 -->
<g id="edge2" class="edge">
<title>Node1&#45;&gt;Node2</title>
<path fill="none" stroke="midnightblue" d="M61,-45.8C61,-36.91 61,-26.78 61,-19.75"/>
<polygon fill="midnightblue" stroke="midnightblue" points="57.5,-46.08 61,-56.08 64.5,-46.08 57.5,-46.08"/>
</g>
</g>
</svg>
