<?xml version="1.0" encoding="UTF-8" standalone="no"?>
<!DOCTYPE svg PUBLIC "-//W3C//DTD SVG 1.1//EN"
 "http://www.w3.org/Graphics/SVG/1.1/DTD/svg11.dtd">
<!-- Generated by graphviz version 6.0.2 (0)
 -->
<!-- Title: include/conversions.h Pages: 1 -->
<svg width="324pt" height="197pt"
 viewBox="0.00 0.00 324.00 196.92" xmlns="http://www.w3.org/2000/svg" xmlns:xlink="http://www.w3.org/1999/xlink">
<g id="graph0" class="graph" transform="scale(1 1) rotate(0) translate(4 192.92)">
<title>include/conversions.h</title>
<polygon fill="white" stroke="none" points="-4,4 -4,-192.92 320,-192.92 320,4 -4,4"/>
<!-- Node1 -->
<g id="node1" class="node">
<title>Node1</title>
<g id="a_node1"><a xlink:title="Header file for conversions.">
<polygon fill="#bfbfbf" stroke="black" points="119,-168.5 119,-187.5 241,-187.5 241,-168.5 119,-168.5"/>
<text text-anchor="middle" x="180" y="-175.5" font-family="Helvetica,sans-Serif" font-size="10.00">include/conversions.h</text>
</a>
</g>
</g>
<!-- Node1&#45;&gt;Node1 -->
<g id="edge3" class="edge">
<title>Node1&#45;&gt;Node1</title>
<path fill="none" stroke="midnightblue" d="M213.69,-187.53C236.59,-190.31 259,-187.13 259,-178 259,-170.22 242.75,-166.77 223.79,-167.63"/>
<polygon fill="midnightblue" stroke="midnightblue" points="223.37,-164.15 213.69,-168.47 223.95,-171.13 223.37,-164.15"/>
</g>
<!-- Node2 -->
<g id="node2" class="node">
<title>Node2</title>
<g id="a_node2"><a xlink:title=" ">
<polygon fill="white" stroke="#bfbfbf" points="0,-0.5 0,-19.5 64,-19.5 64,-0.5 0,-0.5"/>
<text text-anchor="middle" x="32" y="-7.5" font-family="Helvetica,sans-Serif" font-size="10.00">algorithm</text>
</a>
</g>
</g>
<!-- Node1&#45;&gt;Node2 -->
<g id="edge1" class="edge">
<title>Node1&#45;&gt;Node2</title>
<path fill="none" stroke="midnightblue" d="M170.02,-168.38C150.88,-151.6 108.15,-112.96 77,-76 64.19,-60.8 51.47,-41.99 42.84,-28.52"/>
<polygon fill="midnightblue" stroke="midnightblue" points="45.63,-26.38 37.33,-19.79 39.7,-30.12 45.63,-26.38"/>
</g>
<!-- Node3 -->
<g id="node3" class="node">
<title>Node3</title>
<g id="a_node3"><a xlink:title=" ">
<polygon fill="white" stroke="#bfbfbf" points="272,-0.5 272,-19.5 316,-19.5 316,-0.5 272,-0.5"/>
<text text-anchor="middle" x="294" y="-7.5" font-family="Helvetica,sans-Serif" font-size="10.00">string</text>
</a>
</g>
</g>
<!-- Node1&#45;&gt;Node3 -->
<g id="edge2" class="edge">
<title>Node1&#45;&gt;Node3</title>
<path fill="none" stroke="midnightblue" d="M209.35,-168.44C227.97,-161.52 251.08,-149.95 265,-132 288.42,-101.8 293.32,-55.56 294.11,-29.87"/>
<polygon fill="midnightblue" stroke="midnightblue" points="297.61,-29.68 294.24,-19.64 290.61,-29.59 297.61,-29.68"/>
</g>
<!-- Node4 -->
<g id="node4" class="node">
<title>Node4</title>
<g id="a_node4"><a xlink:href="parsetree_8h.html" target="_top" xlink:title="Header file for parse tree.">
<polygon fill="white" stroke="black" points="156,-56.5 156,-75.5 228,-75.5 228,-56.5 156,-56.5"/>
<text text-anchor="middle" x="192" y="-63.5" font-family="Helvetica,sans-Serif" font-size="10.00">parsetree.h</text>
</a>
</g>
</g>
<!-- Node1&#45;&gt;Node4 -->
<g id="edge4" class="edge">
<title>Node1&#45;&gt;Node4</title>
<path fill="none" stroke="midnightblue" d="M180.94,-168.37C182.88,-150.62 187.35,-109.67 189.97,-85.6"/>
<polygon fill="midnightblue" stroke="midnightblue" points="193.46,-85.91 191.06,-75.59 186.5,-85.15 193.46,-85.91"/>
</g>
<!-- Node7 -->
<g id="node7" class="node">
<title>Node7</title>
<g id="a_node7"><a xlink:href="stack_8h.html" target="_top" xlink:title="Header file for stack.">
<polygon fill="white" stroke="black" points="86,-56.5 86,-75.5 138,-75.5 138,-56.5 86,-56.5"/>
<text text-anchor="middle" x="112" y="-63.5" font-family="Helvetica,sans-Serif" font-size="10.00">stack.h</text>
</a>
</g>
</g>
<!-- Node1&#45;&gt;Node7 -->
<g id="edge9" class="edge">
<title>Node1&#45;&gt;Node7</title>
<path fill="none" stroke="midnightblue" d="M174.66,-168.37C163.49,-150.3 137.45,-108.18 122.7,-84.31"/>
<polygon fill="midnightblue" stroke="midnightblue" points="125.55,-82.26 117.31,-75.59 119.59,-85.94 125.55,-82.26"/>
</g>
<!-- Node8 -->
<g id="node8" class="node">
<title>Node8</title>
<g id="a_node8"><a xlink:href="utils_8h.html" target="_top" xlink:title="Utility functions for tasks.">
<polygon fill="white" stroke="black" points="208.5,-112.5 208.5,-131.5 255.5,-131.5 255.5,-112.5 208.5,-112.5"/>
<text text-anchor="middle" x="232" y="-119.5" font-family="Helvetica,sans-Serif" font-size="10.00">utils.h</text>
</a>
</g>
</g>
<!-- Node1&#45;&gt;Node8 -->
<g id="edge11" class="edge">
<title>Node1&#45;&gt;Node8</title>
<path fill="none" stroke="midnightblue" d="M188.59,-168.08C196.16,-160.22 207.38,-148.57 216.51,-139.08"/>
<polygon fill="midnightblue" stroke="midnightblue" points="219.16,-141.38 223.57,-131.75 214.12,-136.53 219.16,-141.38"/>
</g>
<!-- Node4&#45;&gt;Node2 -->
<g id="edge5" class="edge">
<title>Node4&#45;&gt;Node2</title>
<path fill="none" stroke="midnightblue" d="M166.65,-56.44C139.73,-47.36 97,-32.94 66.91,-22.78"/>
<polygon fill="midnightblue" stroke="midnightblue" points="67.83,-19.4 57.23,-19.52 65.59,-26.03 67.83,-19.4"/>
</g>
<!-- Node4&#45;&gt;Node3 -->
<g id="edge7" class="edge">
<title>Node4&#45;&gt;Node3</title>
<path fill="none" stroke="midnightblue" d="M208.39,-56.32C224.67,-47.7 249.87,-34.36 268.72,-24.39"/>
<polygon fill="midnightblue" stroke="midnightblue" points="270.45,-27.43 277.65,-19.65 267.18,-21.24 270.45,-27.43"/>
</g>
<!-- Node5 -->
<g id="node5" class="node">
<title>Node5</title>
<g id="a_node5"><a xlink:title=" ">
<polygon fill="white" stroke="#bfbfbf" points="82,-0.5 82,-19.5 142,-19.5 142,-0.5 82,-0.5"/>
<text text-anchor="middle" x="112" y="-7.5" font-family="Helvetica,sans-Serif" font-size="10.00">iostream</text>
</a>
</g>
</g>
<!-- Node4&#45;&gt;Node5 -->
<g id="edge6" class="edge">
<title>Node4&#45;&gt;Node5</title>
<path fill="none" stroke="midnightblue" d="M179.15,-56.32C166.78,-47.98 147.87,-35.21 133.26,-25.35"/>
<polygon fill="midnightblue" stroke="midnightblue" points="135.07,-22.35 124.82,-19.65 131.15,-28.15 135.07,-22.35"/>
</g>
<!-- Node6 -->
<g id="node6" class="node">
<title>Node6</title>
<g id="a_node6"><a xlink:title=" ">
<polygon fill="white" stroke="#bfbfbf" points="160.5,-0.5 160.5,-19.5 253.5,-19.5 253.5,-0.5 160.5,-0.5"/>
<text text-anchor="middle" x="207" y="-7.5" font-family="Helvetica,sans-Serif" font-size="10.00">unordered_map</text>
</a>
</g>
</g>
<!-- Node4&#45;&gt;Node6 -->
<g id="edge8" class="edge">
<title>Node4&#45;&gt;Node6</title>
<path fill="none" stroke="midnightblue" d="M194.48,-56.08C196.49,-48.85 199.39,-38.41 201.89,-29.4"/>
<polygon fill="midnightblue" stroke="midnightblue" points="205.26,-30.32 204.57,-19.75 198.52,-28.45 205.26,-30.32"/>
</g>
<!-- Node7&#45;&gt;Node5 -->
<g id="edge10" class="edge">
<title>Node7&#45;&gt;Node5</title>
<path fill="none" stroke="midnightblue" d="M112,-56.08C112,-49.01 112,-38.86 112,-29.99"/>
<polygon fill="midnightblue" stroke="midnightblue" points="115.5,-29.75 112,-19.75 108.5,-29.75 115.5,-29.75"/>
</g>
<!-- Node8&#45;&gt;Node3 -->
<g id="edge12" class="edge">
<title>Node8&#45;&gt;Node3</title>
<path fill="none" stroke="midnightblue" d="M236.87,-112.37C247.05,-94.3 270.79,-52.18 284.24,-28.31"/>
<polygon fill="midnightblue" stroke="midnightblue" points="287.3,-30.02 289.16,-19.59 281.2,-26.58 287.3,-30.02"/>
</g>
<!-- Node8&#45;&gt;Node4 -->
<g id="edge13" class="edge">
<title>Node8&#45;&gt;Node4</title>
<path fill="none" stroke="midnightblue" d="M225.39,-112.08C219.74,-104.46 211.46,-93.26 204.55,-83.94"/>
<polygon fill="midnightblue" stroke="midnightblue" points="207.25,-81.7 198.48,-75.75 201.62,-85.87 207.25,-81.7"/>
</g>
</g>
</svg>
