<?xml version="1.0" encoding="UTF-8" standalone="no"?>
<!DOCTYPE svg PUBLIC "-//W3C//DTD SVG 1.1//EN"
 "http://www.w3.org/Graphics/SVG/1.1/DTD/svg11.dtd">
<!-- Generated by graphviz version 7.0.0 (0)
 -->
<!-- Title: include/conversions.h Pages: 1 -->
<svg width="228pt" height="138pt"
 viewBox="0.00 0.00 228.00 137.79" xmlns="http://www.w3.org/2000/svg" xmlns:xlink="http://www.w3.org/1999/xlink">
<g id="graph0" class="graph" transform="scale(1 1) rotate(0) translate(4 133.79)">
<title>include/conversions.h</title>
<!-- Node1 -->
<g id="node1" class="node">
<title>Node1</title>
<g id="a_node1"><a xlink:title="Header file for conversions.">
<polygon fill="#999999" stroke="#666666" points="164.5,-129 42.5,-129 42.5,-110 164.5,-110 164.5,-129"/>
<text text-anchor="middle" x="103.5" y="-117" font-family="Helvetica,sans-Serif" font-size="10.00">include/conversions.h</text>
</a>
</g>
</g>
<!-- Node1&#45;&gt;Node1 -->
<g id="edge1" class="edge">
<title>Node1&#45;&gt;Node1</title>
<path fill="none" stroke="#63b8ff" d="M154.91,-129.79C170.4,-129.52 182.5,-126.09 182.5,-119.5 182.5,-111.39 164.18,-108.06 143.74,-109.52"/>
<polygon fill="#63b8ff" stroke="#63b8ff" points="155.35,-126.31 145.25,-129.52 155.15,-133.3 155.35,-126.31"/>
</g>
<!-- Node2 -->
<g id="node2" class="node">
<title>Node2</title>
<g id="a_node2"><a xlink:href="main_8h.html" target="_top" xlink:title="Header file for main.">
<polygon fill="white" stroke="#666666" points="89,-74 0,-74 0,-55 89,-55 89,-74"/>
<text text-anchor="middle" x="44.5" y="-62" font-family="Helvetica,sans-Serif" font-size="10.00">include/main.h</text>
</a>
</g>
</g>
<!-- Node1&#45;&gt;Node2 -->
<g id="edge2" class="edge">
<title>Node1&#45;&gt;Node2</title>
<path fill="none" stroke="#63b8ff" d="M85.23,-102.09C75.04,-92.94 62.76,-81.9 54.36,-74.36"/>
<polygon fill="#63b8ff" stroke="#63b8ff" points="82.59,-104.42 92.37,-108.5 87.27,-99.21 82.59,-104.42"/>
</g>
<!-- Node4 -->
<g id="node4" class="node">
<title>Node4</title>
<g id="a_node4"><a xlink:href="conversions_8cpp.html" target="_top" xlink:title="Source file for conversions.">
<polygon fill="white" stroke="#666666" points="220,-74 107,-74 107,-55 220,-55 220,-74"/>
<text text-anchor="middle" x="163.5" y="-62" font-family="Helvetica,sans-Serif" font-size="10.00">src/conversions.cpp</text>
</a>
</g>
</g>
<!-- Node1&#45;&gt;Node4 -->
<g id="edge4" class="edge">
<title>Node1&#45;&gt;Node4</title>
<path fill="none" stroke="#63b8ff" d="M122.08,-102.09C132.44,-92.94 144.93,-81.9 153.47,-74.36"/>
<polygon fill="#63b8ff" stroke="#63b8ff" points="119.99,-99.26 114.81,-108.51 124.62,-104.51 119.99,-99.26"/>
</g>
<!-- Node3 -->
<g id="node3" class="node">
<title>Node3</title>
<g id="a_node3"><a xlink:href="main_8cpp.html" target="_top" xlink:title="Source file for main.">
<polygon fill="white" stroke="#666666" points="84,-19 5,-19 5,0 84,0 84,-19"/>
<text text-anchor="middle" x="44.5" y="-7" font-family="Helvetica,sans-Serif" font-size="10.00">src/main.cpp</text>
</a>
</g>
</g>
<!-- Node2&#45;&gt;Node3 -->
<g id="edge3" class="edge">
<title>Node2&#45;&gt;Node3</title>
<path fill="none" stroke="#63b8ff" d="M44.5,-43.35C44.5,-35.1 44.5,-25.97 44.5,-19.44"/>
<polygon fill="#63b8ff" stroke="#63b8ff" points="41,-43.23 44.5,-53.23 48,-43.23 41,-43.23"/>
</g>
</g>
</svg>
