<?xml version="1.0" encoding="UTF-8" standalone="no"?>
<!DOCTYPE svg PUBLIC "-//W3C//DTD SVG 1.1//EN"
 "http://www.w3.org/Graphics/SVG/1.1/DTD/svg11.dtd">
<!-- Generated by graphviz version 7.0.0 (0)
 -->
<!-- Title: src/conversions.cpp Pages: 1 -->
<svg width="324pt" height="247pt"
 viewBox="0.00 0.00 324.00 247.00" xmlns="http://www.w3.org/2000/svg" xmlns:xlink="http://www.w3.org/1999/xlink">
<g id="graph0" class="graph" transform="scale(1 1) rotate(0) translate(4 243)">
<title>src/conversions.cpp</title>
<!-- Node1 -->
<g id="node1" class="node">
<title>Node1</title>
<g id="a_node1"><a xlink:title="Source file for conversions.">
<polygon fill="#999999" stroke="#666666" points="236.5,-239 123.5,-239 123.5,-220 236.5,-220 236.5,-239"/>
<text text-anchor="middle" x="180" y="-227" font-family="Helvetica,sans-Serif" font-size="10.00">src/conversions.cpp</text>
</a>
</g>
</g>
<!-- Node2 -->
<g id="node2" class="node">
<title>Node2</title>
<g id="a_node2"><a xlink:href="conversions_8h.html" target="_top" xlink:title="Header file for conversions.">
<polygon fill="white" stroke="#666666" points="245.5,-184 114.5,-184 114.5,-165 245.5,-165 245.5,-184"/>
<text text-anchor="middle" x="180" y="-172" font-family="Helvetica,sans-Serif" font-size="10.00">../include/conversions.h</text>
</a>
</g>
</g>
<!-- Node1&#45;&gt;Node2 -->
<g id="edge1" class="edge">
<title>Node1&#45;&gt;Node2</title>
<path fill="none" stroke="#63b8ff" d="M180,-219.75C180,-213.27 180,-204.16 180,-195.9"/>
<polygon fill="#63b8ff" stroke="#63b8ff" points="183.5,-195.96 180,-185.96 176.5,-195.96 183.5,-195.96"/>
</g>
<!-- Node2&#45;&gt;Node2 -->
<g id="edge4" class="edge">
<title>Node2&#45;&gt;Node2</title>
<path fill="none" stroke="#63b8ff" d="M222.53,-184.48C244.13,-185.94 263.5,-182.61 263.5,-174.5 263.5,-167.85 250.47,-164.41 233.86,-164.2"/>
<polygon fill="#63b8ff" stroke="#63b8ff" points="233.94,-160.69 224.05,-164.48 234.14,-167.69 233.94,-160.69"/>
</g>
<!-- Node3 -->
<g id="node3" class="node">
<title>Node3</title>
<g id="a_node3"><a xlink:title=" ">
<polygon fill="#e0e0e0" stroke="#999999" points="64,-19 0,-19 0,0 64,0 64,-19"/>
<text text-anchor="middle" x="32" y="-7" font-family="Helvetica,sans-Serif" font-size="10.00">algorithm</text>
</a>
</g>
</g>
<!-- Node2&#45;&gt;Node3 -->
<g id="edge2" class="edge">
<title>Node2&#45;&gt;Node3</title>
<path fill="none" stroke="#63b8ff" d="M169.74,-164.74C150.49,-148.08 108.1,-110.21 77,-74 64.5,-59.44 52.02,-41.49 43.38,-28.39"/>
<polygon fill="#63b8ff" stroke="#63b8ff" points="46.55,-26.85 38.18,-20.36 40.68,-30.65 46.55,-26.85"/>
</g>
<!-- Node4 -->
<g id="node4" class="node">
<title>Node4</title>
<g id="a_node4"><a xlink:title=" ">
<polygon fill="#e0e0e0" stroke="#999999" points="316,-19 272,-19 272,0 316,0 316,-19"/>
<text text-anchor="middle" x="294" y="-7" font-family="Helvetica,sans-Serif" font-size="10.00">string</text>
</a>
</g>
</g>
<!-- Node2&#45;&gt;Node4 -->
<g id="edge3" class="edge">
<title>Node2&#45;&gt;Node4</title>
<path fill="none" stroke="#63b8ff" d="M210.55,-164.63C228.93,-157.77 251.34,-146.44 265,-129 287.57,-100.17 292.88,-56.24 293.95,-30.75"/>
<polygon fill="#63b8ff" stroke="#63b8ff" points="297.45,-30.87 294.16,-20.79 290.45,-30.72 297.45,-30.87"/>
</g>
<!-- Node5 -->
<g id="node5" class="node">
<title>Node5</title>
<g id="a_node5"><a xlink:href="parsetree_8h.html" target="_top" xlink:title="Header file for parse tree.">
<polygon fill="white" stroke="#666666" points="228,-74 156,-74 156,-55 228,-55 228,-74"/>
<text text-anchor="middle" x="192" y="-62" font-family="Helvetica,sans-Serif" font-size="10.00">parsetree.h</text>
</a>
</g>
</g>
<!-- Node2&#45;&gt;Node5 -->
<g id="edge5" class="edge">
<title>Node2&#45;&gt;Node5</title>
<path fill="none" stroke="#63b8ff" d="M180.98,-164.66C182.89,-147.5 187.14,-109.26 189.77,-85.6"/>
<polygon fill="#63b8ff" stroke="#63b8ff" points="193.21,-86.29 190.84,-75.96 186.25,-85.52 193.21,-86.29"/>
</g>
<!-- Node8 -->
<g id="node8" class="node">
<title>Node8</title>
<g id="a_node8"><a xlink:href="stack_8h.html" target="_top" xlink:title="Header file for stack.">
<polygon fill="white" stroke="#666666" points="138,-74 86,-74 86,-55 138,-55 138,-74"/>
<text text-anchor="middle" x="112" y="-62" font-family="Helvetica,sans-Serif" font-size="10.00">stack.h</text>
</a>
</g>
</g>
<!-- Node2&#45;&gt;Node8 -->
<g id="edge10" class="edge">
<title>Node2&#45;&gt;Node8</title>
<path fill="none" stroke="#63b8ff" d="M174.44,-164.66C163.38,-147.1 138.43,-107.48 123.64,-83.98"/>
<polygon fill="#63b8ff" stroke="#63b8ff" points="126.74,-82.34 118.45,-75.74 120.81,-86.07 126.74,-82.34"/>
</g>
<!-- Node9 -->
<g id="node9" class="node">
<title>Node9</title>
<g id="a_node9"><a xlink:href="utils_8h.html" target="_top" xlink:title="Utility functions for tasks.">
<polygon fill="white" stroke="#666666" points="255.5,-129 208.5,-129 208.5,-110 255.5,-110 255.5,-129"/>
<text text-anchor="middle" x="232" y="-117" font-family="Helvetica,sans-Serif" font-size="10.00">utils.h</text>
</a>
</g>
</g>
<!-- Node2&#45;&gt;Node9 -->
<g id="edge12" class="edge">
<title>Node2&#45;&gt;Node9</title>
<path fill="none" stroke="#63b8ff" d="M188.59,-164.75C195.84,-157.35 206.45,-146.54 215.37,-137.45"/>
<polygon fill="#63b8ff" stroke="#63b8ff" points="217.66,-140.11 222.17,-130.52 212.66,-135.21 217.66,-140.11"/>
</g>
<!-- Node5&#45;&gt;Node3 -->
<g id="edge6" class="edge">
<title>Node5&#45;&gt;Node3</title>
<path fill="none" stroke="#63b8ff" d="M164.86,-54.51C138.69,-45.84 98.86,-32.65 69.64,-22.97"/>
<polygon fill="#63b8ff" stroke="#63b8ff" points="71.04,-19.74 60.44,-19.92 68.84,-26.39 71.04,-19.74"/>
</g>
<!-- Node5&#45;&gt;Node4 -->
<g id="edge8" class="edge">
<title>Node5&#45;&gt;Node4</title>
<path fill="none" stroke="#63b8ff" d="M209.3,-54.51C225.08,-46.31 248.64,-34.07 266.91,-24.58"/>
<polygon fill="#63b8ff" stroke="#63b8ff" points="268.35,-27.77 275.61,-20.06 265.12,-21.56 268.35,-27.77"/>
</g>
<!-- Node6 -->
<g id="node6" class="node">
<title>Node6</title>
<g id="a_node6"><a xlink:title=" ">
<polygon fill="#e0e0e0" stroke="#999999" points="142,-19 82,-19 82,0 142,0 142,-19"/>
<text text-anchor="middle" x="112" y="-7" font-family="Helvetica,sans-Serif" font-size="10.00">iostream</text>
</a>
</g>
</g>
<!-- Node5&#45;&gt;Node6 -->
<g id="edge7" class="edge">
<title>Node5&#45;&gt;Node6</title>
<path fill="none" stroke="#63b8ff" d="M178.43,-54.51C166.52,-46.62 148.95,-34.98 134.87,-25.65"/>
<polygon fill="#63b8ff" stroke="#63b8ff" points="136.9,-22.8 126.63,-20.19 133.04,-28.63 136.9,-22.8"/>
</g>
<!-- Node7 -->
<g id="node7" class="node">
<title>Node7</title>
<g id="a_node7"><a xlink:title=" ">
<polygon fill="#e0e0e0" stroke="#999999" points="253.5,-19 160.5,-19 160.5,0 253.5,0 253.5,-19"/>
<text text-anchor="middle" x="207" y="-7" font-family="Helvetica,sans-Serif" font-size="10.00">unordered_map</text>
</a>
</g>
</g>
<!-- Node5&#45;&gt;Node7 -->
<g id="edge9" class="edge">
<title>Node5&#45;&gt;Node7</title>
<path fill="none" stroke="#63b8ff" d="M194.48,-54.75C196.35,-48.11 199.01,-38.73 201.39,-30.31"/>
<polygon fill="#63b8ff" stroke="#63b8ff" points="204.7,-31.47 204.06,-20.9 197.97,-29.57 204.7,-31.47"/>
</g>
<!-- Node8&#45;&gt;Node6 -->
<g id="edge11" class="edge">
<title>Node8&#45;&gt;Node6</title>
<path fill="none" stroke="#63b8ff" d="M112,-54.75C112,-48.27 112,-39.16 112,-30.9"/>
<polygon fill="#63b8ff" stroke="#63b8ff" points="115.5,-30.96 112,-20.96 108.5,-30.96 115.5,-30.96"/>
</g>
<!-- Node9&#45;&gt;Node4 -->
<g id="edge13" class="edge">
<title>Node9&#45;&gt;Node4</title>
<path fill="none" stroke="#63b8ff" d="M237.07,-109.66C247.11,-92.18 269.69,-52.84 283.21,-29.3"/>
<polygon fill="#63b8ff" stroke="#63b8ff" points="286.16,-31.19 288.1,-20.77 280.09,-27.7 286.16,-31.19"/>
</g>
<!-- Node9&#45;&gt;Node5 -->
<g id="edge14" class="edge">
<title>Node9&#45;&gt;Node5</title>
<path fill="none" stroke="#63b8ff" d="M225.39,-109.75C220.04,-102.66 212.32,-92.42 205.65,-83.59"/>
<polygon fill="#63b8ff" stroke="#63b8ff" points="208.48,-81.52 199.66,-75.65 202.89,-85.74 208.48,-81.52"/>
</g>
</g>
</svg>
