<?xml version="1.0" encoding="UTF-8" standalone="no"?>
<!DOCTYPE svg PUBLIC "-//W3C//DTD SVG 1.1//EN"
 "http://www.w3.org/Graphics/SVG/1.1/DTD/svg11.dtd">
<!-- Generated by graphviz version 7.0.0 (0)
 -->
<!-- Title: prefixToParseTree Pages: 1 -->
<svg width="414pt" height="64pt"
 viewBox="0.00 0.00 414.00 64.00" xmlns="http://www.w3.org/2000/svg" xmlns:xlink="http://www.w3.org/1999/xlink">
<g id="graph0" class="graph" transform="scale(1 1) rotate(0) translate(4 60)">
<title>prefixToParseTree</title>
<!-- Node1 -->
<g id="node1" class="node">
<title>Node1</title>
<g id="a_node1"><a xlink:title="Takes in a prefix formula and converts it into a rooted binary parse tree.">
<polygon fill="#999999" stroke="#666666" points="103,-37 0,-37 0,-18 103,-18 103,-37"/>
<text text-anchor="middle" x="51.5" y="-25" font-family="Helvetica,sans-Serif" font-size="10.00">prefixToParseTree</text>
</a>
</g>
</g>
<!-- Node2 -->
<g id="node2" class="node">
<title>Node2</title>
<g id="a_node2"><a xlink:href="utils_8cpp.html#ac3a144eab5f857eeb3aabaf201b57796" target="_top" xlink:title="Takes in start and end pointers and generates a binary tree recursively.">
<polygon fill="white" stroke="#666666" points="234,-37 139,-37 139,-18 234,-18 234,-37"/>
<text text-anchor="middle" x="186.5" y="-25" font-family="Helvetica,sans-Serif" font-size="10.00">createParseTree</text>
</a>
</g>
</g>
<!-- Node1&#45;&gt;Node2 -->
<g id="edge1" class="edge">
<title>Node1&#45;&gt;Node2</title>
<path fill="none" stroke="#63b8ff" d="M103.16,-27.5C111.14,-27.5 119.45,-27.5 127.58,-27.5"/>
<polygon fill="#63b8ff" stroke="#63b8ff" points="127.4,-31 137.4,-27.5 127.4,-24 127.4,-31"/>
</g>
<!-- Node2&#45;&gt;Node2 -->
<g id="edge2" class="edge">
<title>Node2&#45;&gt;Node2</title>
<path fill="none" stroke="#63b8ff" d="M165.37,-37.37C155.72,-45.94 162.77,-55 186.5,-55 199.48,-55 207.47,-52.29 210.46,-48.43"/>
<polygon fill="#63b8ff" stroke="#63b8ff" points="213.88,-47.66 208.01,-38.83 207.09,-49.39 213.88,-47.66"/>
</g>
<!-- Node3 -->
<g id="node3" class="node">
<title>Node3</title>
<g id="a_node3"><a xlink:href="classParseTree.html#adf597d2ebd88e8275d7ac78b09d68ce4" target="_top" xlink:title="Set the left node of a given node.">
<polygon fill="white" stroke="#666666" points="402.5,-56 273.5,-56 273.5,-37 402.5,-37 402.5,-56"/>
<text text-anchor="middle" x="338" y="-44" font-family="Helvetica,sans-Serif" font-size="10.00">ParseTree::setLeftNode</text>
</a>
</g>
</g>
<!-- Node2&#45;&gt;Node3 -->
<g id="edge3" class="edge">
<title>Node2&#45;&gt;Node3</title>
<path fill="none" stroke="#63b8ff" d="M234.39,-33.46C243.1,-34.57 252.39,-35.75 261.7,-36.93"/>
<polygon fill="#63b8ff" stroke="#63b8ff" points="261.15,-40.39 271.51,-38.18 262.03,-33.44 261.15,-40.39"/>
</g>
<!-- Node4 -->
<g id="node4" class="node">
<title>Node4</title>
<g id="a_node4"><a xlink:href="classParseTree.html#a0effbd955454ab1beec9940cd6631dba" target="_top" xlink:title="Set the right node of a given node.">
<polygon fill="white" stroke="#666666" points="406,-19 270,-19 270,0 406,0 406,-19"/>
<text text-anchor="middle" x="338" y="-7" font-family="Helvetica,sans-Serif" font-size="10.00">ParseTree::setRightNode</text>
</a>
</g>
</g>
<!-- Node2&#45;&gt;Node4 -->
<g id="edge4" class="edge">
<title>Node2&#45;&gt;Node4</title>
<path fill="none" stroke="#63b8ff" d="M234.39,-21.85C242.1,-20.93 250.28,-19.94 258.51,-18.95"/>
<polygon fill="#63b8ff" stroke="#63b8ff" points="258.73,-22.45 268.24,-17.78 257.89,-15.5 258.73,-22.45"/>
</g>
</g>
</svg>
