<?xml version="1.0" encoding="UTF-8" standalone="no"?>
<!DOCTYPE svg PUBLIC "-//W3C//DTD SVG 1.1//EN"
 "http://www.w3.org/Graphics/SVG/1.1/DTD/svg11.dtd">
<!-- Generated by graphviz version 6.0.2 (0)
 -->
<!-- Title: include/conversions.h Pages: 1 -->
<svg width="218pt" height="85pt"
 viewBox="0.00 0.00 218.00 84.80" xmlns="http://www.w3.org/2000/svg" xmlns:xlink="http://www.w3.org/1999/xlink">
<g id="graph0" class="graph" transform="scale(1 1) rotate(0) translate(4 80.8)">
<title>include/conversions.h</title>
<polygon fill="white" stroke="none" points="-4,4 -4,-80.8 214,-80.8 214,4 -4,4"/>
<!-- Node1 -->
<g id="node1" class="node">
<title>Node1</title>
<g id="a_node1"><a xlink:title="Header file for conversions.">
<polygon fill="#bfbfbf" stroke="black" points="52.5,-56.5 52.5,-75.5 174.5,-75.5 174.5,-56.5 52.5,-56.5"/>
<text text-anchor="middle" x="113.5" y="-63.5" font-family="Helvetica,sans-Serif" font-size="10.00">include/conversions.h</text>
</a>
</g>
</g>
<!-- Node1&#45;&gt;Node1 -->
<g id="edge1" class="edge">
<title>Node1&#45;&gt;Node1</title>
<path fill="none" stroke="midnightblue" d="M157.29,-76.37C176.25,-77.23 192.5,-73.78 192.5,-66 192.5,-56.87 170.09,-53.69 147.19,-56.47"/>
<polygon fill="midnightblue" stroke="midnightblue" points="157.45,-72.87 147.19,-75.53 156.87,-79.85 157.45,-72.87"/>
</g>
<!-- Node2 -->
<g id="node2" class="node">
<title>Node2</title>
<g id="a_node2"><a xlink:href="conversions_8cpp.html" target="_top" xlink:title="Source file for conversions.">
<polygon fill="white" stroke="black" points="0,-0.5 0,-19.5 113,-19.5 113,-0.5 0,-0.5"/>
<text text-anchor="middle" x="56.5" y="-7.5" font-family="Helvetica,sans-Serif" font-size="10.00">src/conversions.cpp</text>
</a>
</g>
</g>
<!-- Node1&#45;&gt;Node2 -->
<g id="edge2" class="edge">
<title>Node1&#45;&gt;Node2</title>
<path fill="none" stroke="midnightblue" d="M96.88,-49.25C86.77,-39.67 74.22,-27.79 65.82,-19.83"/>
<polygon fill="midnightblue" stroke="midnightblue" points="94.68,-51.99 104.34,-56.32 99.49,-46.91 94.68,-51.99"/>
</g>
<!-- Node3 -->
<g id="node3" class="node">
<title>Node3</title>
<g id="a_node3"><a xlink:href="main_8cpp.html" target="_top" xlink:title="Source file for main.">
<polygon fill="white" stroke="black" points="131,-0.5 131,-19.5 210,-19.5 210,-0.5 131,-0.5"/>
<text text-anchor="middle" x="170.5" y="-7.5" font-family="Helvetica,sans-Serif" font-size="10.00">src/main.cpp</text>
</a>
</g>
</g>
<!-- Node1&#45;&gt;Node3 -->
<g id="edge3" class="edge">
<title>Node1&#45;&gt;Node3</title>
<path fill="none" stroke="midnightblue" d="M130.12,-49.25C140.23,-39.67 152.78,-27.79 161.18,-19.83"/>
<polygon fill="midnightblue" stroke="midnightblue" points="127.51,-46.91 122.66,-56.32 132.32,-51.99 127.51,-46.91"/>
</g>
</g>
</svg>
