<?xml version="1.0" encoding="UTF-8" standalone="no"?>
<!DOCTYPE svg PUBLIC "-//W3C//DTD SVG 1.1//EN"
 "http://www.w3.org/Graphics/SVG/1.1/DTD/svg11.dtd">
<!-- Generated by graphviz version 6.0.2 (0)
 -->
<!-- Title: include/main.h Pages: 1 -->
<svg width="326pt" height="252pt"
 viewBox="0.00 0.00 325.50 252.00" xmlns="http://www.w3.org/2000/svg" xmlns:xlink="http://www.w3.org/1999/xlink">
<g id="graph0" class="graph" transform="scale(1 1) rotate(0) translate(4 248)">
<title>include/main.h</title>
<polygon fill="white" stroke="none" points="-4,4 -4,-248 321.5,-248 321.5,4 -4,4"/>
<!-- Node1 -->
<g id="node1" class="node">
<title>Node1</title>
<g id="a_node1"><a xlink:title="Header file for main.">
<polygon fill="#bfbfbf" stroke="black" points="95.5,-224.5 95.5,-243.5 184.5,-243.5 184.5,-224.5 95.5,-224.5"/>
<text text-anchor="middle" x="140" y="-231.5" font-family="Helvetica,sans-Serif" font-size="10.00">include/main.h</text>
</a>
</g>
</g>
<!-- Node2 -->
<g id="node2" class="node">
<title>Node2</title>
<g id="a_node2"><a xlink:title=" ">
<polygon fill="white" stroke="#bfbfbf" points="0,-0.5 0,-19.5 60,-19.5 60,-0.5 0,-0.5"/>
<text text-anchor="middle" x="30" y="-7.5" font-family="Helvetica,sans-Serif" font-size="10.00">iostream</text>
</a>
</g>
</g>
<!-- Node1&#45;&gt;Node2 -->
<g id="edge1" class="edge">
<title>Node1&#45;&gt;Node2</title>
<path fill="none" stroke="midnightblue" d="M131.36,-224.46C109.67,-202.36 53.12,-140.45 32,-76 27.11,-61.06 26.94,-43.15 27.81,-29.91"/>
<polygon fill="midnightblue" stroke="midnightblue" points="31.32,-29.96 28.75,-19.68 24.35,-29.32 31.32,-29.96"/>
</g>
<!-- Node3 -->
<g id="node3" class="node">
<title>Node3</title>
<g id="a_node3"><a xlink:href="conversions_8h.html" target="_top" xlink:title="Header file for conversions.">
<polygon fill="white" stroke="black" points="138,-168.5 138,-187.5 222,-187.5 222,-168.5 138,-168.5"/>
<text text-anchor="middle" x="180" y="-175.5" font-family="Helvetica,sans-Serif" font-size="10.00">conversions.h</text>
</a>
</g>
</g>
<!-- Node1&#45;&gt;Node3 -->
<g id="edge2" class="edge">
<title>Node1&#45;&gt;Node3</title>
<path fill="none" stroke="midnightblue" d="M146.61,-224.08C152.26,-216.46 160.54,-205.26 167.45,-195.94"/>
<polygon fill="midnightblue" stroke="midnightblue" points="170.38,-197.87 173.52,-187.75 164.75,-193.7 170.38,-197.87"/>
</g>
<!-- Node6 -->
<g id="node6" class="node">
<title>Node6</title>
<g id="a_node6"><a xlink:href="parsetree_8h.html" target="_top" xlink:title="Header file for parse tree.">
<polygon fill="white" stroke="black" points="149,-56.5 149,-75.5 221,-75.5 221,-56.5 149,-56.5"/>
<text text-anchor="middle" x="185" y="-63.5" font-family="Helvetica,sans-Serif" font-size="10.00">parsetree.h</text>
</a>
</g>
</g>
<!-- Node1&#45;&gt;Node6 -->
<g id="edge16" class="edge">
<title>Node1&#45;&gt;Node6</title>
<path fill="none" stroke="midnightblue" d="M136.3,-224.49C131.37,-211.98 123.84,-187.94 129,-168 137.33,-135.81 158.37,-102.93 172.16,-83.77"/>
<polygon fill="midnightblue" stroke="midnightblue" points="175.12,-85.65 178.26,-75.53 169.49,-81.49 175.12,-85.65"/>
</g>
<!-- Node9 -->
<g id="node9" class="node">
<title>Node9</title>
<g id="a_node9"><a xlink:href="utils_8h.html" target="_top" xlink:title="Utility functions for tasks.">
<polygon fill="white" stroke="black" points="270.5,-112.5 270.5,-131.5 317.5,-131.5 317.5,-112.5 270.5,-112.5"/>
<text text-anchor="middle" x="294" y="-119.5" font-family="Helvetica,sans-Serif" font-size="10.00">utils.h</text>
</a>
</g>
</g>
<!-- Node1&#45;&gt;Node9 -->
<g id="edge17" class="edge">
<title>Node1&#45;&gt;Node9</title>
<path fill="none" stroke="midnightblue" d="M174.11,-224.43C197.05,-217.42 227,-205.73 249,-188 264.98,-175.12 277.64,-155.12 285.41,-140.7"/>
<polygon fill="midnightblue" stroke="midnightblue" points="288.54,-142.27 289.99,-131.77 282.31,-139.07 288.54,-142.27"/>
</g>
<!-- Node3&#45;&gt;Node3 -->
<g id="edge5" class="edge">
<title>Node3&#45;&gt;Node3</title>
<path fill="none" stroke="midnightblue" d="M205.59,-187.53C222.98,-190.31 240,-187.13 240,-178 240,-170.65 228.98,-167.16 215.61,-167.53"/>
<polygon fill="midnightblue" stroke="midnightblue" points="215.22,-164.05 205.59,-168.47 215.88,-171.02 215.22,-164.05"/>
</g>
<!-- Node4 -->
<g id="node4" class="node">
<title>Node4</title>
<g id="a_node4"><a xlink:title=" ">
<polygon fill="white" stroke="#bfbfbf" points="78,-0.5 78,-19.5 142,-19.5 142,-0.5 78,-0.5"/>
<text text-anchor="middle" x="110" y="-7.5" font-family="Helvetica,sans-Serif" font-size="10.00">algorithm</text>
</a>
</g>
</g>
<!-- Node3&#45;&gt;Node4 -->
<g id="edge3" class="edge">
<title>Node3&#45;&gt;Node4</title>
<path fill="none" stroke="midnightblue" d="M176.24,-168.08C165.17,-141.83 132.58,-64.55 117.64,-29.12"/>
<polygon fill="midnightblue" stroke="midnightblue" points="120.72,-27.42 113.61,-19.57 114.27,-30.14 120.72,-27.42"/>
</g>
<!-- Node5 -->
<g id="node5" class="node">
<title>Node5</title>
<g id="a_node5"><a xlink:title=" ">
<polygon fill="white" stroke="#bfbfbf" points="272,-0.5 272,-19.5 316,-19.5 316,-0.5 272,-0.5"/>
<text text-anchor="middle" x="294" y="-7.5" font-family="Helvetica,sans-Serif" font-size="10.00">string</text>
</a>
</g>
</g>
<!-- Node3&#45;&gt;Node5 -->
<g id="edge4" class="edge">
<title>Node3&#45;&gt;Node5</title>
<path fill="none" stroke="midnightblue" d="M186.13,-168.08C204.31,-141.61 258.15,-63.21 282.18,-28.21"/>
<polygon fill="midnightblue" stroke="midnightblue" points="285.34,-29.79 288.12,-19.57 279.57,-25.83 285.34,-29.79"/>
</g>
<!-- Node3&#45;&gt;Node6 -->
<g id="edge6" class="edge">
<title>Node3&#45;&gt;Node6</title>
<path fill="none" stroke="midnightblue" d="M180.39,-168.37C181.2,-150.62 183.06,-109.67 184.15,-85.6"/>
<polygon fill="midnightblue" stroke="midnightblue" points="187.65,-85.74 184.61,-75.59 180.66,-85.42 187.65,-85.74"/>
</g>
<!-- Node8 -->
<g id="node8" class="node">
<title>Node8</title>
<g id="a_node8"><a xlink:href="stack_8h.html" target="_top" xlink:title="Header file for stack.">
<polygon fill="white" stroke="black" points="41,-56.5 41,-75.5 93,-75.5 93,-56.5 41,-56.5"/>
<text text-anchor="middle" x="67" y="-63.5" font-family="Helvetica,sans-Serif" font-size="10.00">stack.h</text>
</a>
</g>
</g>
<!-- Node3&#45;&gt;Node8 -->
<g id="edge11" class="edge">
<title>Node3&#45;&gt;Node8</title>
<path fill="none" stroke="midnightblue" d="M169.61,-168.29C159.13,-159.4 142.62,-145.1 129,-132 112.25,-115.88 93.98,-96.5 81.65,-83.11"/>
<polygon fill="midnightblue" stroke="midnightblue" points="84.14,-80.65 74.8,-75.64 78.97,-85.38 84.14,-80.65"/>
</g>
<!-- Node3&#45;&gt;Node9 -->
<g id="edge13" class="edge">
<title>Node3&#45;&gt;Node9</title>
<path fill="none" stroke="midnightblue" d="M198.06,-168.44C216.57,-159.68 245.58,-145.94 266.86,-135.86"/>
<polygon fill="midnightblue" stroke="midnightblue" points="268.48,-138.96 276.02,-131.52 265.49,-132.63 268.48,-138.96"/>
</g>
<!-- Node6&#45;&gt;Node2 -->
<g id="edge8" class="edge">
<title>Node6&#45;&gt;Node2</title>
<path fill="none" stroke="midnightblue" d="M160.44,-56.44C134.48,-47.4 93.33,-33.06 64.2,-22.92"/>
<polygon fill="midnightblue" stroke="midnightblue" points="65.04,-19.5 54.45,-19.52 62.74,-26.11 65.04,-19.5"/>
</g>
<!-- Node6&#45;&gt;Node4 -->
<g id="edge7" class="edge">
<title>Node6&#45;&gt;Node4</title>
<path fill="none" stroke="midnightblue" d="M172.95,-56.32C161.54,-48.11 144.17,-35.6 130.57,-25.81"/>
<polygon fill="midnightblue" stroke="midnightblue" points="132.43,-22.84 122.27,-19.83 128.34,-28.52 132.43,-22.84"/>
</g>
<!-- Node6&#45;&gt;Node5 -->
<g id="edge9" class="edge">
<title>Node6&#45;&gt;Node5</title>
<path fill="none" stroke="midnightblue" d="M202.51,-56.32C220.07,-47.62 247.33,-34.12 267.53,-24.11"/>
<polygon fill="midnightblue" stroke="midnightblue" points="269.12,-27.23 276.53,-19.65 266.02,-20.96 269.12,-27.23"/>
</g>
<!-- Node7 -->
<g id="node7" class="node">
<title>Node7</title>
<g id="a_node7"><a xlink:title=" ">
<polygon fill="white" stroke="#bfbfbf" points="160.5,-0.5 160.5,-19.5 253.5,-19.5 253.5,-0.5 160.5,-0.5"/>
<text text-anchor="middle" x="207" y="-7.5" font-family="Helvetica,sans-Serif" font-size="10.00">unordered_map</text>
</a>
</g>
</g>
<!-- Node6&#45;&gt;Node7 -->
<g id="edge10" class="edge">
<title>Node6&#45;&gt;Node7</title>
<path fill="none" stroke="midnightblue" d="M188.63,-56.08C191.61,-48.77 195.93,-38.18 199.62,-29.1"/>
<polygon fill="midnightblue" stroke="midnightblue" points="202.9,-30.33 203.43,-19.75 196.42,-27.69 202.9,-30.33"/>
</g>
<!-- Node8&#45;&gt;Node2 -->
<g id="edge12" class="edge">
<title>Node8&#45;&gt;Node2</title>
<path fill="none" stroke="midnightblue" d="M60.89,-56.08C55.72,-48.53 48.15,-37.49 41.81,-28.23"/>
<polygon fill="midnightblue" stroke="midnightblue" points="44.54,-26.02 36,-19.75 38.76,-29.98 44.54,-26.02"/>
</g>
<!-- Node9&#45;&gt;Node5 -->
<g id="edge14" class="edge">
<title>Node9&#45;&gt;Node5</title>
<path fill="none" stroke="midnightblue" d="M294,-112.37C294,-94.62 294,-53.67 294,-29.6"/>
<polygon fill="midnightblue" stroke="midnightblue" points="297.5,-29.59 294,-19.59 290.5,-29.59 297.5,-29.59"/>
</g>
<!-- Node9&#45;&gt;Node6 -->
<g id="edge15" class="edge">
<title>Node9&#45;&gt;Node6</title>
<path fill="none" stroke="midnightblue" d="M276.49,-112.32C258.93,-103.62 231.67,-90.12 211.47,-80.11"/>
<polygon fill="midnightblue" stroke="midnightblue" points="212.98,-76.96 202.47,-75.65 209.88,-83.23 212.98,-76.96"/>
</g>
</g>
</svg>
