<?xml version="1.0" encoding="UTF-8" standalone="no"?>
<!DOCTYPE svg PUBLIC "-//W3C//DTD SVG 1.1//EN"
 "http://www.w3.org/Graphics/SVG/1.1/DTD/svg11.dtd">
<!-- Generated by graphviz version 7.0.0 (0)
 -->
<!-- Title: include/main.h Pages: 1 -->
<svg width="326pt" height="247pt"
 viewBox="0.00 0.00 325.50 247.00" xmlns="http://www.w3.org/2000/svg" xmlns:xlink="http://www.w3.org/1999/xlink">
<g id="graph0" class="graph" transform="scale(1 1) rotate(0) translate(4 243)">
<title>include/main.h</title>
<!-- Node1 -->
<g id="node1" class="node">
<title>Node1</title>
<g id="a_node1"><a xlink:title="Header file for main.">
<polygon fill="#999999" stroke="#666666" points="184.5,-239 95.5,-239 95.5,-220 184.5,-220 184.5,-239"/>
<text text-anchor="middle" x="140" y="-227" font-family="Helvetica,sans-Serif" font-size="10.00">include/main.h</text>
</a>
</g>
</g>
<!-- Node2 -->
<g id="node2" class="node">
<title>Node2</title>
<g id="a_node2"><a xlink:title=" ">
<polygon fill="#e0e0e0" stroke="#999999" points="60,-19 0,-19 0,0 60,0 60,-19"/>
<text text-anchor="middle" x="30" y="-7" font-family="Helvetica,sans-Serif" font-size="10.00">iostream</text>
</a>
</g>
</g>
<!-- Node1&#45;&gt;Node2 -->
<g id="edge1" class="edge">
<title>Node1&#45;&gt;Node2</title>
<path fill="none" stroke="#63b8ff" d="M131.05,-219.81C109.13,-197.85 53.05,-137.36 32,-74 27.36,-60.03 27.01,-43.36 27.75,-30.61"/>
<polygon fill="#63b8ff" stroke="#63b8ff" points="31.21,-31.18 28.59,-20.91 24.24,-30.57 31.21,-31.18"/>
</g>
<!-- Node3 -->
<g id="node3" class="node">
<title>Node3</title>
<g id="a_node3"><a xlink:href="conversions_8h.html" target="_top" xlink:title="Header file for conversions.">
<polygon fill="white" stroke="#666666" points="222,-184 138,-184 138,-165 222,-165 222,-184"/>
<text text-anchor="middle" x="180" y="-172" font-family="Helvetica,sans-Serif" font-size="10.00">conversions.h</text>
</a>
</g>
</g>
<!-- Node1&#45;&gt;Node3 -->
<g id="edge2" class="edge">
<title>Node1&#45;&gt;Node3</title>
<path fill="none" stroke="#63b8ff" d="M146.61,-219.75C151.96,-212.66 159.68,-202.42 166.35,-193.59"/>
<polygon fill="#63b8ff" stroke="#63b8ff" points="169.11,-195.74 172.34,-185.65 163.52,-191.52 169.11,-195.74"/>
</g>
<!-- Node6 -->
<g id="node6" class="node">
<title>Node6</title>
<g id="a_node6"><a xlink:href="parsetree_8h.html" target="_top" xlink:title="Header file for parse tree.">
<polygon fill="white" stroke="#666666" points="221,-74 149,-74 149,-55 221,-55 221,-74"/>
<text text-anchor="middle" x="185" y="-62" font-family="Helvetica,sans-Serif" font-size="10.00">parsetree.h</text>
</a>
</g>
</g>
<!-- Node1&#45;&gt;Node6 -->
<g id="edge16" class="edge">
<title>Node1&#45;&gt;Node6</title>
<path fill="none" stroke="#63b8ff" d="M136.15,-219.77C131.24,-207.44 123.95,-184.26 129,-165 137.1,-134.1 157.19,-102.67 170.97,-83.63"/>
<polygon fill="#63b8ff" stroke="#63b8ff" points="173.77,-85.72 176.95,-75.62 168.17,-81.53 173.77,-85.72"/>
</g>
<!-- Node9 -->
<g id="node9" class="node">
<title>Node9</title>
<g id="a_node9"><a xlink:href="utils_8h.html" target="_top" xlink:title="Utility functions for tasks.">
<polygon fill="white" stroke="#666666" points="317.5,-129 270.5,-129 270.5,-110 317.5,-110 317.5,-129"/>
<text text-anchor="middle" x="294" y="-117" font-family="Helvetica,sans-Serif" font-size="10.00">utils.h</text>
</a>
</g>
</g>
<!-- Node1&#45;&gt;Node9 -->
<g id="edge17" class="edge">
<title>Node1&#45;&gt;Node9</title>
<path fill="none" stroke="#63b8ff" d="M175.55,-219.57C198.26,-212.59 227.39,-201.16 249,-184 264.37,-171.8 276.78,-153.02 284.64,-139.04"/>
<polygon fill="#63b8ff" stroke="#63b8ff" points="287.62,-140.88 289.23,-130.41 281.44,-137.59 287.62,-140.88"/>
</g>
<!-- Node3&#45;&gt;Node3 -->
<g id="edge5" class="edge">
<title>Node3&#45;&gt;Node3</title>
<path fill="none" stroke="#63b8ff" d="M210.56,-184.48C226.08,-185.94 240,-182.61 240,-174.5 240,-168.48 232.33,-165.1 222.04,-164.35"/>
<polygon fill="#63b8ff" stroke="#63b8ff" points="222.02,-160.85 212.08,-164.5 222.13,-167.85 222.02,-160.85"/>
</g>
<!-- Node4 -->
<g id="node4" class="node">
<title>Node4</title>
<g id="a_node4"><a xlink:title=" ">
<polygon fill="#e0e0e0" stroke="#999999" points="142,-19 78,-19 78,0 142,0 142,-19"/>
<text text-anchor="middle" x="110" y="-7" font-family="Helvetica,sans-Serif" font-size="10.00">algorithm</text>
</a>
</g>
</g>
<!-- Node3&#45;&gt;Node4 -->
<g id="edge3" class="edge">
<title>Node3&#45;&gt;Node4</title>
<path fill="none" stroke="#63b8ff" d="M176.24,-164.74C165.32,-139.31 133.44,-65.08 118.24,-29.69"/>
<polygon fill="#63b8ff" stroke="#63b8ff" points="121.54,-28.51 114.38,-20.7 115.11,-31.27 121.54,-28.51"/>
</g>
<!-- Node5 -->
<g id="node5" class="node">
<title>Node5</title>
<g id="a_node5"><a xlink:title=" ">
<polygon fill="#e0e0e0" stroke="#999999" points="316,-19 272,-19 272,0 316,0 316,-19"/>
<text text-anchor="middle" x="294" y="-7" font-family="Helvetica,sans-Serif" font-size="10.00">string</text>
</a>
</g>
</g>
<!-- Node3&#45;&gt;Node5 -->
<g id="edge4" class="edge">
<title>Node3&#45;&gt;Node5</title>
<path fill="none" stroke="#63b8ff" d="M186.13,-164.74C204.14,-138.98 257.19,-63.13 281.53,-28.33"/>
<polygon fill="#63b8ff" stroke="#63b8ff" points="284.11,-30.75 286.97,-20.55 278.37,-26.74 284.11,-30.75"/>
</g>
<!-- Node3&#45;&gt;Node6 -->
<g id="edge6" class="edge">
<title>Node3&#45;&gt;Node6</title>
<path fill="none" stroke="#63b8ff" d="M180.41,-164.66C181.2,-147.57 182.96,-109.61 184.05,-85.92"/>
<polygon fill="#63b8ff" stroke="#63b8ff" points="187.55,-86.12 184.52,-75.97 180.56,-85.8 187.55,-86.12"/>
</g>
<!-- Node8 -->
<g id="node8" class="node">
<title>Node8</title>
<g id="a_node8"><a xlink:href="stack_8h.html" target="_top" xlink:title="Header file for stack.">
<polygon fill="white" stroke="#666666" points="93,-74 41,-74 41,-55 93,-55 93,-74"/>
<text text-anchor="middle" x="67" y="-62" font-family="Helvetica,sans-Serif" font-size="10.00">stack.h</text>
</a>
</g>
</g>
<!-- Node3&#45;&gt;Node8 -->
<g id="edge11" class="edge">
<title>Node3&#45;&gt;Node8</title>
<path fill="none" stroke="#63b8ff" d="M169.23,-164.54C158.76,-155.72 142.49,-141.76 129,-129 112.81,-113.69 95.12,-95.41 82.8,-82.41"/>
<polygon fill="#63b8ff" stroke="#63b8ff" points="85.65,-80.33 76.25,-75.45 80.55,-85.13 85.65,-80.33"/>
</g>
<!-- Node3&#45;&gt;Node9 -->
<g id="edge13" class="edge">
<title>Node3&#45;&gt;Node9</title>
<path fill="none" stroke="#63b8ff" d="M199.34,-164.51C217.22,-156.2 244.04,-143.73 264.57,-134.18"/>
<polygon fill="#63b8ff" stroke="#63b8ff" points="265.98,-137.39 273.57,-130 263.03,-131.04 265.98,-137.39"/>
</g>
<!-- Node6&#45;&gt;Node2 -->
<g id="edge8" class="edge">
<title>Node6&#45;&gt;Node2</title>
<path fill="none" stroke="#63b8ff" d="M158.71,-54.51C133.47,-45.88 95.11,-32.76 66.84,-23.1"/>
<polygon fill="#63b8ff" stroke="#63b8ff" points="68.19,-19.86 57.6,-19.94 65.93,-26.48 68.19,-19.86"/>
</g>
<!-- Node6&#45;&gt;Node4 -->
<g id="edge7" class="edge">
<title>Node6&#45;&gt;Node4</title>
<path fill="none" stroke="#63b8ff" d="M172.28,-54.51C161.22,-46.7 144.96,-35.21 131.83,-25.93"/>
<polygon fill="#63b8ff" stroke="#63b8ff" points="133.96,-23.14 123.77,-20.23 129.92,-28.86 133.96,-23.14"/>
</g>
<!-- Node6&#45;&gt;Node5 -->
<g id="edge9" class="edge">
<title>Node6&#45;&gt;Node5</title>
<path fill="none" stroke="#63b8ff" d="M203.49,-54.51C220.5,-46.24 245.99,-33.84 265.59,-24.31"/>
<polygon fill="#63b8ff" stroke="#63b8ff" points="266.96,-27.54 274.42,-20.02 263.9,-21.25 266.96,-27.54"/>
</g>
<!-- Node7 -->
<g id="node7" class="node">
<title>Node7</title>
<g id="a_node7"><a xlink:title=" ">
<polygon fill="#e0e0e0" stroke="#999999" points="253.5,-19 160.5,-19 160.5,0 253.5,0 253.5,-19"/>
<text text-anchor="middle" x="207" y="-7" font-family="Helvetica,sans-Serif" font-size="10.00">unordered_map</text>
</a>
</g>
</g>
<!-- Node6&#45;&gt;Node7 -->
<g id="edge10" class="edge">
<title>Node6&#45;&gt;Node7</title>
<path fill="none" stroke="#63b8ff" d="M188.63,-54.75C191.42,-48.04 195.37,-38.52 198.9,-30.02"/>
<polygon fill="#63b8ff" stroke="#63b8ff" points="202.11,-31.42 202.71,-20.84 195.64,-28.73 202.11,-31.42"/>
</g>
<!-- Node8&#45;&gt;Node2 -->
<g id="edge12" class="edge">
<title>Node8&#45;&gt;Node2</title>
<path fill="none" stroke="#63b8ff" d="M60.89,-54.75C55.99,-47.73 48.95,-37.64 42.83,-28.87"/>
<polygon fill="#63b8ff" stroke="#63b8ff" points="45.7,-26.88 37.11,-20.68 39.96,-30.89 45.7,-26.88"/>
</g>
<!-- Node9&#45;&gt;Node5 -->
<g id="edge14" class="edge">
<title>Node9&#45;&gt;Node5</title>
<path fill="none" stroke="#63b8ff" d="M294,-109.66C294,-92.57 294,-54.61 294,-30.92"/>
<polygon fill="#63b8ff" stroke="#63b8ff" points="297.5,-30.97 294,-20.97 290.5,-30.97 297.5,-30.97"/>
</g>
<!-- Node9&#45;&gt;Node6 -->
<g id="edge15" class="edge">
<title>Node9&#45;&gt;Node6</title>
<path fill="none" stroke="#63b8ff" d="M275.51,-109.51C258.5,-101.24 233.01,-88.84 213.41,-79.31"/>
<polygon fill="#63b8ff" stroke="#63b8ff" points="215.1,-76.25 204.58,-75.02 212.04,-82.54 215.1,-76.25"/>
</g>
</g>
</svg>
