<?xml version="1.0" encoding="UTF-8" standalone="no"?>
<!DOCTYPE svg PUBLIC "-//W3C//DTD SVG 1.1//EN"
 "http://www.w3.org/Graphics/SVG/1.1/DTD/svg11.dtd">
<!-- Generated by graphviz version 6.0.2 (0)
 -->
<!-- Title: main Pages: 1 -->
<!--zoomable 290 -->
<svg id="main" version="1.1" xmlns="http://www.w3.org/2000/svg" xmlns:xlink="http://www.w3.org/1999/xlink" xml:space="preserve" onload="init(evt)">
<style type="text/css"><![CDATA[
.edge:hover path { stroke: red; }
.edge:hover polygon { stroke: red; fill: red; }
]]></style>
<script type="text/javascript"><![CDATA[
var edges = document.getElementsByTagName('g');
if (edges && edges.length) {
  for (var i=0;i<edges.length;i++) {
    if (edges[i].id.substr(0,4)=='edge') {
      edges[i].setAttribute('class','edge');
    }
  }
}
]]></script>
        <defs>
                <circle id="rim" cx="0" cy="0" r="7"/>
                <circle id="rim2" cx="0" cy="0" r="3.5"/>
                <g id="zoomPlus">
                        <use xlink:href="#rim" fill="#404040">
                                <set attributeName="fill" to="#808080" begin="zoomplus.mouseover" end="zoomplus.mouseout"/>
                        </use>
                        <path d="M-4,0h8M0,-4v8" fill="none" stroke="white" stroke-width="1.5" pointer-events="none"/>
                </g>
                <g id="zoomMin">
                        <use xlink:href="#rim" fill="#404040">
                                <set attributeName="fill" to="#808080" begin="zoomminus.mouseover" end="zoomminus.mouseout"/>
                        </use>
                        <path d="M-4,0h8" fill="none" stroke="white" stroke-width="1.5" pointer-events="none"/>
                </g>
                <g id="dirArrow">
                        <path fill="none" stroke="white" stroke-width="1.5" d="M0,-3.0v7 M-2.5,-0.5L0,-3.0L2.5,-0.5"/>
                </g>
               <g id="resetDef">
                       <use xlink:href="#rim2" fill="#404040">
                               <set attributeName="fill" to="#808080" begin="reset.mouseover" end="reset.mouseout"/>
                       </use>
               </g>
        </defs>

<script type="text/javascript">
var viewWidth = 544;
var viewHeight = 290;
var sectionId = 'dynsection-1';
</script>
<script xlink:href="svgpan.js"/>
<svg id="graph" class="graph">
<g id="viewport">
<title>main</title>
<polygon fill="white" stroke="none" points="-4,4 -4,-286 540,-286 540,4 -4,4"/>
<!-- Node1 -->
<g id="node1" class="node">
<title>Node1</title>
<g id="a_node1"><a xlink:title="Where the tasks are run.">
<polygon fill="#bfbfbf" stroke="black" points="0,-114.5 0,-133.5 41,-133.5 41,-114.5 0,-114.5"/>
<text text-anchor="middle" x="20.5" y="-121.5" font-family="Helvetica,sans-Serif" font-size="10.00">main</text>
</a>
</g>
</g>
<!-- Node2 -->
<g id="node2" class="node">
<title>Node2</title>
<g id="a_node2"><a xlink:href="tree_8cpp.html#a25643aa8241f085240d87644329f4656" target="_top" xlink:title="Evaluates the truth value of a given parse tree.">
<polygon fill="white" stroke="black" points="77,-179.5 77,-198.5 209,-198.5 209,-179.5 77,-179.5"/>
<text text-anchor="middle" x="143" y="-186.5" font-family="Helvetica,sans-Serif" font-size="10.00">evaluateTreeTruthValue</text>
</a>
</g>
</g>
<!-- Node1&#45;&gt;Node2 -->
<g id="edge1" class="edge">
<title>Node1&#45;&gt;Node2</title>
<path fill="none" stroke="midnightblue" d="M33.81,-133.53C44.76,-141.73 61.4,-153.54 77,-162 86.18,-166.98 96.48,-171.65 106.13,-175.65"/>
<polygon fill="midnightblue" stroke="midnightblue" points="104.91,-178.93 115.49,-179.43 107.52,-172.44 104.91,-178.93"/>
</g>
<!-- Node7 -->
<g id="node7" class="node">
<title>Node7</title>
<g id="a_node7"><a xlink:href="tree_8cpp.html#ad2f6a97c53f57d91543d4af711c0cfd0" target="_top" xlink:title="Calculate the height of the binary tree recursively.">
<polygon fill="white" stroke="black" points="85,-230.5 85,-249.5 201,-249.5 201,-230.5 85,-230.5"/>
<text text-anchor="middle" x="143" y="-237.5" font-family="Helvetica,sans-Serif" font-size="10.00">getBinaryTreeHeight</text>
</a>
</g>
</g>
<!-- Node1&#45;&gt;Node7 -->
<g id="edge7" class="edge">
<title>Node1&#45;&gt;Node7</title>
<path fill="none" stroke="midnightblue" d="M25.82,-133.76C33.77,-150.78 52.21,-186.16 77,-208 85.3,-215.31 95.56,-221.37 105.46,-226.18"/>
<polygon fill="midnightblue" stroke="midnightblue" points="104.21,-229.46 114.77,-230.41 107.11,-223.09 104.21,-229.46"/>
</g>
<!-- Node9 -->
<g id="node9" class="node">
<title>Node9</title>
<g id="a_node9"><a xlink:href="conversions_8cpp.html#a32422df5e46274fb24a354222b40cea1" target="_top" xlink:title="Takes the infix formula given and converts into prefix formula.">
<polygon fill="white" stroke="black" points="104.5,-57.5 104.5,-76.5 181.5,-76.5 181.5,-57.5 104.5,-57.5"/>
<text text-anchor="middle" x="143" y="-64.5" font-family="Helvetica,sans-Serif" font-size="10.00">infixToPrefix</text>
</a>
</g>
</g>
<!-- Node1&#45;&gt;Node9 -->
<g id="edge12" class="edge">
<title>Node1&#45;&gt;Node9</title>
<path fill="none" stroke="midnightblue" d="M36.17,-114.27C47.13,-107.26 62.63,-97.85 77,-91 85.28,-87.05 94.4,-83.32 103.12,-80.04"/>
<polygon fill="midnightblue" stroke="midnightblue" points="104.54,-83.24 112.73,-76.52 102.14,-76.67 104.54,-83.24"/>
</g>
<!-- Node10 -->
<g id="node10" class="node">
<title>Node10</title>
<g id="a_node10"><a xlink:href="tree_8cpp.html#abbc27d85ce3224d78c8b59f4744f76f5" target="_top" xlink:title="Traverses the parse tree and return the infix formula.">
<polygon fill="white" stroke="black" points="95,-133.5 95,-152.5 191,-152.5 191,-133.5 95,-133.5"/>
<text text-anchor="middle" x="143" y="-140.5" font-family="Helvetica,sans-Serif" font-size="10.00">parseTreeToInfix</text>
</a>
</g>
</g>
<!-- Node1&#45;&gt;Node10 -->
<g id="edge13" class="edge">
<title>Node1&#45;&gt;Node10</title>
<path fill="none" stroke="midnightblue" d="M41.13,-127.09C53.05,-128.98 68.96,-131.48 84.6,-133.95"/>
<polygon fill="midnightblue" stroke="midnightblue" points="84.37,-137.46 94.8,-135.56 85.47,-130.54 84.37,-137.46"/>
</g>
<!-- Node12 -->
<g id="node12" class="node">
<title>Node12</title>
<g id="a_node12"><a xlink:href="tree_8cpp.html#a9f774923275158a677269871dc4dda65" target="_top" xlink:title="Takes in a prefix formula and converts it into a rooted binary parse tree.">
<polygon fill="white" stroke="black" points="91.5,-19.5 91.5,-38.5 194.5,-38.5 194.5,-19.5 91.5,-19.5"/>
<text text-anchor="middle" x="143" y="-26.5" font-family="Helvetica,sans-Serif" font-size="10.00">prefixToParseTree</text>
</a>
</g>
</g>
<!-- Node1&#45;&gt;Node12 -->
<g id="edge19" class="edge">
<title>Node1&#45;&gt;Node12</title>
<path fill="none" stroke="midnightblue" d="M25.85,-114.5C33.71,-98.36 51.86,-65.65 77,-48 79.74,-46.07 82.68,-44.34 85.73,-42.78"/>
<polygon fill="midnightblue" stroke="midnightblue" points="87.44,-45.86 95.17,-38.61 84.61,-39.45 87.44,-45.86"/>
</g>
<!-- Node16 -->
<g id="node16" class="node">
<title>Node16</title>
<g id="a_node16"><a xlink:href="tree_8cpp.html#a705609245a7281d7c1186f2097e53427" target="_top" xlink:title="Prints the binary tree.">
<polygon fill="white" stroke="black" points="245,-76.5 245,-95.5 363,-95.5 363,-76.5 245,-76.5"/>
<text text-anchor="middle" x="304" y="-83.5" font-family="Helvetica,sans-Serif" font-size="10.00">printBinaryParseTree</text>
</a>
</g>
</g>
<!-- Node1&#45;&gt;Node16 -->
<g id="edge24" class="edge">
<title>Node1&#45;&gt;Node16</title>
<path fill="none" stroke="midnightblue" d="M41.29,-121.33C80.91,-115.98 171.58,-103.74 235.03,-95.17"/>
<polygon fill="midnightblue" stroke="midnightblue" points="235.53,-98.64 244.97,-93.83 234.59,-91.7 235.53,-98.64"/>
</g>
<!-- Node3 -->
<g id="node3" class="node">
<title>Node3</title>
<g id="a_node3"><a xlink:href="tree_8cpp.html#aa0c28b938620dfeec544e2f97d6d04ea" target="_top" xlink:title="Gets the truth value of a given node.">
<polygon fill="white" stroke="black" points="249,-188.5 249,-207.5 359,-207.5 359,-188.5 249,-188.5"/>
<text text-anchor="middle" x="304" y="-195.5" font-family="Helvetica,sans-Serif" font-size="10.00">getNodeTruthValue</text>
</a>
</g>
</g>
<!-- Node2&#45;&gt;Node3 -->
<g id="edge2" class="edge">
<title>Node2&#45;&gt;Node3</title>
<path fill="none" stroke="midnightblue" d="M209.13,-192.69C218.93,-193.24 229.04,-193.81 238.82,-194.37"/>
<polygon fill="midnightblue" stroke="midnightblue" points="238.69,-197.87 248.87,-194.94 239.08,-190.88 238.69,-197.87"/>
</g>
<!-- Node3&#45;&gt;Node3 -->
<g id="edge4" class="edge">
<title>Node3&#45;&gt;Node3</title>
<path fill="none" stroke="midnightblue" d="M279.19,-207.76C267.11,-216.57 275.38,-226 304,-226 323.23,-226 333.27,-221.74 334.13,-216.27"/>
<polygon fill="midnightblue" stroke="midnightblue" points="337.08,-214.39 328.81,-207.76 331.14,-218.09 337.08,-214.39"/>
</g>
<!-- Node4 -->
<g id="node4" class="node">
<title>Node4</title>
<g id="a_node4"><a xlink:href="classParseTree.html#ae1cb6829644917b9437f28a08b1e60a1" target="_top" xlink:title="Get the left node when a node is given.">
<polygon fill="white" stroke="black" points="402.5,-150.5 402.5,-169.5 532.5,-169.5 532.5,-150.5 402.5,-150.5"/>
<text text-anchor="middle" x="467.5" y="-157.5" font-family="Helvetica,sans-Serif" font-size="10.00">ParseTree::getLeftNode</text>
</a>
</g>
</g>
<!-- Node3&#45;&gt;Node4 -->
<g id="edge3" class="edge">
<title>Node3&#45;&gt;Node4</title>
<path fill="none" stroke="midnightblue" d="M345.75,-188.41C367.16,-183.37 393.59,-177.16 416.25,-171.82"/>
<polygon fill="midnightblue" stroke="midnightblue" points="417.11,-175.22 426.04,-169.52 415.5,-168.4 417.11,-175.22"/>
</g>
<!-- Node5 -->
<g id="node5" class="node">
<title>Node5</title>
<g id="a_node5"><a xlink:href="classParseTree.html#a101193b71bc7e02d051dd73e6f079aa1" target="_top" xlink:title="Get the right node when a node is given.">
<polygon fill="white" stroke="black" points="399,-188.5 399,-207.5 536,-207.5 536,-188.5 399,-188.5"/>
<text text-anchor="middle" x="467.5" y="-195.5" font-family="Helvetica,sans-Serif" font-size="10.00">ParseTree::getRightNode</text>
</a>
</g>
</g>
<!-- Node3&#45;&gt;Node5 -->
<g id="edge5" class="edge">
<title>Node3&#45;&gt;Node5</title>
<path fill="none" stroke="midnightblue" d="M359.23,-198C368.68,-198 378.68,-198 388.62,-198"/>
<polygon fill="midnightblue" stroke="midnightblue" points="388.93,-201.5 398.93,-198 388.93,-194.5 388.93,-201.5"/>
</g>
<!-- Node6 -->
<g id="node6" class="node">
<title>Node6</title>
<g id="a_node6"><a xlink:href="classParseTree.html#a816af779bb7d32b6ab6e513cf69648a4" target="_top" xlink:title="Get the value of the node.">
<polygon fill="white" stroke="black" points="411,-112.5 411,-131.5 524,-131.5 524,-112.5 411,-112.5"/>
<text text-anchor="middle" x="467.5" y="-119.5" font-family="Helvetica,sans-Serif" font-size="10.00">ParseTree::getValue</text>
</a>
</g>
</g>
<!-- Node3&#45;&gt;Node6 -->
<g id="edge6" class="edge">
<title>Node3&#45;&gt;Node6</title>
<path fill="none" stroke="midnightblue" d="M343.35,-188.43C350.17,-185.91 357,-182.8 363,-179 382.66,-166.55 379.09,-153.03 399,-141 402.58,-138.84 406.41,-136.92 410.36,-135.21"/>
<polygon fill="midnightblue" stroke="midnightblue" points="411.66,-138.46 419.74,-131.59 409.15,-131.92 411.66,-138.46"/>
</g>
<!-- Node8 -->
<g id="node8" class="node">
<title>Node8</title>
<g id="a_node8"><a xlink:href="tree_8cpp.html#a8ccf3ee7a8689bad9852e920cba297af" target="_top" xlink:title="Get the max height of the node.">
<polygon fill="white" stroke="black" points="259,-244.5 259,-263.5 349,-263.5 349,-244.5 259,-244.5"/>
<text text-anchor="middle" x="304" y="-251.5" font-family="Helvetica,sans-Serif" font-size="10.00">getNodeHeight</text>
</a>
</g>
</g>
<!-- Node7&#45;&gt;Node8 -->
<g id="edge8" class="edge">
<title>Node7&#45;&gt;Node8</title>
<path fill="none" stroke="midnightblue" d="M201.4,-245.05C216.8,-246.41 233.39,-247.87 248.62,-249.21"/>
<polygon fill="midnightblue" stroke="midnightblue" points="248.64,-252.73 258.91,-250.12 249.25,-245.75 248.64,-252.73"/>
</g>
<!-- Node8&#45;&gt;Node4 -->
<g id="edge9" class="edge">
<title>Node8&#45;&gt;Node4</title>
<path fill="none" stroke="midnightblue" d="M346.09,-244.48C352.11,-242 357.97,-238.89 363,-235 386.41,-216.91 375.21,-196.6 399,-179 401.64,-177.05 404.48,-175.29 407.44,-173.72"/>
<polygon fill="midnightblue" stroke="midnightblue" points="408.98,-176.86 416.61,-169.52 406.07,-170.5 408.98,-176.86"/>
</g>
<!-- Node8&#45;&gt;Node5 -->
<g id="edge11" class="edge">
<title>Node8&#45;&gt;Node5</title>
<path fill="none" stroke="midnightblue" d="M334.56,-244.49C343.69,-241.5 353.78,-238.16 363,-235 385.55,-227.28 410.73,-218.28 430.61,-211.1"/>
<polygon fill="midnightblue" stroke="midnightblue" points="431.98,-214.32 440.19,-207.62 429.6,-207.74 431.98,-214.32"/>
</g>
<!-- Node8&#45;&gt;Node8 -->
<g id="edge10" class="edge">
<title>Node8&#45;&gt;Node8</title>
<path fill="none" stroke="midnightblue" d="M279.19,-263.76C267.11,-272.57 275.38,-282 304,-282 323.23,-282 333.27,-277.74 334.13,-272.27"/>
<polygon fill="midnightblue" stroke="midnightblue" points="337.08,-270.39 328.81,-263.76 331.14,-274.09 337.08,-270.39"/>
</g>
<!-- Node11 -->
<g id="node11" class="node">
<title>Node11</title>
<g id="a_node11"><a xlink:href="tree_8cpp.html#aa2112d5255c2ad249f275f84a5c02181" target="_top" xlink:title="Utility method which traverses the tree in in&#45;order manner.">
<polygon fill="white" stroke="black" points="255,-132.5 255,-151.5 353,-151.5 353,-132.5 255,-132.5"/>
<text text-anchor="middle" x="304" y="-139.5" font-family="Helvetica,sans-Serif" font-size="10.00">inOrderTraversal</text>
</a>
</g>
</g>
<!-- Node10&#45;&gt;Node11 -->
<g id="edge14" class="edge">
<title>Node10&#45;&gt;Node11</title>
<path fill="none" stroke="midnightblue" d="M191.27,-142.7C208.03,-142.6 227.09,-142.48 244.66,-142.37"/>
<polygon fill="midnightblue" stroke="midnightblue" points="244.83,-145.87 254.81,-142.3 244.78,-138.87 244.83,-145.87"/>
</g>
<!-- Node11&#45;&gt;Node4 -->
<g id="edge15" class="edge">
<title>Node11&#45;&gt;Node4</title>
<path fill="none" stroke="midnightblue" d="M353.02,-147.35C365.32,-148.72 378.84,-150.23 392.12,-151.71"/>
<polygon fill="midnightblue" stroke="midnightblue" points="391.89,-155.21 402.22,-152.84 392.67,-148.25 391.89,-155.21"/>
</g>
<!-- Node11&#45;&gt;Node5 -->
<g id="edge16" class="edge">
<title>Node11&#45;&gt;Node5</title>
<path fill="none" stroke="midnightblue" d="M327.56,-151.62C346.45,-159.5 374.23,-170.66 399,-179 405.82,-181.3 413.09,-183.55 420.24,-185.65"/>
<polygon fill="midnightblue" stroke="midnightblue" points="419.28,-189.01 429.86,-188.41 421.22,-182.28 419.28,-189.01"/>
</g>
<!-- Node11&#45;&gt;Node6 -->
<g id="edge17" class="edge">
<title>Node11&#45;&gt;Node6</title>
<path fill="none" stroke="midnightblue" d="M353.02,-136.05C367.89,-134.21 384.55,-132.15 400.42,-130.18"/>
<polygon fill="midnightblue" stroke="midnightblue" points="401.22,-133.61 410.71,-128.91 400.36,-126.66 401.22,-133.61"/>
</g>
<!-- Node11&#45;&gt;Node11 -->
<g id="edge18" class="edge">
<title>Node11&#45;&gt;Node11</title>
<path fill="none" stroke="midnightblue" d="M279.19,-151.76C267.11,-160.57 275.38,-170 304,-170 323.23,-170 333.27,-165.74 334.13,-160.27"/>
<polygon fill="midnightblue" stroke="midnightblue" points="337.08,-158.39 328.81,-151.76 331.14,-162.09 337.08,-158.39"/>
</g>
<!-- Node13 -->
<g id="node13" class="node">
<title>Node13</title>
<g id="a_node13"><a xlink:href="tree_8cpp.html#ac3a144eab5f857eeb3aabaf201b57796" target="_top" xlink:title="Takes in start and end pointers and generates a binary tree recursively.">
<polygon fill="white" stroke="black" points="256.5,-19.5 256.5,-38.5 351.5,-38.5 351.5,-19.5 256.5,-19.5"/>
<text text-anchor="middle" x="304" y="-26.5" font-family="Helvetica,sans-Serif" font-size="10.00">createParseTree</text>
</a>
</g>
</g>
<!-- Node12&#45;&gt;Node13 -->
<g id="edge20" class="edge">
<title>Node12&#45;&gt;Node13</title>
<path fill="none" stroke="midnightblue" d="M194.75,-29C211.08,-29 229.28,-29 246.03,-29"/>
<polygon fill="midnightblue" stroke="midnightblue" points="246.24,-32.5 256.24,-29 246.24,-25.5 246.24,-32.5"/>
</g>
<!-- Node13&#45;&gt;Node13 -->
<g id="edge21" class="edge">
<title>Node13&#45;&gt;Node13</title>
<path fill="none" stroke="midnightblue" d="M279.19,-38.76C267.11,-47.57 275.38,-57 304,-57 323.23,-57 333.27,-52.74 334.13,-47.27"/>
<polygon fill="midnightblue" stroke="midnightblue" points="337.08,-45.39 328.81,-38.76 331.14,-49.09 337.08,-45.39"/>
</g>
<!-- Node14 -->
<g id="node14" class="node">
<title>Node14</title>
<g id="a_node14"><a xlink:href="classParseTree.html#adf597d2ebd88e8275d7ac78b09d68ce4" target="_top" xlink:title="Set the left node of a given node.">
<polygon fill="white" stroke="black" points="403,-0.5 403,-19.5 532,-19.5 532,-0.5 403,-0.5"/>
<text text-anchor="middle" x="467.5" y="-7.5" font-family="Helvetica,sans-Serif" font-size="10.00">ParseTree::setLeftNode</text>
</a>
</g>
</g>
<!-- Node13&#45;&gt;Node14 -->
<g id="edge22" class="edge">
<title>Node13&#45;&gt;Node14</title>
<path fill="none" stroke="midnightblue" d="M351.71,-23.5C364.53,-22 378.75,-20.32 392.69,-18.68"/>
<polygon fill="midnightblue" stroke="midnightblue" points="393.25,-22.14 402.77,-17.5 392.43,-15.19 393.25,-22.14"/>
</g>
<!-- Node15 -->
<g id="node15" class="node">
<title>Node15</title>
<g id="a_node15"><a xlink:href="classParseTree.html#a0effbd955454ab1beec9940cd6631dba" target="_top" xlink:title="Set the right node of a given node.">
<polygon fill="white" stroke="black" points="399.5,-38.5 399.5,-57.5 535.5,-57.5 535.5,-38.5 399.5,-38.5"/>
<text text-anchor="middle" x="467.5" y="-45.5" font-family="Helvetica,sans-Serif" font-size="10.00">ParseTree::setRightNode</text>
</a>
</g>
</g>
<!-- Node13&#45;&gt;Node15 -->
<g id="edge23" class="edge">
<title>Node13&#45;&gt;Node15</title>
<path fill="none" stroke="midnightblue" d="M351.71,-34.5C363.47,-35.88 376.41,-37.4 389.24,-38.91"/>
<polygon fill="midnightblue" stroke="midnightblue" points="389.13,-42.42 399.47,-40.11 389.95,-35.47 389.13,-42.42"/>
</g>
<!-- Node16&#45;&gt;Node4 -->
<g id="edge25" class="edge">
<title>Node16&#45;&gt;Node4</title>
<path fill="none" stroke="midnightblue" d="M318.74,-95.56C336.55,-107.59 368.9,-128.21 399,-141 404.46,-143.32 410.28,-145.44 416.13,-147.36"/>
<polygon fill="midnightblue" stroke="midnightblue" points="415.36,-150.79 425.94,-150.4 417.42,-144.1 415.36,-150.79"/>
</g>
<!-- Node16&#45;&gt;Node5 -->
<g id="edge26" class="edge">
<title>Node16&#45;&gt;Node5</title>
<path fill="none" stroke="midnightblue" d="M324.24,-95.5C336.3,-102.09 351.66,-111.7 363,-123 383.96,-143.89 375.21,-161.4 399,-179 401.64,-180.95 404.48,-182.71 407.44,-184.28"/>
<polygon fill="midnightblue" stroke="midnightblue" points="406.07,-187.5 416.61,-188.48 408.98,-181.14 406.07,-187.5"/>
</g>
<!-- Node16&#45;&gt;Node6 -->
<g id="edge27" class="edge">
<title>Node16&#45;&gt;Node6</title>
<path fill="none" stroke="midnightblue" d="M347.86,-95.55C368.1,-100.07 392.46,-105.5 413.83,-110.26"/>
<polygon fill="midnightblue" stroke="midnightblue" points="413.2,-113.71 423.73,-112.47 414.73,-106.87 413.2,-113.71"/>
</g>
<!-- Node16&#45;&gt;Node16 -->
<g id="edge28" class="edge">
<title>Node16&#45;&gt;Node16</title>
<path fill="none" stroke="midnightblue" d="M279.19,-95.76C267.11,-104.57 275.38,-114 304,-114 323.23,-114 333.27,-109.74 334.13,-104.27"/>
<polygon fill="midnightblue" stroke="midnightblue" points="337.08,-102.39 328.81,-95.76 331.14,-106.09 337.08,-102.39"/>
</g>
</g>
</svg>
        <g id="navigator" transform="translate(0 0)" fill="#404254">
                <rect fill="#f2f5e9" fill-opacity="0.5" stroke="#606060" stroke-width=".5" x="0" y="0" width="60" height="60"/>
                <use id="zoomplus" xlink:href="#zoomPlus" x="17" y="9" onmousedown="handleZoom(evt,'in')"/>
                <use id="zoomminus" xlink:href="#zoomMin" x="42" y="9" onmousedown="handleZoom(evt,'out')"/>
                <use id="reset" xlink:href="#resetDef" x="30" y="36" onmousedown="handleReset()"/>
                <g id="arrowUp" xlink:href="#dirArrow" transform="translate(30 24)" onmousedown="handlePan(0,-1)">
                  <use xlink:href="#rim" fill="#404040">
                        <set attributeName="fill" to="#808080" begin="arrowUp.mouseover" end="arrowUp.mouseout"/>
                  </use>
                  <path fill="none" stroke="white" stroke-width="1.5" d="M0,-3.0v7 M-2.5,-0.5L0,-3.0L2.5,-0.5"/>
                </g>
                <g id="arrowRight" xlink:href="#dirArrow" transform="rotate(90) translate(36 -43)" onmousedown="handlePan(1,0)">
                  <use xlink:href="#rim" fill="#404040">
                        <set attributeName="fill" to="#808080" begin="arrowRight.mouseover" end="arrowRight.mouseout"/>
                  </use>
                  <path fill="none" stroke="white" stroke-width="1.5" d="M0,-3.0v7 M-2.5,-0.5L0,-3.0L2.5,-0.5"/>
                </g>
                <g id="arrowDown" xlink:href="#dirArrow" transform="rotate(180) translate(-30 -48)" onmousedown="handlePan(0,1)">
                  <use xlink:href="#rim" fill="#404040">
                        <set attributeName="fill" to="#808080" begin="arrowDown.mouseover" end="arrowDown.mouseout"/>
                  </use>
                  <path fill="none" stroke="white" stroke-width="1.5" d="M0,-3.0v7 M-2.5,-0.5L0,-3.0L2.5,-0.5"/>
                </g>
                <g id="arrowLeft" xlink:href="#dirArrow" transform="rotate(270) translate(-36 17)" onmousedown="handlePan(-1,0)">
                  <use xlink:href="#rim" fill="#404040">
                        <set attributeName="fill" to="#808080" begin="arrowLeft.mouseover" end="arrowLeft.mouseout"/>
                  </use>
                  <path fill="none" stroke="white" stroke-width="1.5" d="M0,-3.0v7 M-2.5,-0.5L0,-3.0L2.5,-0.5"/>
                </g>
        </g>
        <svg viewBox="0 0 15 15" width="100%" height="30px" preserveAspectRatio="xMaxYMin meet">
         <g id="arrow_out" transform="scale(0.3 0.3)">
          <a xlink:href="main_8cpp_ae66f6b31b5ad750f1fe042a706a4e3d4_cgraph_org.svg" target="_base">
           <rect id="button" ry="5" rx="5" y="6" x="6" height="38" width="38"
                fill="#f2f5e9" fill-opacity="0.5" stroke="#606060" stroke-width="1.0"/>
           <path id="arrow"
             d="M 11.500037,31.436501 C 11.940474,20.09759 22.043105,11.32322 32.158766,21.979434 L 37.068811,17.246167 C 37.068811,17.246167 37.088388,32 37.088388,32 L 22.160133,31.978069 C 22.160133,31.978069 26.997745,27.140456 26.997745,27.140456 C 18.528582,18.264221 13.291696,25.230495 11.500037,31.436501 z"
             style="fill:#404040;"/>
          </a>
         </g>
        </svg>
</svg>
