<?xml version="1.0" encoding="UTF-8" standalone="no"?>
<!DOCTYPE svg PUBLIC "-//W3C//DTD SVG 1.1//EN"
 "http://www.w3.org/Graphics/SVG/1.1/DTD/svg11.dtd">
<!-- Generated by graphviz version 7.0.0 (0)
 -->
<!-- Title: main Pages: 1 -->
<!--zoomable 284 -->
<svg id="main" version="1.1" xmlns="http://www.w3.org/2000/svg" xmlns:xlink="http://www.w3.org/1999/xlink" xml:space="preserve" onload="init(evt)">
<style type="text/css"><![CDATA[
.edge:hover path { stroke: red; }
.edge:hover polygon { stroke: red; fill: red; }
]]></style>
<script type="text/javascript"><![CDATA[
var edges = document.getElementsByTagName('g');
if (edges && edges.length) {
  for (var i=0;i<edges.length;i++) {
    if (edges[i].id.substr(0,4)=='edge') {
      edges[i].setAttribute('class','edge');
    }
  }
}
]]></script>
        <defs>
                <circle id="rim" cx="0" cy="0" r="7"/>
                <circle id="rim2" cx="0" cy="0" r="3.5"/>
                <g id="zoomPlus">
                        <use xlink:href="#rim" fill="#404040">
                                <set attributeName="fill" to="#808080" begin="zoomplus.mouseover" end="zoomplus.mouseout"/>
                        </use>
                        <path d="M-4,0h8M0,-4v8" fill="none" stroke="white" stroke-width="1.5" pointer-events="none"/>
                </g>
                <g id="zoomMin">
                        <use xlink:href="#rim" fill="#404040">
                                <set attributeName="fill" to="#808080" begin="zoomminus.mouseover" end="zoomminus.mouseout"/>
                        </use>
                        <path d="M-4,0h8" fill="none" stroke="white" stroke-width="1.5" pointer-events="none"/>
                </g>
                <g id="dirArrow">
                        <path fill="none" stroke="white" stroke-width="1.5" d="M0,-3.0v7 M-2.5,-0.5L0,-3.0L2.5,-0.5"/>
                </g>
               <g id="resetDef">
                       <use xlink:href="#rim2" fill="#404040">
                               <set attributeName="fill" to="#808080" begin="reset.mouseover" end="reset.mouseout"/>
                       </use>
               </g>
        </defs>

<script type="text/javascript">
var viewWidth = 606;
var viewHeight = 284;
var sectionId = 'dynsection-1';
</script>
<script xlink:href="svgpan.js"/>
<svg id="graph" class="graph">
<g id="viewport">
<title>main</title>
<!-- Node1 -->
<g id="node1" class="node">
<title>Node1</title>
<g id="a_node1"><a xlink:title="Where the tasks are run.">
<polygon fill="#999999" stroke="#666666" points="41,-131 0,-131 0,-112 41,-112 41,-131"/>
<text text-anchor="middle" x="20.5" y="-119" font-family="Helvetica,sans-Serif" font-size="10.00">main</text>
</a>
</g>
</g>
<!-- Node2 -->
<g id="node2" class="node">
<title>Node2</title>
<g id="a_node2"><a xlink:href="utils_8cpp.html#a25643aa8241f085240d87644329f4656" target="_top" xlink:title="Evaluates the truth value of a given parse tree.">
<polygon fill="white" stroke="#666666" points="223.5,-194 91.5,-194 91.5,-175 223.5,-175 223.5,-194"/>
<text text-anchor="middle" x="157.5" y="-182" font-family="Helvetica,sans-Serif" font-size="10.00">evaluateTreeTruthValue</text>
</a>
</g>
</g>
<!-- Node1&#45;&gt;Node2 -->
<g id="edge1" class="edge">
<title>Node1&#45;&gt;Node2</title>
<path fill="none" stroke="#63b8ff" d="M34.13,-131.37C45.01,-139.51 61.37,-150.91 77,-158.5 86.89,-163.3 97.88,-167.54 108.46,-171.12"/>
<polygon fill="#63b8ff" stroke="#63b8ff" points="107.24,-174.41 117.83,-174.15 109.39,-167.74 107.24,-174.41"/>
</g>
<!-- Node7 -->
<g id="node7" class="node">
<title>Node7</title>
<g id="a_node7"><a xlink:href="classParseTree.html#aa09112584a4aa46f867f38fe48179954" target="_top" xlink:title="Calculate the height of the binary tree recursively.">
<polygon fill="white" stroke="#666666" points="408.5,-258 290.5,-258 290.5,-239 408.5,-239 408.5,-258"/>
<text text-anchor="middle" x="349.5" y="-246" font-family="Helvetica,sans-Serif" font-size="10.00">ParseTree::getHeight</text>
</a>
</g>
</g>
<!-- Node1&#45;&gt;Node7 -->
<g id="edge7" class="edge">
<title>Node1&#45;&gt;Node7</title>
<path fill="none" stroke="#63b8ff" d="M25.22,-131.4C32.36,-148.88 49.71,-185.05 77,-202.5 137.51,-241.19 220.5,-250.32 278.75,-251.25"/>
<polygon fill="#63b8ff" stroke="#63b8ff" points="278.52,-254.75 288.54,-251.32 278.57,-247.75 278.52,-254.75"/>
</g>
<!-- Node8 -->
<g id="node8" class="node">
<title>Node8</title>
<g id="a_node8"><a xlink:href="classParseTree.html#ad2561b779306154ebc3527b0ee1bb855" target="_top" xlink:title="Traverses the parse tree and return the infix formula.">
<polygon fill="white" stroke="#666666" points="238,-150 77,-150 77,-131 238,-131 238,-150"/>
<text text-anchor="middle" x="157.5" y="-138" font-family="Helvetica,sans-Serif" font-size="10.00">ParseTree::getInfixExpression</text>
</a>
</g>
</g>
<!-- Node1&#45;&gt;Node8 -->
<g id="edge11" class="edge">
<title>Node1&#45;&gt;Node8</title>
<path fill="none" stroke="#63b8ff" d="M41.42,-124.3C50.57,-125.59 62.1,-127.21 74.3,-128.93"/>
<polygon fill="#63b8ff" stroke="#63b8ff" points="73.76,-132.39 84.15,-130.32 74.74,-125.46 73.76,-132.39"/>
</g>
<!-- Node10 -->
<g id="node10" class="node">
<title>Node10</title>
<g id="a_node10"><a xlink:href="conversions_8cpp.html#a32422df5e46274fb24a354222b40cea1" target="_top" xlink:title="Takes the infix formula given and converts into prefix formula.">
<polygon fill="white" stroke="#666666" points="196,-74 119,-74 119,-55 196,-55 196,-74"/>
<text text-anchor="middle" x="157.5" y="-62" font-family="Helvetica,sans-Serif" font-size="10.00">infixToPrefix</text>
</a>
</g>
</g>
<!-- Node1&#45;&gt;Node10 -->
<g id="edge17" class="edge">
<title>Node1&#45;&gt;Node10</title>
<path fill="none" stroke="#63b8ff" d="M36.05,-111.51C46.95,-104.37 62.43,-94.92 77,-88.5 86.69,-84.23 97.36,-80.44 107.66,-77.2"/>
<polygon fill="#63b8ff" stroke="#63b8ff" points="108.6,-80.57 117.16,-74.34 106.58,-73.87 108.6,-80.57"/>
</g>
<!-- Node11 -->
<g id="node11" class="node">
<title>Node11</title>
<g id="a_node11"><a xlink:href="conversions_8cpp.html#a9f774923275158a677269871dc4dda65" target="_top" xlink:title="Takes in a prefix formula and converts it into a rooted binary parse tree.">
<polygon fill="white" stroke="#666666" points="209,-37 106,-37 106,-18 209,-18 209,-37"/>
<text text-anchor="middle" x="157.5" y="-25" font-family="Helvetica,sans-Serif" font-size="10.00">prefixToParseTree</text>
</a>
</g>
</g>
<!-- Node1&#45;&gt;Node11 -->
<g id="edge18" class="edge">
<title>Node1&#45;&gt;Node11</title>
<path fill="none" stroke="#63b8ff" d="M25.86,-111.57C33.62,-95.1 51.47,-62.28 77,-45.5 82.46,-41.92 88.53,-39.04 94.81,-36.73"/>
<polygon fill="#63b8ff" stroke="#63b8ff" points="95.59,-40.15 104.08,-33.81 93.49,-33.48 95.59,-40.15"/>
</g>
<!-- Node15 -->
<g id="node15" class="node">
<title>Node15</title>
<g id="a_node15"><a xlink:href="classParseTree.html#a7c0dd4173a68c9f9f8aa13fae399f4b0" target="_top" xlink:title="Prints the binary tree.">
<polygon fill="white" stroke="#666666" points="419.5,-93 279.5,-93 279.5,-74 419.5,-74 419.5,-93"/>
<text text-anchor="middle" x="349.5" y="-81" font-family="Helvetica,sans-Serif" font-size="10.00">ParseTree::printParseTree</text>
</a>
</g>
</g>
<!-- Node1&#45;&gt;Node15 -->
<g id="edge23" class="edge">
<title>Node1&#45;&gt;Node15</title>
<path fill="none" stroke="#63b8ff" d="M41.46,-119.18C85.38,-114.08 192.47,-101.63 267.76,-92.88"/>
<polygon fill="#63b8ff" stroke="#63b8ff" points="268.06,-96.37 277.58,-91.74 267.25,-89.42 268.06,-96.37"/>
</g>
<!-- Node3 -->
<g id="node3" class="node">
<title>Node3</title>
<g id="a_node3"><a xlink:href="utils_8cpp.html#aa0c28b938620dfeec544e2f97d6d04ea" target="_top" xlink:title="Gets the truth value of a given node.">
<polygon fill="white" stroke="#666666" points="404.5,-203 294.5,-203 294.5,-184 404.5,-184 404.5,-203"/>
<text text-anchor="middle" x="349.5" y="-191" font-family="Helvetica,sans-Serif" font-size="10.00">getNodeTruthValue</text>
</a>
</g>
</g>
<!-- Node2&#45;&gt;Node3 -->
<g id="edge2" class="edge">
<title>Node2&#45;&gt;Node3</title>
<path fill="none" stroke="#63b8ff" d="M223.89,-187.6C242.91,-188.5 263.7,-189.48 282.74,-190.39"/>
<polygon fill="#63b8ff" stroke="#63b8ff" points="282.37,-193.87 292.52,-190.85 282.7,-186.88 282.37,-193.87"/>
</g>
<!-- Node3&#45;&gt;Node3 -->
<g id="edge4" class="edge">
<title>Node3&#45;&gt;Node3</title>
<path fill="none" stroke="#63b8ff" d="M321.32,-203.37C308.47,-211.94 317.86,-221 349.5,-221 367.3,-221 378.06,-218.13 381.78,-214.1"/>
<polygon fill="#63b8ff" stroke="#63b8ff" points="385.06,-212.88 378.22,-204.78 378.52,-215.37 385.06,-212.88"/>
</g>
<!-- Node4 -->
<g id="node4" class="node">
<title>Node4</title>
<g id="a_node4"><a xlink:href="classParseTree.html#ae1cb6829644917b9437f28a08b1e60a1" target="_top" xlink:title="Get the left node when a node is given.">
<polygon fill="white" stroke="#666666" points="594.5,-166 464.5,-166 464.5,-147 594.5,-147 594.5,-166"/>
<text text-anchor="middle" x="529.5" y="-154" font-family="Helvetica,sans-Serif" font-size="10.00">ParseTree::getLeftNode</text>
</a>
</g>
</g>
<!-- Node3&#45;&gt;Node4 -->
<g id="edge3" class="edge">
<title>Node3&#45;&gt;Node4</title>
<path fill="none" stroke="#63b8ff" d="M398.2,-183.58C420.15,-179.02 446.4,-173.57 469.57,-168.75"/>
<polygon fill="#63b8ff" stroke="#63b8ff" points="470.11,-172.21 479.19,-166.75 468.68,-165.36 470.11,-172.21"/>
</g>
<!-- Node5 -->
<g id="node5" class="node">
<title>Node5</title>
<g id="a_node5"><a xlink:href="classParseTree.html#a101193b71bc7e02d051dd73e6f079aa1" target="_top" xlink:title="Get the right node when a node is given.">
<polygon fill="white" stroke="#666666" points="598,-203 461,-203 461,-184 598,-184 598,-203"/>
<text text-anchor="middle" x="529.5" y="-191" font-family="Helvetica,sans-Serif" font-size="10.00">ParseTree::getRightNode</text>
</a>
</g>
</g>
<!-- Node3&#45;&gt;Node5 -->
<g id="edge5" class="edge">
<title>Node3&#45;&gt;Node5</title>
<path fill="none" stroke="#63b8ff" d="M404.87,-193.5C418.89,-193.5 434.26,-193.5 449.25,-193.5"/>
<polygon fill="#63b8ff" stroke="#63b8ff" points="449.11,-197 459.11,-193.5 449.11,-190 449.11,-197"/>
</g>
<!-- Node6 -->
<g id="node6" class="node">
<title>Node6</title>
<g id="a_node6"><a xlink:href="classParseTree.html#a816af779bb7d32b6ab6e513cf69648a4" target="_top" xlink:title="Get the value of the node.">
<polygon fill="white" stroke="#666666" points="586,-129 473,-129 473,-110 586,-110 586,-129"/>
<text text-anchor="middle" x="529.5" y="-117" font-family="Helvetica,sans-Serif" font-size="10.00">ParseTree::getValue</text>
</a>
</g>
</g>
<!-- Node3&#45;&gt;Node6 -->
<g id="edge6" class="edge">
<title>Node3&#45;&gt;Node6</title>
<path fill="none" stroke="#63b8ff" d="M404.41,-183.55C411.58,-181.15 418.65,-178.18 425,-174.5 444.86,-163.01 441.2,-149.1 461,-137.5 463.34,-136.13 465.79,-134.86 468.3,-133.69"/>
<polygon fill="#63b8ff" stroke="#63b8ff" points="469.59,-136.94 477.54,-129.94 466.96,-130.45 469.59,-136.94"/>
</g>
<!-- Node7&#45;&gt;Node4 -->
<g id="edge9" class="edge">
<title>Node7&#45;&gt;Node4</title>
<path fill="none" stroke="#63b8ff" d="M408.96,-239.05C414.65,-236.78 420.12,-233.97 425,-230.5 449.11,-213.35 437.09,-191.93 461,-174.5 462.38,-173.5 463.81,-172.55 465.28,-171.65"/>
<polygon fill="#63b8ff" stroke="#63b8ff" points="466.82,-174.8 474.16,-167.16 463.66,-168.55 466.82,-174.8"/>
</g>
<!-- Node7&#45;&gt;Node5 -->
<g id="edge10" class="edge">
<title>Node7&#45;&gt;Node5</title>
<path fill="none" stroke="#63b8ff" d="M395.22,-238.51C405.08,-236.08 415.44,-233.36 425,-230.5 447.73,-223.71 472.78,-214.79 492.55,-207.41"/>
<polygon fill="#63b8ff" stroke="#63b8ff" points="493.69,-210.72 501.81,-203.92 491.22,-204.17 493.69,-210.72"/>
</g>
<!-- Node7&#45;&gt;Node7 -->
<g id="edge8" class="edge">
<title>Node7&#45;&gt;Node7</title>
<path fill="none" stroke="#63b8ff" d="M321.32,-258.37C308.47,-266.94 317.86,-276 349.5,-276 367.3,-276 378.06,-273.13 381.78,-269.1"/>
<polygon fill="#63b8ff" stroke="#63b8ff" points="385.06,-267.88 378.22,-259.78 378.52,-270.37 385.06,-267.88"/>
</g>
<!-- Node9 -->
<g id="node9" class="node">
<title>Node9</title>
<g id="a_node9"><a xlink:href="classParseTree.html#a434c3422fae323882805bd4109f06ba0" target="_top" xlink:title="Utility method which traverses the tree in in&#45;order manner.">
<polygon fill="white" stroke="#666666" points="425,-148 274,-148 274,-129 425,-129 425,-148"/>
<text text-anchor="middle" x="349.5" y="-136" font-family="Helvetica,sans-Serif" font-size="10.00">ParseTree::inOrderTraversal</text>
</a>
</g>
</g>
<!-- Node8&#45;&gt;Node9 -->
<g id="edge12" class="edge">
<title>Node8&#45;&gt;Node9</title>
<path fill="none" stroke="#63b8ff" d="M238.25,-139.66C246.1,-139.58 254.09,-139.49 262,-139.41"/>
<polygon fill="#63b8ff" stroke="#63b8ff" points="262.03,-142.91 271.99,-139.31 261.95,-135.91 262.03,-142.91"/>
</g>
<!-- Node9&#45;&gt;Node4 -->
<g id="edge13" class="edge">
<title>Node9&#45;&gt;Node4</title>
<path fill="none" stroke="#63b8ff" d="M425.47,-146.08C434.49,-146.99 443.71,-147.93 452.74,-148.84"/>
<polygon fill="#63b8ff" stroke="#63b8ff" points="452.24,-152.31 462.54,-149.83 452.94,-145.34 452.24,-152.31"/>
</g>
<!-- Node9&#45;&gt;Node5 -->
<g id="edge14" class="edge">
<title>Node9&#45;&gt;Node5</title>
<path fill="none" stroke="#63b8ff" d="M379.94,-148.45C402.15,-155.87 433.39,-166.12 461,-174.5 467.57,-176.5 474.53,-178.53 481.38,-180.5"/>
<polygon fill="#63b8ff" stroke="#63b8ff" points="479.96,-183.73 490.53,-183.1 481.87,-177 479.96,-183.73"/>
</g>
<!-- Node9&#45;&gt;Node6 -->
<g id="edge15" class="edge">
<title>Node9&#45;&gt;Node6</title>
<path fill="none" stroke="#63b8ff" d="M425.47,-130.5C437.3,-129.23 449.47,-127.94 461.11,-126.69"/>
<polygon fill="#63b8ff" stroke="#63b8ff" points="461.47,-130.17 471.04,-125.63 460.73,-123.21 461.47,-130.17"/>
</g>
<!-- Node9&#45;&gt;Node9 -->
<g id="edge16" class="edge">
<title>Node9&#45;&gt;Node9</title>
<path fill="none" stroke="#63b8ff" d="M321.32,-148.37C308.47,-156.94 317.86,-166 349.5,-166 367.3,-166 378.06,-163.13 381.78,-159.1"/>
<polygon fill="#63b8ff" stroke="#63b8ff" points="385.06,-157.88 378.22,-149.78 378.52,-160.37 385.06,-157.88"/>
</g>
<!-- Node12 -->
<g id="node12" class="node">
<title>Node12</title>
<g id="a_node12"><a xlink:href="utils_8cpp.html#ac3a144eab5f857eeb3aabaf201b57796" target="_top" xlink:title="Takes in start and end pointers and generates a binary tree recursively.">
<polygon fill="white" stroke="#666666" points="397,-37 302,-37 302,-18 397,-18 397,-37"/>
<text text-anchor="middle" x="349.5" y="-25" font-family="Helvetica,sans-Serif" font-size="10.00">createParseTree</text>
</a>
</g>
</g>
<!-- Node11&#45;&gt;Node12 -->
<g id="edge19" class="edge">
<title>Node11&#45;&gt;Node12</title>
<path fill="none" stroke="#63b8ff" d="M209.42,-27.5C234.41,-27.5 264.63,-27.5 290.51,-27.5"/>
<polygon fill="#63b8ff" stroke="#63b8ff" points="290.17,-31 300.17,-27.5 290.17,-24 290.17,-31"/>
</g>
<!-- Node12&#45;&gt;Node12 -->
<g id="edge20" class="edge">
<title>Node12&#45;&gt;Node12</title>
<path fill="none" stroke="#63b8ff" d="M321.32,-37.37C308.47,-45.94 317.86,-55 349.5,-55 367.3,-55 378.06,-52.13 381.78,-48.1"/>
<polygon fill="#63b8ff" stroke="#63b8ff" points="385.06,-46.88 378.22,-38.78 378.52,-49.37 385.06,-46.88"/>
</g>
<!-- Node13 -->
<g id="node13" class="node">
<title>Node13</title>
<g id="a_node13"><a xlink:href="classParseTree.html#adf597d2ebd88e8275d7ac78b09d68ce4" target="_top" xlink:title="Set the left node of a given node.">
<polygon fill="white" stroke="#666666" points="594,-19 465,-19 465,0 594,0 594,-19"/>
<text text-anchor="middle" x="529.5" y="-7" font-family="Helvetica,sans-Serif" font-size="10.00">ParseTree::setLeftNode</text>
</a>
</g>
</g>
<!-- Node12&#45;&gt;Node13 -->
<g id="edge21" class="edge">
<title>Node12&#45;&gt;Node13</title>
<path fill="none" stroke="#63b8ff" d="M397.27,-22.77C414.41,-21.04 434.27,-19.03 453.27,-17.11"/>
<polygon fill="#63b8ff" stroke="#63b8ff" points="453.54,-20.6 463.14,-16.11 452.84,-13.63 453.54,-20.6"/>
</g>
<!-- Node14 -->
<g id="node14" class="node">
<title>Node14</title>
<g id="a_node14"><a xlink:href="classParseTree.html#a0effbd955454ab1beec9940cd6631dba" target="_top" xlink:title="Set the right node of a given node.">
<polygon fill="white" stroke="#666666" points="597.5,-56 461.5,-56 461.5,-37 597.5,-37 597.5,-56"/>
<text text-anchor="middle" x="529.5" y="-44" font-family="Helvetica,sans-Serif" font-size="10.00">ParseTree::setRightNode</text>
</a>
</g>
</g>
<!-- Node12&#45;&gt;Node14 -->
<g id="edge22" class="edge">
<title>Node12&#45;&gt;Node14</title>
<path fill="none" stroke="#63b8ff" d="M397.27,-32.49C413.4,-34.21 431.94,-36.19 449.9,-38.11"/>
<polygon fill="#63b8ff" stroke="#63b8ff" points="449.47,-41.58 459.79,-39.17 450.22,-34.62 449.47,-41.58"/>
</g>
<!-- Node15&#45;&gt;Node4 -->
<g id="edge24" class="edge">
<title>Node15&#45;&gt;Node4</title>
<path fill="none" stroke="#63b8ff" d="M371.09,-93.36C386.07,-100.55 406.82,-110.56 425,-119.5 441.05,-127.39 444.32,-131.05 461,-137.5 466.33,-139.56 471.97,-141.5 477.63,-143.3"/>
<polygon fill="#63b8ff" stroke="#63b8ff" points="476.44,-146.6 487.02,-146.14 478.46,-139.9 476.44,-146.6"/>
</g>
<!-- Node15&#45;&gt;Node5 -->
<g id="edge25" class="edge">
<title>Node15&#45;&gt;Node5</title>
<path fill="none" stroke="#63b8ff" d="M379.91,-93.41C394.58,-99.36 411.94,-108.03 425,-119.5 446.95,-138.78 437.44,-157.22 461,-174.5 463.03,-175.99 465.18,-177.37 467.41,-178.63"/>
<polygon fill="#63b8ff" stroke="#63b8ff" points="465.71,-181.7 476.24,-182.87 468.74,-175.39 465.71,-181.7"/>
</g>
<!-- Node15&#45;&gt;Node6 -->
<g id="edge26" class="edge">
<title>Node15&#45;&gt;Node6</title>
<path fill="none" stroke="#63b8ff" d="M399.61,-93.43C420.83,-97.72 445.85,-102.79 468.19,-107.3"/>
<polygon fill="#63b8ff" stroke="#63b8ff" points="467.26,-110.69 477.76,-109.24 468.65,-103.82 467.26,-110.69"/>
</g>
<!-- Node15&#45;&gt;Node15 -->
<g id="edge27" class="edge">
<title>Node15&#45;&gt;Node15</title>
<path fill="none" stroke="#63b8ff" d="M321.32,-93.37C308.47,-101.94 317.86,-111 349.5,-111 367.3,-111 378.06,-108.13 381.78,-104.1"/>
<polygon fill="#63b8ff" stroke="#63b8ff" points="385.06,-102.88 378.22,-94.78 378.52,-105.37 385.06,-102.88"/>
</g>
</g>
</svg>
        <g id="navigator" transform="translate(0 0)" fill="#404254">
                <rect fill="#f2f5e9" fill-opacity="0.5" stroke="#606060" stroke-width=".5" x="0" y="0" width="60" height="60"/>
                <use id="zoomplus" xlink:href="#zoomPlus" x="17" y="9" onmousedown="handleZoom(evt,'in')"/>
                <use id="zoomminus" xlink:href="#zoomMin" x="42" y="9" onmousedown="handleZoom(evt,'out')"/>
                <use id="reset" xlink:href="#resetDef" x="30" y="36" onmousedown="handleReset()"/>
                <g id="arrowUp" xlink:href="#dirArrow" transform="translate(30 24)" onmousedown="handlePan(0,-1)">
                  <use xlink:href="#rim" fill="#404040">
                        <set attributeName="fill" to="#808080" begin="arrowUp.mouseover" end="arrowUp.mouseout"/>
                  </use>
                  <path fill="none" stroke="white" stroke-width="1.5" d="M0,-3.0v7 M-2.5,-0.5L0,-3.0L2.5,-0.5"/>
                </g>
                <g id="arrowRight" xlink:href="#dirArrow" transform="rotate(90) translate(36 -43)" onmousedown="handlePan(1,0)">
                  <use xlink:href="#rim" fill="#404040">
                        <set attributeName="fill" to="#808080" begin="arrowRight.mouseover" end="arrowRight.mouseout"/>
                  </use>
                  <path fill="none" stroke="white" stroke-width="1.5" d="M0,-3.0v7 M-2.5,-0.5L0,-3.0L2.5,-0.5"/>
                </g>
                <g id="arrowDown" xlink:href="#dirArrow" transform="rotate(180) translate(-30 -48)" onmousedown="handlePan(0,1)">
                  <use xlink:href="#rim" fill="#404040">
                        <set attributeName="fill" to="#808080" begin="arrowDown.mouseover" end="arrowDown.mouseout"/>
                  </use>
                  <path fill="none" stroke="white" stroke-width="1.5" d="M0,-3.0v7 M-2.5,-0.5L0,-3.0L2.5,-0.5"/>
                </g>
                <g id="arrowLeft" xlink:href="#dirArrow" transform="rotate(270) translate(-36 17)" onmousedown="handlePan(-1,0)">
                  <use xlink:href="#rim" fill="#404040">
                        <set attributeName="fill" to="#808080" begin="arrowLeft.mouseover" end="arrowLeft.mouseout"/>
                  </use>
                  <path fill="none" stroke="white" stroke-width="1.5" d="M0,-3.0v7 M-2.5,-0.5L0,-3.0L2.5,-0.5"/>
                </g>
        </g>
        <svg viewBox="0 0 15 15" width="100%" height="30px" preserveAspectRatio="xMaxYMin meet">
         <g id="arrow_out" transform="scale(0.3 0.3)">
          <a xlink:href="main_8cpp_ae66f6b31b5ad750f1fe042a706a4e3d4_cgraph_org.svg" target="_base">
           <rect id="button" ry="5" rx="5" y="6" x="6" height="38" width="38"
                fill="#f2f5e9" fill-opacity="0.5" stroke="#606060" stroke-width="1.0"/>
           <path id="arrow"
             d="M 11.500037,31.436501 C 11.940474,20.09759 22.043105,11.32322 32.158766,21.979434 L 37.068811,17.246167 C 37.068811,17.246167 37.088388,32 37.088388,32 L 22.160133,31.978069 C 22.160133,31.978069 26.997745,27.140456 26.997745,27.140456 C 18.528582,18.264221 13.291696,25.230495 11.500037,31.436501 z"
             style="fill:#404040;"/>
          </a>
         </g>
        </svg>
</svg>
