<?xml version="1.0" encoding="UTF-8" standalone="no"?>
<!DOCTYPE svg PUBLIC "-//W3C//DTD SVG 1.1//EN"
 "http://www.w3.org/Graphics/SVG/1.1/DTD/svg11.dtd">
<!-- Generated by graphviz version 6.0.2 (0)
 -->
<!-- Title: main Pages: 1 -->
<!--zoomable 290 -->
<svg id="main" version="1.1" xmlns="http://www.w3.org/2000/svg" xmlns:xlink="http://www.w3.org/1999/xlink" xml:space="preserve" onload="init(evt)">
<style type="text/css"><![CDATA[
.edge:hover path { stroke: red; }
.edge:hover polygon { stroke: red; fill: red; }
]]></style>
<script type="text/javascript"><![CDATA[
var edges = document.getElementsByTagName('g');
if (edges && edges.length) {
  for (var i=0;i<edges.length;i++) {
    if (edges[i].id.substr(0,4)=='edge') {
      edges[i].setAttribute('class','edge');
    }
  }
}
]]></script>
        <defs>
                <circle id="rim" cx="0" cy="0" r="7"/>
                <circle id="rim2" cx="0" cy="0" r="3.5"/>
                <g id="zoomPlus">
                        <use xlink:href="#rim" fill="#404040">
                                <set attributeName="fill" to="#808080" begin="zoomplus.mouseover" end="zoomplus.mouseout"/>
                        </use>
                        <path d="M-4,0h8M0,-4v8" fill="none" stroke="white" stroke-width="1.5" pointer-events="none"/>
                </g>
                <g id="zoomMin">
                        <use xlink:href="#rim" fill="#404040">
                                <set attributeName="fill" to="#808080" begin="zoomminus.mouseover" end="zoomminus.mouseout"/>
                        </use>
                        <path d="M-4,0h8" fill="none" stroke="white" stroke-width="1.5" pointer-events="none"/>
                </g>
                <g id="dirArrow">
                        <path fill="none" stroke="white" stroke-width="1.5" d="M0,-3.0v7 M-2.5,-0.5L0,-3.0L2.5,-0.5"/>
                </g>
               <g id="resetDef">
                       <use xlink:href="#rim2" fill="#404040">
                               <set attributeName="fill" to="#808080" begin="reset.mouseover" end="reset.mouseout"/>
                       </use>
               </g>
        </defs>

<script type="text/javascript">
var viewWidth = 606;
var viewHeight = 290;
var sectionId = 'dynsection-1';
</script>
<script xlink:href="svgpan.js"/>
<svg id="graph" class="graph">
<g id="viewport">
<title>main</title>
<polygon fill="white" stroke="none" points="-4,4 -4,-286 602,-286 602,4 -4,4"/>
<!-- Node1 -->
<g id="node1" class="node">
<title>Node1</title>
<g id="a_node1"><a xlink:title="Where the tasks are run.">
<polygon fill="#bfbfbf" stroke="black" points="0,-114.5 0,-133.5 41,-133.5 41,-114.5 0,-114.5"/>
<text text-anchor="middle" x="20.5" y="-121.5" font-family="Helvetica,sans-Serif" font-size="10.00">main</text>
</a>
</g>
</g>
<!-- Node2 -->
<g id="node2" class="node">
<title>Node2</title>
<g id="a_node2"><a xlink:href="utils_8cpp.html#a25643aa8241f085240d87644329f4656" target="_top" xlink:title="Evaluates the truth value of a given parse tree.">
<polygon fill="white" stroke="black" points="91.5,-179.5 91.5,-198.5 223.5,-198.5 223.5,-179.5 91.5,-179.5"/>
<text text-anchor="middle" x="157.5" y="-186.5" font-family="Helvetica,sans-Serif" font-size="10.00">evaluateTreeTruthValue</text>
</a>
</g>
</g>
<!-- Node1&#45;&gt;Node2 -->
<g id="edge1" class="edge">
<title>Node1&#45;&gt;Node2</title>
<path fill="none" stroke="midnightblue" d="M33.68,-133.79C44.54,-142.15 61.13,-154.06 77,-162 88,-167.5 100.38,-172.31 112.05,-176.29"/>
<polygon fill="midnightblue" stroke="midnightblue" points="111.03,-179.64 121.63,-179.42 113.21,-172.98 111.03,-179.64"/>
</g>
<!-- Node7 -->
<g id="node7" class="node">
<title>Node7</title>
<g id="a_node7"><a xlink:href="classParseTree.html#aa09112584a4aa46f867f38fe48179954" target="_top" xlink:title="Calculate the height of the binary tree recursively.">
<polygon fill="white" stroke="black" points="290.5,-244.5 290.5,-263.5 408.5,-263.5 408.5,-244.5 290.5,-244.5"/>
<text text-anchor="middle" x="349.5" y="-251.5" font-family="Helvetica,sans-Serif" font-size="10.00">ParseTree::getHeight</text>
</a>
</g>
</g>
<!-- Node1&#45;&gt;Node7 -->
<g id="edge7" class="edge">
<title>Node1&#45;&gt;Node7</title>
<path fill="none" stroke="midnightblue" d="M24.9,-133.69C31.72,-151.59 48.88,-189.68 77,-208 137.75,-247.57 221.79,-256.4 280.22,-257.03"/>
<polygon fill="midnightblue" stroke="midnightblue" points="280.45,-260.53 290.46,-257.06 280.47,-253.53 280.45,-260.53"/>
</g>
<!-- Node8 -->
<g id="node8" class="node">
<title>Node8</title>
<g id="a_node8"><a xlink:href="classParseTree.html#ad2561b779306154ebc3527b0ee1bb855" target="_top" xlink:title="Traverses the parse tree and return the infix formula.">
<polygon fill="white" stroke="black" points="77,-133.5 77,-152.5 238,-152.5 238,-133.5 77,-133.5"/>
<text text-anchor="middle" x="157.5" y="-140.5" font-family="Helvetica,sans-Serif" font-size="10.00">ParseTree::getInfixExpression</text>
</a>
</g>
</g>
<!-- Node1&#45;&gt;Node8 -->
<g id="edge11" class="edge">
<title>Node1&#45;&gt;Node8</title>
<path fill="none" stroke="midnightblue" d="M41.13,-126.76C51.43,-128.21 64.79,-130.09 78.75,-132.06"/>
<polygon fill="midnightblue" stroke="midnightblue" points="78.59,-135.57 88.98,-133.5 79.57,-128.64 78.59,-135.57"/>
</g>
<!-- Node10 -->
<g id="node10" class="node">
<title>Node10</title>
<g id="a_node10"><a xlink:href="conversions_8cpp.html#a32422df5e46274fb24a354222b40cea1" target="_top" xlink:title="Takes the infix formula given and converts into prefix formula.">
<polygon fill="white" stroke="black" points="119,-57.5 119,-76.5 196,-76.5 196,-57.5 119,-57.5"/>
<text text-anchor="middle" x="157.5" y="-64.5" font-family="Helvetica,sans-Serif" font-size="10.00">infixToPrefix</text>
</a>
</g>
</g>
<!-- Node1&#45;&gt;Node10 -->
<g id="edge17" class="edge">
<title>Node1&#45;&gt;Node10</title>
<path fill="none" stroke="midnightblue" d="M35.59,-114.31C46.51,-107.13 62.23,-97.51 77,-91 87.1,-86.55 98.27,-82.62 108.97,-79.29"/>
<polygon fill="midnightblue" stroke="midnightblue" points="110.04,-82.62 118.61,-76.4 108.03,-75.91 110.04,-82.62"/>
</g>
<!-- Node11 -->
<g id="node11" class="node">
<title>Node11</title>
<g id="a_node11"><a xlink:href="conversions_8cpp.html#a9f774923275158a677269871dc4dda65" target="_top" xlink:title="Takes in a prefix formula and converts it into a rooted binary parse tree.">
<polygon fill="white" stroke="black" points="106,-19.5 106,-38.5 209,-38.5 209,-19.5 106,-19.5"/>
<text text-anchor="middle" x="157.5" y="-26.5" font-family="Helvetica,sans-Serif" font-size="10.00">prefixToParseTree</text>
</a>
</g>
</g>
<!-- Node1&#45;&gt;Node11 -->
<g id="edge18" class="edge">
<title>Node1&#45;&gt;Node11</title>
<path fill="none" stroke="midnightblue" d="M25.76,-114.36C33.49,-98.03 51.43,-65.02 77,-48 82.79,-44.14 89.29,-41.07 96,-38.61"/>
<polygon fill="midnightblue" stroke="midnightblue" points="97.46,-41.82 105.93,-35.45 95.34,-35.15 97.46,-41.82"/>
</g>
<!-- Node15 -->
<g id="node15" class="node">
<title>Node15</title>
<g id="a_node15"><a xlink:href="classParseTree.html#a7c0dd4173a68c9f9f8aa13fae399f4b0" target="_top" xlink:title="Prints the binary tree.">
<polygon fill="white" stroke="black" points="279.5,-76.5 279.5,-95.5 419.5,-95.5 419.5,-76.5 279.5,-76.5"/>
<text text-anchor="middle" x="349.5" y="-83.5" font-family="Helvetica,sans-Serif" font-size="10.00">ParseTree::printParseTree</text>
</a>
</g>
</g>
<!-- Node1&#45;&gt;Node15 -->
<g id="edge23" class="edge">
<title>Node1&#45;&gt;Node15</title>
<path fill="none" stroke="midnightblue" d="M41.46,-121.68C85.72,-116.54 194.11,-103.94 269.48,-95.18"/>
<polygon fill="midnightblue" stroke="midnightblue" points="269.9,-98.66 279.43,-94.03 269.09,-91.7 269.9,-98.66"/>
</g>
<!-- Node3 -->
<g id="node3" class="node">
<title>Node3</title>
<g id="a_node3"><a xlink:href="utils_8cpp.html#aa0c28b938620dfeec544e2f97d6d04ea" target="_top" xlink:title="Gets the truth value of a given node.">
<polygon fill="white" stroke="black" points="294.5,-188.5 294.5,-207.5 404.5,-207.5 404.5,-188.5 294.5,-188.5"/>
<text text-anchor="middle" x="349.5" y="-195.5" font-family="Helvetica,sans-Serif" font-size="10.00">getNodeTruthValue</text>
</a>
</g>
</g>
<!-- Node2&#45;&gt;Node3 -->
<g id="edge2" class="edge">
<title>Node2&#45;&gt;Node3</title>
<path fill="none" stroke="midnightblue" d="M223.62,-192.08C243.2,-193.01 264.66,-194.03 284.18,-194.95"/>
<polygon fill="midnightblue" stroke="midnightblue" points="284.04,-198.45 294.2,-195.43 284.37,-191.46 284.04,-198.45"/>
</g>
<!-- Node3&#45;&gt;Node3 -->
<g id="edge4" class="edge">
<title>Node3&#45;&gt;Node3</title>
<path fill="none" stroke="midnightblue" d="M321.76,-207.76C308.26,-216.57 317.51,-226 349.5,-226 371.49,-226 382.74,-221.54 383.23,-215.89"/>
<polygon fill="midnightblue" stroke="midnightblue" points="385.99,-213.73 377.24,-207.76 380.35,-217.88 385.99,-213.73"/>
</g>
<!-- Node4 -->
<g id="node4" class="node">
<title>Node4</title>
<g id="a_node4"><a xlink:href="classParseTree.html#ae1cb6829644917b9437f28a08b1e60a1" target="_top" xlink:title="Get the left node when a node is given.">
<polygon fill="white" stroke="black" points="464.5,-150.5 464.5,-169.5 594.5,-169.5 594.5,-150.5 464.5,-150.5"/>
<text text-anchor="middle" x="529.5" y="-157.5" font-family="Helvetica,sans-Serif" font-size="10.00">ParseTree::getLeftNode</text>
</a>
</g>
</g>
<!-- Node3&#45;&gt;Node4 -->
<g id="edge3" class="edge">
<title>Node3&#45;&gt;Node4</title>
<path fill="none" stroke="midnightblue" d="M395.42,-188.41C419.33,-183.31 448.92,-176.99 474.12,-171.61"/>
<polygon fill="midnightblue" stroke="midnightblue" points="474.86,-175.03 483.91,-169.52 473.4,-168.19 474.86,-175.03"/>
</g>
<!-- Node5 -->
<g id="node5" class="node">
<title>Node5</title>
<g id="a_node5"><a xlink:href="classParseTree.html#a101193b71bc7e02d051dd73e6f079aa1" target="_top" xlink:title="Get the right node when a node is given.">
<polygon fill="white" stroke="black" points="461,-188.5 461,-207.5 598,-207.5 598,-188.5 461,-188.5"/>
<text text-anchor="middle" x="529.5" y="-195.5" font-family="Helvetica,sans-Serif" font-size="10.00">ParseTree::getRightNode</text>
</a>
</g>
</g>
<!-- Node3&#45;&gt;Node5 -->
<g id="edge5" class="edge">
<title>Node3&#45;&gt;Node5</title>
<path fill="none" stroke="midnightblue" d="M404.87,-198C419.38,-198 435.35,-198 450.84,-198"/>
<polygon fill="midnightblue" stroke="midnightblue" points="450.94,-201.5 460.94,-198 450.94,-194.5 450.94,-201.5"/>
</g>
<!-- Node6 -->
<g id="node6" class="node">
<title>Node6</title>
<g id="a_node6"><a xlink:href="classParseTree.html#a816af779bb7d32b6ab6e513cf69648a4" target="_top" xlink:title="Get the value of the node.">
<polygon fill="white" stroke="black" points="473,-112.5 473,-131.5 586,-131.5 586,-112.5 473,-112.5"/>
<text text-anchor="middle" x="529.5" y="-119.5" font-family="Helvetica,sans-Serif" font-size="10.00">ParseTree::getValue</text>
</a>
</g>
</g>
<!-- Node3&#45;&gt;Node6 -->
<g id="edge6" class="edge">
<title>Node3&#45;&gt;Node6</title>
<path fill="none" stroke="midnightblue" d="M403.67,-188.39C411.11,-185.93 418.44,-182.85 425,-179 445.06,-167.22 441.09,-153.03 461,-141 464.58,-138.84 468.41,-136.92 472.36,-135.21"/>
<polygon fill="midnightblue" stroke="midnightblue" points="473.66,-138.46 481.74,-131.59 471.15,-131.92 473.66,-138.46"/>
</g>
<!-- Node7&#45;&gt;Node4 -->
<g id="edge9" class="edge">
<title>Node7&#45;&gt;Node4</title>
<path fill="none" stroke="midnightblue" d="M407.07,-244.47C413.44,-242.01 419.59,-238.9 425,-235 449,-217.7 437.21,-196.6 461,-179 463.64,-177.05 466.48,-175.29 469.44,-173.72"/>
<polygon fill="midnightblue" stroke="midnightblue" points="470.98,-176.86 478.61,-169.52 468.07,-170.5 470.98,-176.86"/>
</g>
<!-- Node7&#45;&gt;Node5 -->
<g id="edge10" class="edge">
<title>Node7&#45;&gt;Node5</title>
<path fill="none" stroke="midnightblue" d="M390.9,-244.43C402.01,-241.6 414.02,-238.35 425,-235 448.26,-227.89 474.02,-218.69 494.02,-211.24"/>
<polygon fill="midnightblue" stroke="midnightblue" points="495.49,-214.43 503.62,-207.63 493.03,-207.87 495.49,-214.43"/>
</g>
<!-- Node7&#45;&gt;Node7 -->
<g id="edge8" class="edge">
<title>Node7&#45;&gt;Node7</title>
<path fill="none" stroke="midnightblue" d="M321.76,-263.76C308.26,-272.57 317.51,-282 349.5,-282 371.49,-282 382.74,-277.54 383.23,-271.89"/>
<polygon fill="midnightblue" stroke="midnightblue" points="385.99,-269.73 377.24,-263.76 380.35,-273.88 385.99,-269.73"/>
</g>
<!-- Node9 -->
<g id="node9" class="node">
<title>Node9</title>
<g id="a_node9"><a xlink:href="classParseTree.html#a434c3422fae323882805bd4109f06ba0" target="_top" xlink:title="Utility method which traverses the tree in in&#45;order manner.">
<polygon fill="white" stroke="black" points="274,-132.5 274,-151.5 425,-151.5 425,-132.5 274,-132.5"/>
<text text-anchor="middle" x="349.5" y="-139.5" font-family="Helvetica,sans-Serif" font-size="10.00">ParseTree::inOrderTraversal</text>
</a>
</g>
</g>
<!-- Node8&#45;&gt;Node9 -->
<g id="edge12" class="edge">
<title>Node8&#45;&gt;Node9</title>
<path fill="none" stroke="midnightblue" d="M238.25,-142.58C246.63,-142.54 255.16,-142.49 263.59,-142.45"/>
<polygon fill="midnightblue" stroke="midnightblue" points="263.82,-145.95 273.81,-142.39 263.79,-138.95 263.82,-145.95"/>
</g>
<!-- Node9&#45;&gt;Node4 -->
<g id="edge13" class="edge">
<title>Node9&#45;&gt;Node4</title>
<path fill="none" stroke="midnightblue" d="M425.21,-149.56C434.89,-150.53 444.79,-151.54 454.46,-152.51"/>
<polygon fill="midnightblue" stroke="midnightblue" points="454.12,-156 464.42,-153.52 454.82,-149.03 454.12,-156"/>
</g>
<!-- Node9&#45;&gt;Node5 -->
<g id="edge14" class="edge">
<title>Node9&#45;&gt;Node5</title>
<path fill="none" stroke="midnightblue" d="M378.08,-151.65C400.36,-159.35 432.58,-170.25 461,-179 468.28,-181.24 476.04,-183.52 483.6,-185.69"/>
<polygon fill="midnightblue" stroke="midnightblue" points="482.8,-189.1 493.37,-188.46 484.7,-182.37 482.8,-189.1"/>
</g>
<!-- Node9&#45;&gt;Node6 -->
<g id="edge15" class="edge">
<title>Node9&#45;&gt;Node6</title>
<path fill="none" stroke="midnightblue" d="M425.21,-133.61C437.7,-132.2 450.57,-130.76 462.81,-129.38"/>
<polygon fill="midnightblue" stroke="midnightblue" points="463.38,-132.84 472.92,-128.24 462.59,-125.88 463.38,-132.84"/>
</g>
<!-- Node9&#45;&gt;Node9 -->
<g id="edge16" class="edge">
<title>Node9&#45;&gt;Node9</title>
<path fill="none" stroke="midnightblue" d="M321.76,-151.76C308.26,-160.57 317.51,-170 349.5,-170 371.49,-170 382.74,-165.54 383.23,-159.89"/>
<polygon fill="midnightblue" stroke="midnightblue" points="385.99,-157.73 377.24,-151.76 380.35,-161.88 385.99,-157.73"/>
</g>
<!-- Node12 -->
<g id="node12" class="node">
<title>Node12</title>
<g id="a_node12"><a xlink:href="utils_8cpp.html#ac3a144eab5f857eeb3aabaf201b57796" target="_top" xlink:title="Takes in start and end pointers and generates a binary tree recursively.">
<polygon fill="white" stroke="black" points="302,-19.5 302,-38.5 397,-38.5 397,-19.5 302,-19.5"/>
<text text-anchor="middle" x="349.5" y="-26.5" font-family="Helvetica,sans-Serif" font-size="10.00">createParseTree</text>
</a>
</g>
</g>
<!-- Node11&#45;&gt;Node12 -->
<g id="edge19" class="edge">
<title>Node11&#45;&gt;Node12</title>
<path fill="none" stroke="midnightblue" d="M209.42,-29C234.74,-29 265.44,-29 291.55,-29"/>
<polygon fill="midnightblue" stroke="midnightblue" points="291.68,-32.5 301.68,-29 291.68,-25.5 291.68,-32.5"/>
</g>
<!-- Node12&#45;&gt;Node12 -->
<g id="edge20" class="edge">
<title>Node12&#45;&gt;Node12</title>
<path fill="none" stroke="midnightblue" d="M321.76,-38.76C308.26,-47.57 317.51,-57 349.5,-57 371.49,-57 382.74,-52.54 383.23,-46.89"/>
<polygon fill="midnightblue" stroke="midnightblue" points="385.99,-44.73 377.24,-38.76 380.35,-48.88 385.99,-44.73"/>
</g>
<!-- Node13 -->
<g id="node13" class="node">
<title>Node13</title>
<g id="a_node13"><a xlink:href="classParseTree.html#adf597d2ebd88e8275d7ac78b09d68ce4" target="_top" xlink:title="Set the left node of a given node.">
<polygon fill="white" stroke="black" points="465,-0.5 465,-19.5 594,-19.5 594,-0.5 465,-0.5"/>
<text text-anchor="middle" x="529.5" y="-7.5" font-family="Helvetica,sans-Serif" font-size="10.00">ParseTree::setLeftNode</text>
</a>
</g>
</g>
<!-- Node12&#45;&gt;Node13 -->
<g id="edge21" class="edge">
<title>Node12&#45;&gt;Node13</title>
<path fill="none" stroke="midnightblue" d="M397.27,-24.01C414.9,-22.13 435.41,-19.94 454.9,-17.86"/>
<polygon fill="midnightblue" stroke="midnightblue" points="455.41,-21.32 464.98,-16.78 454.66,-14.36 455.41,-21.32"/>
</g>
<!-- Node14 -->
<g id="node14" class="node">
<title>Node14</title>
<g id="a_node14"><a xlink:href="classParseTree.html#a0effbd955454ab1beec9940cd6631dba" target="_top" xlink:title="Set the right node of a given node.">
<polygon fill="white" stroke="black" points="461.5,-38.5 461.5,-57.5 597.5,-57.5 597.5,-38.5 461.5,-38.5"/>
<text text-anchor="middle" x="529.5" y="-45.5" font-family="Helvetica,sans-Serif" font-size="10.00">ParseTree::setRightNode</text>
</a>
</g>
</g>
<!-- Node12&#45;&gt;Node14 -->
<g id="edge22" class="edge">
<title>Node12&#45;&gt;Node14</title>
<path fill="none" stroke="midnightblue" d="M397.27,-33.99C413.78,-35.75 432.82,-37.79 451.18,-39.75"/>
<polygon fill="midnightblue" stroke="midnightblue" points="450.98,-43.24 461.29,-40.83 451.72,-36.28 450.98,-43.24"/>
</g>
<!-- Node15&#45;&gt;Node4 -->
<g id="edge24" class="edge">
<title>Node15&#45;&gt;Node4</title>
<path fill="none" stroke="midnightblue" d="M369.8,-95.57C384.85,-103.03 406.26,-113.66 425,-123 441.01,-130.98 444.32,-134.55 461,-141 467.04,-143.33 473.48,-145.52 479.89,-147.51"/>
<polygon fill="midnightblue" stroke="midnightblue" points="479.31,-150.99 489.89,-150.49 481.3,-144.28 479.31,-150.99"/>
</g>
<!-- Node15&#45;&gt;Node5 -->
<g id="edge25" class="edge">
<title>Node15&#45;&gt;Node5</title>
<path fill="none" stroke="midnightblue" d="M378.14,-95.54C393.18,-101.71 411.44,-110.86 425,-123 447.04,-142.74 437.21,-161.4 461,-179 463.64,-180.95 466.48,-182.71 469.44,-184.28"/>
<polygon fill="midnightblue" stroke="midnightblue" points="468.07,-187.5 478.61,-188.48 470.98,-181.14 468.07,-187.5"/>
</g>
<!-- Node15&#45;&gt;Node6 -->
<g id="edge26" class="edge">
<title>Node15&#45;&gt;Node6</title>
<path fill="none" stroke="midnightblue" d="M397.73,-95.55C420.35,-100.13 447.63,-105.64 471.4,-110.45"/>
<polygon fill="midnightblue" stroke="midnightblue" points="470.86,-113.91 481.35,-112.47 472.25,-107.05 470.86,-113.91"/>
</g>
<!-- Node15&#45;&gt;Node15 -->
<g id="edge27" class="edge">
<title>Node15&#45;&gt;Node15</title>
<path fill="none" stroke="midnightblue" d="M321.76,-95.76C308.26,-104.57 317.51,-114 349.5,-114 371.49,-114 382.74,-109.54 383.23,-103.89"/>
<polygon fill="midnightblue" stroke="midnightblue" points="385.99,-101.73 377.24,-95.76 380.35,-105.88 385.99,-101.73"/>
</g>
</g>
</svg>
        <g id="navigator" transform="translate(0 0)" fill="#404254">
                <rect fill="#f2f5e9" fill-opacity="0.5" stroke="#606060" stroke-width=".5" x="0" y="0" width="60" height="60"/>
                <use id="zoomplus" xlink:href="#zoomPlus" x="17" y="9" onmousedown="handleZoom(evt,'in')"/>
                <use id="zoomminus" xlink:href="#zoomMin" x="42" y="9" onmousedown="handleZoom(evt,'out')"/>
                <use id="reset" xlink:href="#resetDef" x="30" y="36" onmousedown="handleReset()"/>
                <g id="arrowUp" xlink:href="#dirArrow" transform="translate(30 24)" onmousedown="handlePan(0,-1)">
                  <use xlink:href="#rim" fill="#404040">
                        <set attributeName="fill" to="#808080" begin="arrowUp.mouseover" end="arrowUp.mouseout"/>
                  </use>
                  <path fill="none" stroke="white" stroke-width="1.5" d="M0,-3.0v7 M-2.5,-0.5L0,-3.0L2.5,-0.5"/>
                </g>
                <g id="arrowRight" xlink:href="#dirArrow" transform="rotate(90) translate(36 -43)" onmousedown="handlePan(1,0)">
                  <use xlink:href="#rim" fill="#404040">
                        <set attributeName="fill" to="#808080" begin="arrowRight.mouseover" end="arrowRight.mouseout"/>
                  </use>
                  <path fill="none" stroke="white" stroke-width="1.5" d="M0,-3.0v7 M-2.5,-0.5L0,-3.0L2.5,-0.5"/>
                </g>
                <g id="arrowDown" xlink:href="#dirArrow" transform="rotate(180) translate(-30 -48)" onmousedown="handlePan(0,1)">
                  <use xlink:href="#rim" fill="#404040">
                        <set attributeName="fill" to="#808080" begin="arrowDown.mouseover" end="arrowDown.mouseout"/>
                  </use>
                  <path fill="none" stroke="white" stroke-width="1.5" d="M0,-3.0v7 M-2.5,-0.5L0,-3.0L2.5,-0.5"/>
                </g>
                <g id="arrowLeft" xlink:href="#dirArrow" transform="rotate(270) translate(-36 17)" onmousedown="handlePan(-1,0)">
                  <use xlink:href="#rim" fill="#404040">
                        <set attributeName="fill" to="#808080" begin="arrowLeft.mouseover" end="arrowLeft.mouseout"/>
                  </use>
                  <path fill="none" stroke="white" stroke-width="1.5" d="M0,-3.0v7 M-2.5,-0.5L0,-3.0L2.5,-0.5"/>
                </g>
        </g>
        <svg viewBox="0 0 15 15" width="100%" height="30px" preserveAspectRatio="xMaxYMin meet">
         <g id="arrow_out" transform="scale(0.3 0.3)">
          <a xlink:href="main_8cpp_ae66f6b31b5ad750f1fe042a706a4e3d4_cgraph_org.svg" target="_base">
           <rect id="button" ry="5" rx="5" y="6" x="6" height="38" width="38"
                fill="#f2f5e9" fill-opacity="0.5" stroke="#606060" stroke-width="1.0"/>
           <path id="arrow"
             d="M 11.500037,31.436501 C 11.940474,20.09759 22.043105,11.32322 32.158766,21.979434 L 37.068811,17.246167 C 37.068811,17.246167 37.088388,32 37.088388,32 L 22.160133,31.978069 C 22.160133,31.978069 26.997745,27.140456 26.997745,27.140456 C 18.528582,18.264221 13.291696,25.230495 11.500037,31.436501 z"
             style="fill:#404040;"/>
          </a>
         </g>
        </svg>
</svg>
