<?xml version="1.0" encoding="UTF-8" standalone="no"?>
<!DOCTYPE svg PUBLIC "-//W3C//DTD SVG 1.1//EN"
 "http://www.w3.org/Graphics/SVG/1.1/DTD/svg11.dtd">
<!-- Generated by graphviz version 6.0.2 (0)
 -->
<!-- Title: src/main.cpp Pages: 1 -->
<svg width="447pt" height="196pt"
 viewBox="0.00 0.00 446.50 196.00" xmlns="http://www.w3.org/2000/svg" xmlns:xlink="http://www.w3.org/1999/xlink">
<g id="graph0" class="graph" transform="scale(1 1) rotate(0) translate(4 192)">
<title>src/main.cpp</title>
<polygon fill="white" stroke="none" points="-4,4 -4,-192 442.5,-192 442.5,4 -4,4"/>
<!-- Node1 -->
<g id="node1" class="node">
<title>Node1</title>
<g id="a_node1"><a xlink:title="Source file for main.">
<polygon fill="#bfbfbf" stroke="black" points="142.5,-168.5 142.5,-187.5 221.5,-187.5 221.5,-168.5 142.5,-168.5"/>
<text text-anchor="middle" x="182" y="-175.5" font-family="Helvetica,sans-Serif" font-size="10.00">src/main.cpp</text>
</a>
</g>
</g>
<!-- Node2 -->
<g id="node2" class="node">
<title>Node2</title>
<g id="a_node2"><a xlink:href="main_8h.html" target="_top" xlink:title="Header file for main.">
<polygon fill="white" stroke="black" points="0,-112.5 0,-131.5 98,-131.5 98,-112.5 0,-112.5"/>
<text text-anchor="middle" x="49" y="-119.5" font-family="Helvetica,sans-Serif" font-size="10.00">../include/main.h</text>
</a>
</g>
</g>
<!-- Node1&#45;&gt;Node2 -->
<g id="edge1" class="edge">
<title>Node1&#45;&gt;Node2</title>
<path fill="none" stroke="midnightblue" d="M160.93,-168.44C138.94,-159.52 104.27,-145.44 79.34,-135.32"/>
<polygon fill="midnightblue" stroke="midnightblue" points="80.56,-132.04 69.98,-131.52 77.92,-138.52 80.56,-132.04"/>
</g>
<!-- Node4 -->
<g id="node4" class="node">
<title>Node4</title>
<g id="a_node4"><a xlink:href="conversions_8h.html" target="_top" xlink:title="Header file for conversions.">
<polygon fill="white" stroke="black" points="116.5,-112.5 116.5,-131.5 247.5,-131.5 247.5,-112.5 116.5,-112.5"/>
<text text-anchor="middle" x="182" y="-119.5" font-family="Helvetica,sans-Serif" font-size="10.00">../include/conversions.h</text>
</a>
</g>
</g>
<!-- Node1&#45;&gt;Node4 -->
<g id="edge3" class="edge">
<title>Node1&#45;&gt;Node4</title>
<path fill="none" stroke="midnightblue" d="M182,-168.08C182,-161.01 182,-150.86 182,-141.99"/>
<polygon fill="midnightblue" stroke="midnightblue" points="185.5,-141.75 182,-131.75 178.5,-141.75 185.5,-141.75"/>
</g>
<!-- Node8 -->
<g id="node8" class="node">
<title>Node8</title>
<g id="a_node8"><a xlink:href="tree_8h.html" target="_top" xlink:title="Header file for tree.">
<polygon fill="white" stroke="black" points="284,-112.5 284,-131.5 376,-131.5 376,-112.5 284,-112.5"/>
<text text-anchor="middle" x="330" y="-119.5" font-family="Helvetica,sans-Serif" font-size="10.00">../include/tree.h</text>
</a>
</g>
</g>
<!-- Node1&#45;&gt;Node8 -->
<g id="edge9" class="edge">
<title>Node1&#45;&gt;Node8</title>
<path fill="none" stroke="midnightblue" d="M205.45,-168.44C230.13,-159.44 269.19,-145.19 296.98,-135.05"/>
<polygon fill="midnightblue" stroke="midnightblue" points="298.46,-138.23 306.66,-131.52 296.06,-131.66 298.46,-138.23"/>
</g>
<!-- Node3 -->
<g id="node3" class="node">
<title>Node3</title>
<g id="a_node3"><a xlink:title=" ">
<polygon fill="white" stroke="#bfbfbf" points="89,-0.5 89,-19.5 149,-19.5 149,-0.5 89,-0.5"/>
<text text-anchor="middle" x="119" y="-7.5" font-family="Helvetica,sans-Serif" font-size="10.00">iostream</text>
</a>
</g>
</g>
<!-- Node2&#45;&gt;Node3 -->
<g id="edge2" class="edge">
<title>Node2&#45;&gt;Node3</title>
<path fill="none" stroke="midnightblue" d="M53.09,-112.33C59.22,-99.61 71.41,-75.33 84,-56 90.42,-46.15 98.41,-35.76 105.14,-27.44"/>
<polygon fill="midnightblue" stroke="midnightblue" points="107.91,-29.58 111.57,-19.64 102.51,-25.13 107.91,-29.58"/>
</g>
<!-- Node4&#45;&gt;Node4 -->
<g id="edge6" class="edge">
<title>Node4&#45;&gt;Node4</title>
<path fill="none" stroke="midnightblue" d="M217.61,-131.53C241.81,-134.31 265.5,-131.13 265.5,-122 265.5,-114.15 248.01,-110.7 227.73,-111.65"/>
<polygon fill="midnightblue" stroke="midnightblue" points="227.3,-108.18 217.61,-112.47 227.86,-115.15 227.3,-108.18"/>
</g>
<!-- Node5 -->
<g id="node5" class="node">
<title>Node5</title>
<g id="a_node5"><a xlink:title=" ">
<polygon fill="white" stroke="#bfbfbf" points="163,-56.5 163,-75.5 227,-75.5 227,-56.5 163,-56.5"/>
<text text-anchor="middle" x="195" y="-63.5" font-family="Helvetica,sans-Serif" font-size="10.00">algorithm</text>
</a>
</g>
</g>
<!-- Node4&#45;&gt;Node5 -->
<g id="edge4" class="edge">
<title>Node4&#45;&gt;Node5</title>
<path fill="none" stroke="midnightblue" d="M184.15,-112.08C185.87,-104.93 188.35,-94.64 190.5,-85.69"/>
<polygon fill="midnightblue" stroke="midnightblue" points="193.96,-86.29 192.89,-75.75 187.15,-84.65 193.96,-86.29"/>
</g>
<!-- Node6 -->
<g id="node6" class="node">
<title>Node6</title>
<g id="a_node6"><a xlink:title=" ">
<polygon fill="white" stroke="#bfbfbf" points="245,-56.5 245,-75.5 289,-75.5 289,-56.5 245,-56.5"/>
<text text-anchor="middle" x="267" y="-63.5" font-family="Helvetica,sans-Serif" font-size="10.00">string</text>
</a>
</g>
</g>
<!-- Node4&#45;&gt;Node6 -->
<g id="edge5" class="edge">
<title>Node4&#45;&gt;Node6</title>
<path fill="none" stroke="midnightblue" d="M195.66,-112.32C208.92,-103.9 229.27,-90.97 244.85,-81.07"/>
<polygon fill="midnightblue" stroke="midnightblue" points="246.81,-83.97 253.38,-75.65 243.06,-78.06 246.81,-83.97"/>
</g>
<!-- Node7 -->
<g id="node7" class="node">
<title>Node7</title>
<g id="a_node7"><a xlink:href="stack_8h.html" target="_top" xlink:title="Header file for stack.">
<polygon fill="white" stroke="black" points="93,-56.5 93,-75.5 145,-75.5 145,-56.5 93,-56.5"/>
<text text-anchor="middle" x="119" y="-63.5" font-family="Helvetica,sans-Serif" font-size="10.00">stack.h</text>
</a>
</g>
</g>
<!-- Node4&#45;&gt;Node7 -->
<g id="edge7" class="edge">
<title>Node4&#45;&gt;Node7</title>
<path fill="none" stroke="midnightblue" d="M171.88,-112.32C162.47,-104.26 148.26,-92.08 136.93,-82.37"/>
<polygon fill="midnightblue" stroke="midnightblue" points="139.18,-79.68 129.31,-75.83 134.62,-85 139.18,-79.68"/>
</g>
<!-- Node7&#45;&gt;Node3 -->
<g id="edge8" class="edge">
<title>Node7&#45;&gt;Node3</title>
<path fill="none" stroke="midnightblue" d="M119,-56.08C119,-49.01 119,-38.86 119,-29.99"/>
<polygon fill="midnightblue" stroke="midnightblue" points="122.5,-29.75 119,-19.75 115.5,-29.75 122.5,-29.75"/>
</g>
<!-- Node8&#45;&gt;Node3 -->
<g id="edge11" class="edge">
<title>Node8&#45;&gt;Node3</title>
<path fill="none" stroke="midnightblue" d="M328.21,-112.38C324.84,-98.36 316.19,-70.71 298,-56 258.31,-23.92 198.72,-14.34 159.36,-11.68"/>
<polygon fill="midnightblue" stroke="midnightblue" points="159.5,-8.18 149.32,-11.12 159.11,-15.17 159.5,-8.18"/>
</g>
<!-- Node8&#45;&gt;Node5 -->
<g id="edge10" class="edge">
<title>Node8&#45;&gt;Node5</title>
<path fill="none" stroke="midnightblue" d="M308.61,-112.44C286.29,-103.52 251.1,-89.44 225.79,-79.32"/>
<polygon fill="midnightblue" stroke="midnightblue" points="226.88,-75.98 216.29,-75.52 224.28,-82.48 226.88,-75.98"/>
</g>
<!-- Node8&#45;&gt;Node6 -->
<g id="edge12" class="edge">
<title>Node8&#45;&gt;Node6</title>
<path fill="none" stroke="midnightblue" d="M319.88,-112.32C310.47,-104.26 296.26,-92.08 284.93,-82.37"/>
<polygon fill="midnightblue" stroke="midnightblue" points="287.18,-79.68 277.31,-75.83 282.62,-85 287.18,-79.68"/>
</g>
<!-- Node9 -->
<g id="node9" class="node">
<title>Node9</title>
<g id="a_node9"><a xlink:title=" ">
<polygon fill="white" stroke="#bfbfbf" points="345.5,-56.5 345.5,-75.5 438.5,-75.5 438.5,-56.5 345.5,-56.5"/>
<text text-anchor="middle" x="392" y="-63.5" font-family="Helvetica,sans-Serif" font-size="10.00">unordered_map</text>
</a>
</g>
</g>
<!-- Node8&#45;&gt;Node9 -->
<g id="edge13" class="edge">
<title>Node8&#45;&gt;Node9</title>
<path fill="none" stroke="midnightblue" d="M339.96,-112.32C349.13,-104.34 362.94,-92.31 374.03,-82.65"/>
<polygon fill="midnightblue" stroke="midnightblue" points="376.62,-85.04 381.86,-75.83 372.02,-79.76 376.62,-85.04"/>
</g>
</g>
</svg>
