<?xml version="1.0" encoding="UTF-8" standalone="no"?>
<!DOCTYPE svg PUBLIC "-//W3C//DTD SVG 1.1//EN"
 "http://www.w3.org/Graphics/SVG/1.1/DTD/svg11.dtd">
<!-- Generated by graphviz version 6.0.2 (0)
 -->
<!-- Title: include/parsetree.h Pages: 1 -->
<svg width="319pt" height="252pt"
 viewBox="0.00 0.00 319.00 252.00" xmlns="http://www.w3.org/2000/svg" xmlns:xlink="http://www.w3.org/1999/xlink">
<g id="graph0" class="graph" transform="scale(1 1) rotate(0) translate(4 248)">
<title>include/parsetree.h</title>
<polygon fill="white" stroke="none" points="-4,4 -4,-248 315,-248 315,4 -4,4"/>
<!-- Node1 -->
<g id="node1" class="node">
<title>Node1</title>
<g id="a_node1"><a xlink:title="Header file for parse tree.">
<polygon fill="#bfbfbf" stroke="black" points="90.5,-224.5 90.5,-243.5 200.5,-243.5 200.5,-224.5 90.5,-224.5"/>
<text text-anchor="middle" x="145.5" y="-231.5" font-family="Helvetica,sans-Serif" font-size="10.00">include/parsetree.h</text>
</a>
</g>
</g>
<!-- Node2 -->
<g id="node2" class="node">
<title>Node2</title>
<g id="a_node2"><a xlink:href="conversions_8h.html" target="_top" xlink:title="Header file for conversions.">
<polygon fill="white" stroke="black" points="166.5,-112.5 166.5,-131.5 288.5,-131.5 288.5,-112.5 166.5,-112.5"/>
<text text-anchor="middle" x="227.5" y="-119.5" font-family="Helvetica,sans-Serif" font-size="10.00">include/conversions.h</text>
</a>
</g>
</g>
<!-- Node1&#45;&gt;Node2 -->
<g id="edge1" class="edge">
<title>Node1&#45;&gt;Node2</title>
<path fill="none" stroke="midnightblue" d="M157.97,-216.27C175.7,-192.49 207.53,-149.79 221.1,-131.59"/>
<polygon fill="midnightblue" stroke="midnightblue" points="155.1,-214.26 151.93,-224.37 160.72,-218.44 155.1,-214.26"/>
</g>
<!-- Node3 -->
<g id="node3" class="node">
<title>Node3</title>
<g id="a_node3"><a xlink:href="main_8h.html" target="_top" xlink:title="Header file for main.">
<polygon fill="white" stroke="black" points="0,-56.5 0,-75.5 89,-75.5 89,-56.5 0,-56.5"/>
<text text-anchor="middle" x="44.5" y="-63.5" font-family="Helvetica,sans-Serif" font-size="10.00">include/main.h</text>
</a>
</g>
</g>
<!-- Node1&#45;&gt;Node3 -->
<g id="edge6" class="edge">
<title>Node1&#45;&gt;Node3</title>
<path fill="none" stroke="midnightblue" d="M103.03,-220.71C86.53,-213.77 69.08,-203.32 58.5,-188 33.99,-152.5 39.65,-96.74 42.96,-75.56"/>
<polygon fill="midnightblue" stroke="midnightblue" points="101.99,-224.06 112.58,-224.4 104.52,-217.53 101.99,-224.06"/>
</g>
<!-- Node6 -->
<g id="node6" class="node">
<title>Node6</title>
<g id="a_node6"><a xlink:href="utils_8h.html" target="_top" xlink:title="Utility functions for tasks.">
<polygon fill="white" stroke="black" points="68,-168.5 68,-187.5 153,-187.5 153,-168.5 68,-168.5"/>
<text text-anchor="middle" x="110.5" y="-175.5" font-family="Helvetica,sans-Serif" font-size="10.00">include/utils.h</text>
</a>
</g>
</g>
<!-- Node1&#45;&gt;Node6 -->
<g id="edge7" class="edge">
<title>Node1&#45;&gt;Node6</title>
<path fill="none" stroke="midnightblue" d="M134.2,-215.57C128.18,-206.27 121.03,-195.25 116.17,-187.75"/>
<polygon fill="midnightblue" stroke="midnightblue" points="131.34,-217.6 139.72,-224.08 137.22,-213.79 131.34,-217.6"/>
</g>
<!-- Node8 -->
<g id="node8" class="node">
<title>Node8</title>
<g id="a_node8"><a xlink:href="parsetree_8cpp.html" target="_top" xlink:title="Source file for parse tree.">
<polygon fill="white" stroke="black" points="210,-168.5 210,-187.5 311,-187.5 311,-168.5 210,-168.5"/>
<text text-anchor="middle" x="260.5" y="-175.5" font-family="Helvetica,sans-Serif" font-size="10.00">src/parsetree.cpp</text>
</a>
</g>
</g>
<!-- Node1&#45;&gt;Node8 -->
<g id="edge11" class="edge">
<title>Node1&#45;&gt;Node8</title>
<path fill="none" stroke="midnightblue" d="M172.98,-220.1C194.47,-210.01 223.72,-196.27 242.36,-187.52"/>
<polygon fill="midnightblue" stroke="midnightblue" points="171.29,-217.02 163.72,-224.44 174.26,-223.36 171.29,-217.02"/>
</g>
<!-- Node2&#45;&gt;Node2 -->
<g id="edge2" class="edge">
<title>Node2&#45;&gt;Node2</title>
<path fill="none" stroke="midnightblue" d="M271.29,-132.37C290.25,-133.23 306.5,-129.78 306.5,-122 306.5,-112.87 284.09,-109.69 261.19,-112.47"/>
<polygon fill="midnightblue" stroke="midnightblue" points="271.45,-128.87 261.19,-131.53 270.87,-135.85 271.45,-128.87"/>
</g>
<!-- Node2&#45;&gt;Node3 -->
<g id="edge3" class="edge">
<title>Node2&#45;&gt;Node3</title>
<path fill="none" stroke="midnightblue" d="M188.76,-109.57C154.24,-99.38 104.49,-84.7 73.36,-75.52"/>
<polygon fill="midnightblue" stroke="midnightblue" points="187.92,-112.97 198.5,-112.44 189.9,-106.26 187.92,-112.97"/>
</g>
<!-- Node5 -->
<g id="node5" class="node">
<title>Node5</title>
<g id="a_node5"><a xlink:href="conversions_8cpp.html" target="_top" xlink:title="Source file for conversions.">
<polygon fill="white" stroke="black" points="171,-56.5 171,-75.5 284,-75.5 284,-56.5 171,-56.5"/>
<text text-anchor="middle" x="227.5" y="-63.5" font-family="Helvetica,sans-Serif" font-size="10.00">src/conversions.cpp</text>
</a>
</g>
</g>
<!-- Node2&#45;&gt;Node5 -->
<g id="edge5" class="edge">
<title>Node2&#45;&gt;Node5</title>
<path fill="none" stroke="midnightblue" d="M227.5,-101.8C227.5,-92.91 227.5,-82.78 227.5,-75.75"/>
<polygon fill="midnightblue" stroke="midnightblue" points="224,-102.08 227.5,-112.08 231,-102.08 224,-102.08"/>
</g>
<!-- Node4 -->
<g id="node4" class="node">
<title>Node4</title>
<g id="a_node4"><a xlink:href="main_8cpp.html" target="_top" xlink:title="Source file for main.">
<polygon fill="white" stroke="black" points="5,-0.5 5,-19.5 84,-19.5 84,-0.5 5,-0.5"/>
<text text-anchor="middle" x="44.5" y="-7.5" font-family="Helvetica,sans-Serif" font-size="10.00">src/main.cpp</text>
</a>
</g>
</g>
<!-- Node3&#45;&gt;Node4 -->
<g id="edge4" class="edge">
<title>Node3&#45;&gt;Node4</title>
<path fill="none" stroke="midnightblue" d="M44.5,-45.8C44.5,-36.91 44.5,-26.78 44.5,-19.75"/>
<polygon fill="midnightblue" stroke="midnightblue" points="41,-46.08 44.5,-56.08 48,-46.08 41,-46.08"/>
</g>
<!-- Node6&#45;&gt;Node2 -->
<g id="edge8" class="edge">
<title>Node6&#45;&gt;Node2</title>
<path fill="none" stroke="midnightblue" d="M138.16,-164.23C160.05,-154.13 190,-140.31 209.05,-131.52"/>
<polygon fill="midnightblue" stroke="midnightblue" points="136.65,-161.08 129.04,-168.44 139.59,-167.43 136.65,-161.08"/>
</g>
<!-- Node6&#45;&gt;Node3 -->
<g id="edge9" class="edge">
<title>Node6&#45;&gt;Node3</title>
<path fill="none" stroke="midnightblue" d="M90.77,-161.66C81.65,-153.68 71.36,-143.25 64.5,-132 53.32,-113.65 47.93,-88.54 45.74,-75.55"/>
<polygon fill="midnightblue" stroke="midnightblue" points="88.76,-164.54 98.68,-168.26 93.24,-159.16 88.76,-164.54"/>
</g>
<!-- Node7 -->
<g id="node7" class="node">
<title>Node7</title>
<g id="a_node7"><a xlink:href="utils_8cpp.html" target="_top" xlink:title="Source file for utility functions.">
<polygon fill="white" stroke="black" points="73,-112.5 73,-131.5 148,-131.5 148,-112.5 73,-112.5"/>
<text text-anchor="middle" x="110.5" y="-119.5" font-family="Helvetica,sans-Serif" font-size="10.00">src/utils.cpp</text>
</a>
</g>
</g>
<!-- Node6&#45;&gt;Node7 -->
<g id="edge10" class="edge">
<title>Node6&#45;&gt;Node7</title>
<path fill="none" stroke="midnightblue" d="M110.5,-157.8C110.5,-148.91 110.5,-138.78 110.5,-131.75"/>
<polygon fill="midnightblue" stroke="midnightblue" points="107,-158.08 110.5,-168.08 114,-158.08 107,-158.08"/>
</g>
</g>
</svg>
