<?xml version="1.0" encoding="UTF-8" standalone="no"?>
<!DOCTYPE svg PUBLIC "-//W3C//DTD SVG 1.1//EN"
 "http://www.w3.org/Graphics/SVG/1.1/DTD/svg11.dtd">
<!-- Generated by graphviz version 7.0.0 (0)
 -->
<!-- Title: include/parsetree.h Pages: 1 -->
<svg width="319pt" height="247pt"
 viewBox="0.00 0.00 319.00 247.00" xmlns="http://www.w3.org/2000/svg" xmlns:xlink="http://www.w3.org/1999/xlink">
<g id="graph0" class="graph" transform="scale(1 1) rotate(0) translate(4 243)">
<title>include/parsetree.h</title>
<!-- Node1 -->
<g id="node1" class="node">
<title>Node1</title>
<g id="a_node1"><a xlink:title="Header file for parse tree.">
<polygon fill="#999999" stroke="#666666" points="200.5,-239 90.5,-239 90.5,-220 200.5,-220 200.5,-239"/>
<text text-anchor="middle" x="145.5" y="-227" font-family="Helvetica,sans-Serif" font-size="10.00">include/parsetree.h</text>
</a>
</g>
</g>
<!-- Node2 -->
<g id="node2" class="node">
<title>Node2</title>
<g id="a_node2"><a xlink:href="conversions_8h.html" target="_top" xlink:title="Header file for conversions.">
<polygon fill="white" stroke="#666666" points="288.5,-129 166.5,-129 166.5,-110 288.5,-110 288.5,-129"/>
<text text-anchor="middle" x="227.5" y="-117" font-family="Helvetica,sans-Serif" font-size="10.00">include/conversions.h</text>
</a>
</g>
</g>
<!-- Node1&#45;&gt;Node2 -->
<g id="edge1" class="edge">
<title>Node1&#45;&gt;Node2</title>
<path fill="none" stroke="#63b8ff" d="M159.17,-210.49C176.92,-187.11 207.22,-147.2 220.7,-129.46"/>
<polygon fill="#63b8ff" stroke="#63b8ff" points="156.39,-208.38 153.13,-218.46 161.96,-212.61 156.39,-208.38"/>
</g>
<!-- Node3 -->
<g id="node3" class="node">
<title>Node3</title>
<g id="a_node3"><a xlink:href="main_8h.html" target="_top" xlink:title="Header file for main.">
<polygon fill="white" stroke="#666666" points="89,-74 0,-74 0,-55 89,-55 89,-74"/>
<text text-anchor="middle" x="44.5" y="-62" font-family="Helvetica,sans-Serif" font-size="10.00">include/main.h</text>
</a>
</g>
</g>
<!-- Node1&#45;&gt;Node3 -->
<g id="edge6" class="edge">
<title>Node1&#45;&gt;Node3</title>
<path fill="none" stroke="#63b8ff" d="M101.09,-215.53C85.21,-208.68 68.74,-198.58 58.5,-184 34.33,-149.59 39.69,-95.24 42.94,-74.21"/>
<polygon fill="#63b8ff" stroke="#63b8ff" points="99.37,-218.62 109.95,-219.02 101.93,-212.1 99.37,-218.62"/>
</g>
<!-- Node6 -->
<g id="node6" class="node">
<title>Node6</title>
<g id="a_node6"><a xlink:href="utils_8h.html" target="_top" xlink:title="Utility functions for tasks.">
<polygon fill="white" stroke="#666666" points="153,-184 68,-184 68,-165 153,-165 153,-184"/>
<text text-anchor="middle" x="110.5" y="-172" font-family="Helvetica,sans-Serif" font-size="10.00">include/utils.h</text>
</a>
</g>
</g>
<!-- Node1&#45;&gt;Node6 -->
<g id="edge7" class="edge">
<title>Node1&#45;&gt;Node6</title>
<path fill="none" stroke="#63b8ff" d="M133.52,-210.36C127.75,-201.62 121.07,-191.51 116.41,-184.44"/>
<polygon fill="#63b8ff" stroke="#63b8ff" points="130.46,-212.07 138.89,-218.49 136.3,-208.21 130.46,-212.07"/>
</g>
<!-- Node8 -->
<g id="node8" class="node">
<title>Node8</title>
<g id="a_node8"><a xlink:href="parsetree_8cpp.html" target="_top" xlink:title="Source file for parse tree.">
<polygon fill="white" stroke="#666666" points="311,-184 210,-184 210,-165 311,-165 311,-184"/>
<text text-anchor="middle" x="260.5" y="-172" font-family="Helvetica,sans-Serif" font-size="10.00">src/parsetree.cpp</text>
</a>
</g>
</g>
<!-- Node1&#45;&gt;Node8 -->
<g id="edge11" class="edge">
<title>Node1&#45;&gt;Node8</title>
<path fill="none" stroke="#63b8ff" d="M175.23,-214.8C196.05,-205.2 223.26,-192.66 241.28,-184.36"/>
<polygon fill="#63b8ff" stroke="#63b8ff" points="174,-211.51 166.38,-218.88 176.93,-217.87 174,-211.51"/>
</g>
<!-- Node2&#45;&gt;Node2 -->
<g id="edge2" class="edge">
<title>Node2&#45;&gt;Node2</title>
<path fill="none" stroke="#63b8ff" d="M278.91,-129.79C294.4,-129.52 306.5,-126.09 306.5,-119.5 306.5,-111.39 288.18,-108.06 267.74,-109.52"/>
<polygon fill="#63b8ff" stroke="#63b8ff" points="279.35,-126.31 269.25,-129.52 279.15,-133.3 279.35,-126.31"/>
</g>
<!-- Node2&#45;&gt;Node3 -->
<g id="edge3" class="edge">
<title>Node2&#45;&gt;Node3</title>
<path fill="none" stroke="#63b8ff" d="M185.6,-106.36C152.02,-96.64 105.66,-83.21 75.39,-74.45"/>
<polygon fill="#63b8ff" stroke="#63b8ff" points="184.42,-109.67 195,-109.09 186.37,-102.94 184.42,-109.67"/>
</g>
<!-- Node5 -->
<g id="node5" class="node">
<title>Node5</title>
<g id="a_node5"><a xlink:href="conversions_8cpp.html" target="_top" xlink:title="Source file for conversions.">
<polygon fill="white" stroke="#666666" points="284,-74 171,-74 171,-55 284,-55 284,-74"/>
<text text-anchor="middle" x="227.5" y="-62" font-family="Helvetica,sans-Serif" font-size="10.00">src/conversions.cpp</text>
</a>
</g>
</g>
<!-- Node2&#45;&gt;Node5 -->
<g id="edge5" class="edge">
<title>Node2&#45;&gt;Node5</title>
<path fill="none" stroke="#63b8ff" d="M227.5,-98.35C227.5,-90.1 227.5,-80.97 227.5,-74.44"/>
<polygon fill="#63b8ff" stroke="#63b8ff" points="224,-98.23 227.5,-108.23 231,-98.23 224,-98.23"/>
</g>
<!-- Node4 -->
<g id="node4" class="node">
<title>Node4</title>
<g id="a_node4"><a xlink:href="main_8cpp.html" target="_top" xlink:title="Source file for main.">
<polygon fill="white" stroke="#666666" points="84,-19 5,-19 5,0 84,0 84,-19"/>
<text text-anchor="middle" x="44.5" y="-7" font-family="Helvetica,sans-Serif" font-size="10.00">src/main.cpp</text>
</a>
</g>
</g>
<!-- Node3&#45;&gt;Node4 -->
<g id="edge4" class="edge">
<title>Node3&#45;&gt;Node4</title>
<path fill="none" stroke="#63b8ff" d="M44.5,-43.35C44.5,-35.1 44.5,-25.97 44.5,-19.44"/>
<polygon fill="#63b8ff" stroke="#63b8ff" points="41,-43.23 44.5,-53.23 48,-43.23 41,-43.23"/>
</g>
<!-- Node6&#45;&gt;Node2 -->
<g id="edge8" class="edge">
<title>Node6&#45;&gt;Node2</title>
<path fill="none" stroke="#63b8ff" d="M140.75,-159.8C161.93,-150.2 189.61,-137.66 207.95,-129.36"/>
<polygon fill="#63b8ff" stroke="#63b8ff" points="139.39,-156.57 131.73,-163.88 142.28,-162.95 139.39,-156.57"/>
</g>
<!-- Node6&#45;&gt;Node3 -->
<g id="edge9" class="edge">
<title>Node6&#45;&gt;Node3</title>
<path fill="none" stroke="#63b8ff" d="M89.07,-157.44C80.06,-149.72 70.14,-139.8 63.5,-129 52.64,-111.36 47.66,-87.13 45.66,-74.3"/>
<polygon fill="#63b8ff" stroke="#63b8ff" points="86.81,-160.11 96.79,-163.68 91.22,-154.67 86.81,-160.11"/>
</g>
<!-- Node7 -->
<g id="node7" class="node">
<title>Node7</title>
<g id="a_node7"><a xlink:href="utils_8cpp.html" target="_top" xlink:title="Source file for utility functions.">
<polygon fill="white" stroke="#666666" points="148,-129 73,-129 73,-110 148,-110 148,-129"/>
<text text-anchor="middle" x="110.5" y="-117" font-family="Helvetica,sans-Serif" font-size="10.00">src/utils.cpp</text>
</a>
</g>
</g>
<!-- Node6&#45;&gt;Node7 -->
<g id="edge10" class="edge">
<title>Node6&#45;&gt;Node7</title>
<path fill="none" stroke="#63b8ff" d="M110.5,-153.35C110.5,-145.1 110.5,-135.97 110.5,-129.44"/>
<polygon fill="#63b8ff" stroke="#63b8ff" points="107,-153.23 110.5,-163.23 114,-153.23 107,-153.23"/>
</g>
</g>
</svg>
