<?xml version="1.0" encoding="UTF-8" standalone="no"?>
<!DOCTYPE svg PUBLIC "-//W3C//DTD SVG 1.1//EN"
 "http://www.w3.org/Graphics/SVG/1.1/DTD/svg11.dtd">
<!-- Generated by graphviz version 6.0.2 (0)
 -->
<!-- Title: include/stack.h Pages: 1 -->
<svg width="289pt" height="196pt"
 viewBox="0.00 0.00 288.50 196.00" xmlns="http://www.w3.org/2000/svg" xmlns:xlink="http://www.w3.org/1999/xlink">
<g id="graph0" class="graph" transform="scale(1 1) rotate(0) translate(4 192)">
<title>include/stack.h</title>
<polygon fill="white" stroke="none" points="-4,4 -4,-192 284.5,-192 284.5,4 -4,4"/>
<!-- Node1 -->
<g id="node1" class="node">
<title>Node1</title>
<g id="a_node1"><a xlink:title="Header file for stack.">
<polygon fill="#bfbfbf" stroke="black" points="126.5,-168.5 126.5,-187.5 216.5,-187.5 216.5,-168.5 126.5,-168.5"/>
<text text-anchor="middle" x="171.5" y="-175.5" font-family="Helvetica,sans-Serif" font-size="10.00">include/stack.h</text>
</a>
</g>
</g>
<!-- Node2 -->
<g id="node2" class="node">
<title>Node2</title>
<g id="a_node2"><a xlink:href="conversions_8h.html" target="_top" xlink:title="Header file for conversions.">
<polygon fill="white" stroke="black" points="42.5,-112.5 42.5,-131.5 164.5,-131.5 164.5,-112.5 42.5,-112.5"/>
<text text-anchor="middle" x="103.5" y="-119.5" font-family="Helvetica,sans-Serif" font-size="10.00">include/conversions.h</text>
</a>
</g>
</g>
<!-- Node1&#45;&gt;Node2 -->
<g id="edge1" class="edge">
<title>Node1&#45;&gt;Node2</title>
<path fill="none" stroke="midnightblue" d="M152.74,-162.1C140.5,-152.38 124.94,-140.03 114.62,-131.83"/>
<polygon fill="midnightblue" stroke="midnightblue" points="150.57,-164.85 160.57,-168.32 154.92,-159.36 150.57,-164.85"/>
</g>
<!-- Node6 -->
<g id="node6" class="node">
<title>Node6</title>
<g id="a_node6"><a xlink:href="stack_8cpp.html" target="_top" xlink:title="Source file for stack.">
<polygon fill="white" stroke="black" points="200.5,-112.5 200.5,-131.5 280.5,-131.5 280.5,-112.5 200.5,-112.5"/>
<text text-anchor="middle" x="240.5" y="-119.5" font-family="Helvetica,sans-Serif" font-size="10.00">src/stack.cpp</text>
</a>
</g>
</g>
<!-- Node1&#45;&gt;Node6 -->
<g id="edge6" class="edge">
<title>Node1&#45;&gt;Node6</title>
<path fill="none" stroke="midnightblue" d="M190.54,-162.1C202.96,-152.38 218.74,-140.03 229.21,-131.83"/>
<polygon fill="midnightblue" stroke="midnightblue" points="188.3,-159.4 182.59,-168.32 192.62,-164.92 188.3,-159.4"/>
</g>
<!-- Node2&#45;&gt;Node2 -->
<g id="edge2" class="edge">
<title>Node2&#45;&gt;Node2</title>
<path fill="none" stroke="midnightblue" d="M147.29,-132.37C166.25,-133.23 182.5,-129.78 182.5,-122 182.5,-112.87 160.09,-109.69 137.19,-112.47"/>
<polygon fill="midnightblue" stroke="midnightblue" points="147.45,-128.87 137.19,-131.53 146.87,-135.85 147.45,-128.87"/>
</g>
<!-- Node3 -->
<g id="node3" class="node">
<title>Node3</title>
<g id="a_node3"><a xlink:href="main_8h.html" target="_top" xlink:title="Header file for main.">
<polygon fill="white" stroke="black" points="0,-56.5 0,-75.5 89,-75.5 89,-56.5 0,-56.5"/>
<text text-anchor="middle" x="44.5" y="-63.5" font-family="Helvetica,sans-Serif" font-size="10.00">include/main.h</text>
</a>
</g>
</g>
<!-- Node2&#45;&gt;Node3 -->
<g id="edge3" class="edge">
<title>Node2&#45;&gt;Node3</title>
<path fill="none" stroke="midnightblue" d="M86.61,-105.54C76.09,-95.91 62.93,-83.87 54.15,-75.83"/>
<polygon fill="midnightblue" stroke="midnightblue" points="84.28,-108.15 94.02,-112.32 89.01,-102.99 84.28,-108.15"/>
</g>
<!-- Node5 -->
<g id="node5" class="node">
<title>Node5</title>
<g id="a_node5"><a xlink:href="conversions_8cpp.html" target="_top" xlink:title="Source file for conversions.">
<polygon fill="white" stroke="black" points="107,-56.5 107,-75.5 220,-75.5 220,-56.5 107,-56.5"/>
<text text-anchor="middle" x="163.5" y="-63.5" font-family="Helvetica,sans-Serif" font-size="10.00">src/conversions.cpp</text>
</a>
</g>
</g>
<!-- Node2&#45;&gt;Node5 -->
<g id="edge5" class="edge">
<title>Node2&#45;&gt;Node5</title>
<path fill="none" stroke="midnightblue" d="M120.68,-105.54C131.38,-95.91 144.76,-83.87 153.68,-75.83"/>
<polygon fill="midnightblue" stroke="midnightblue" points="118.23,-103.03 113.14,-112.32 122.91,-108.24 118.23,-103.03"/>
</g>
<!-- Node4 -->
<g id="node4" class="node">
<title>Node4</title>
<g id="a_node4"><a xlink:href="main_8cpp.html" target="_top" xlink:title="Source file for main.">
<polygon fill="white" stroke="black" points="5,-0.5 5,-19.5 84,-19.5 84,-0.5 5,-0.5"/>
<text text-anchor="middle" x="44.5" y="-7.5" font-family="Helvetica,sans-Serif" font-size="10.00">src/main.cpp</text>
</a>
</g>
</g>
<!-- Node3&#45;&gt;Node4 -->
<g id="edge4" class="edge">
<title>Node3&#45;&gt;Node4</title>
<path fill="none" stroke="midnightblue" d="M44.5,-45.8C44.5,-36.91 44.5,-26.78 44.5,-19.75"/>
<polygon fill="midnightblue" stroke="midnightblue" points="41,-46.08 44.5,-56.08 48,-46.08 41,-46.08"/>
</g>
</g>
</svg>
