<?xml version="1.0" encoding="UTF-8" standalone="no"?>
<!DOCTYPE svg PUBLIC "-//W3C//DTD SVG 1.1//EN"
 "http://www.w3.org/Graphics/SVG/1.1/DTD/svg11.dtd">
<!-- Generated by graphviz version 6.0.2 (0)
 -->
<!-- Title: include/stack.h Pages: 1 -->
<svg width="299pt" height="140pt"
 viewBox="0.00 0.00 298.50 140.00" xmlns="http://www.w3.org/2000/svg" xmlns:xlink="http://www.w3.org/1999/xlink">
<g id="graph0" class="graph" transform="scale(1 1) rotate(0) translate(4 136)">
<title>include/stack.h</title>
<polygon fill="white" stroke="none" points="-4,4 -4,-136 294.5,-136 294.5,4 -4,4"/>
<!-- Node1 -->
<g id="node1" class="node">
<title>Node1</title>
<g id="a_node1"><a xlink:title="Header file for stack.">
<polygon fill="#bfbfbf" stroke="black" points="136.5,-112.5 136.5,-131.5 226.5,-131.5 226.5,-112.5 136.5,-112.5"/>
<text text-anchor="middle" x="181.5" y="-119.5" font-family="Helvetica,sans-Serif" font-size="10.00">include/stack.h</text>
</a>
</g>
</g>
<!-- Node2 -->
<g id="node2" class="node">
<title>Node2</title>
<g id="a_node2"><a xlink:href="conversions_8h.html" target="_top" xlink:title="Header file for conversions.">
<polygon fill="white" stroke="black" points="52.5,-56.5 52.5,-75.5 174.5,-75.5 174.5,-56.5 52.5,-56.5"/>
<text text-anchor="middle" x="113.5" y="-63.5" font-family="Helvetica,sans-Serif" font-size="10.00">include/conversions.h</text>
</a>
</g>
</g>
<!-- Node1&#45;&gt;Node2 -->
<g id="edge1" class="edge">
<title>Node1&#45;&gt;Node2</title>
<path fill="none" stroke="midnightblue" d="M162.74,-106.1C150.5,-96.38 134.94,-84.03 124.62,-75.83"/>
<polygon fill="midnightblue" stroke="midnightblue" points="160.57,-108.85 170.57,-112.32 164.92,-103.36 160.57,-108.85"/>
</g>
<!-- Node5 -->
<g id="node5" class="node">
<title>Node5</title>
<g id="a_node5"><a xlink:href="stack_8cpp.html" target="_top" xlink:title="Source file for stack.">
<polygon fill="white" stroke="black" points="210.5,-56.5 210.5,-75.5 290.5,-75.5 290.5,-56.5 210.5,-56.5"/>
<text text-anchor="middle" x="250.5" y="-63.5" font-family="Helvetica,sans-Serif" font-size="10.00">src/stack.cpp</text>
</a>
</g>
</g>
<!-- Node1&#45;&gt;Node5 -->
<g id="edge5" class="edge">
<title>Node1&#45;&gt;Node5</title>
<path fill="none" stroke="midnightblue" d="M200.54,-106.1C212.96,-96.38 228.74,-84.03 239.21,-75.83"/>
<polygon fill="midnightblue" stroke="midnightblue" points="198.3,-103.4 192.59,-112.32 202.62,-108.92 198.3,-103.4"/>
</g>
<!-- Node2&#45;&gt;Node2 -->
<g id="edge2" class="edge">
<title>Node2&#45;&gt;Node2</title>
<path fill="none" stroke="midnightblue" d="M157.29,-76.37C176.25,-77.23 192.5,-73.78 192.5,-66 192.5,-56.87 170.09,-53.69 147.19,-56.47"/>
<polygon fill="midnightblue" stroke="midnightblue" points="157.45,-72.87 147.19,-75.53 156.87,-79.85 157.45,-72.87"/>
</g>
<!-- Node3 -->
<g id="node3" class="node">
<title>Node3</title>
<g id="a_node3"><a xlink:href="conversions_8cpp.html" target="_top" xlink:title="Source file for conversions.">
<polygon fill="white" stroke="black" points="0,-0.5 0,-19.5 113,-19.5 113,-0.5 0,-0.5"/>
<text text-anchor="middle" x="56.5" y="-7.5" font-family="Helvetica,sans-Serif" font-size="10.00">src/conversions.cpp</text>
</a>
</g>
</g>
<!-- Node2&#45;&gt;Node3 -->
<g id="edge3" class="edge">
<title>Node2&#45;&gt;Node3</title>
<path fill="none" stroke="midnightblue" d="M96.88,-49.25C86.77,-39.67 74.22,-27.79 65.82,-19.83"/>
<polygon fill="midnightblue" stroke="midnightblue" points="94.68,-51.99 104.34,-56.32 99.49,-46.91 94.68,-51.99"/>
</g>
<!-- Node4 -->
<g id="node4" class="node">
<title>Node4</title>
<g id="a_node4"><a xlink:href="main_8cpp.html" target="_top" xlink:title="Source file for main.">
<polygon fill="white" stroke="black" points="131,-0.5 131,-19.5 210,-19.5 210,-0.5 131,-0.5"/>
<text text-anchor="middle" x="170.5" y="-7.5" font-family="Helvetica,sans-Serif" font-size="10.00">src/main.cpp</text>
</a>
</g>
</g>
<!-- Node2&#45;&gt;Node4 -->
<g id="edge4" class="edge">
<title>Node2&#45;&gt;Node4</title>
<path fill="none" stroke="midnightblue" d="M130.12,-49.25C140.23,-39.67 152.78,-27.79 161.18,-19.83"/>
<polygon fill="midnightblue" stroke="midnightblue" points="127.51,-46.91 122.66,-56.32 132.32,-51.99 127.51,-46.91"/>
</g>
</g>
</svg>
