<?xml version="1.0" encoding="UTF-8" standalone="no"?>
<!DOCTYPE svg PUBLIC "-//W3C//DTD SVG 1.1//EN"
 "http://www.w3.org/Graphics/SVG/1.1/DTD/svg11.dtd">
<!-- Generated by graphviz version 7.0.0 (0)
 -->
<!-- Title: src/stack.cpp Pages: 1 -->
<svg width="107pt" height="137pt"
 viewBox="0.00 0.00 107.00 137.00" xmlns="http://www.w3.org/2000/svg" xmlns:xlink="http://www.w3.org/1999/xlink">
<g id="graph0" class="graph" transform="scale(1 1) rotate(0) translate(4 133)">
<title>src/stack.cpp</title>
<!-- Node1 -->
<g id="node1" class="node">
<title>Node1</title>
<g id="a_node1"><a xlink:title="Source file for stack.">
<polygon fill="#999999" stroke="#666666" points="89.5,-129 9.5,-129 9.5,-110 89.5,-110 89.5,-129"/>
<text text-anchor="middle" x="49.5" y="-117" font-family="Helvetica,sans-Serif" font-size="10.00">src/stack.cpp</text>
</a>
</g>
</g>
<!-- Node2 -->
<g id="node2" class="node">
<title>Node2</title>
<g id="a_node2"><a xlink:href="stack_8h.html" target="_top" xlink:title="Header file for stack.">
<polygon fill="white" stroke="#666666" points="99,-74 0,-74 0,-55 99,-55 99,-74"/>
<text text-anchor="middle" x="49.5" y="-62" font-family="Helvetica,sans-Serif" font-size="10.00">../include/stack.h</text>
</a>
</g>
</g>
<!-- Node1&#45;&gt;Node2 -->
<g id="edge1" class="edge">
<title>Node1&#45;&gt;Node2</title>
<path fill="none" stroke="#63b8ff" d="M49.5,-109.75C49.5,-103.27 49.5,-94.16 49.5,-85.9"/>
<polygon fill="#63b8ff" stroke="#63b8ff" points="53,-85.96 49.5,-75.96 46,-85.96 53,-85.96"/>
</g>
<!-- Node3 -->
<g id="node3" class="node">
<title>Node3</title>
<g id="a_node3"><a xlink:title=" ">
<polygon fill="#e0e0e0" stroke="#999999" points="79.5,-19 19.5,-19 19.5,0 79.5,0 79.5,-19"/>
<text text-anchor="middle" x="49.5" y="-7" font-family="Helvetica,sans-Serif" font-size="10.00">iostream</text>
</a>
</g>
</g>
<!-- Node2&#45;&gt;Node3 -->
<g id="edge2" class="edge">
<title>Node2&#45;&gt;Node3</title>
<path fill="none" stroke="#63b8ff" d="M49.5,-54.75C49.5,-48.27 49.5,-39.16 49.5,-30.9"/>
<polygon fill="#63b8ff" stroke="#63b8ff" points="53,-30.96 49.5,-20.96 46,-30.96 53,-30.96"/>
</g>
</g>
</svg>
