<?xml version="1.0" encoding="UTF-8" standalone="no"?>
<!DOCTYPE svg PUBLIC "-//W3C//DTD SVG 1.1//EN"
 "http://www.w3.org/Graphics/SVG/1.1/DTD/svg11.dtd">
<!-- Generated by graphviz version 6.0.2 (0)
 -->
<!-- Title: printBT Pages: 1 -->
<svg width="233pt" height="104pt"
 viewBox="0.00 0.00 233.00 104.00" xmlns="http://www.w3.org/2000/svg" xmlns:xlink="http://www.w3.org/1999/xlink">
<g id="graph0" class="graph" transform="scale(1 1) rotate(0) translate(4 100)">
<title>printBT</title>
<polygon fill="white" stroke="none" points="-4,4 -4,-100 229,-100 229,4 -4,4"/>
<!-- Node1 -->
<g id="node1" class="node">
<title>Node1</title>
<g id="a_node1"><a xlink:title="Method which prints the binary tree.">
<polygon fill="#bfbfbf" stroke="black" points="0,-38.5 0,-57.5 52,-57.5 52,-38.5 0,-38.5"/>
<text text-anchor="middle" x="26" y="-45.5" font-family="Helvetica,sans-Serif" font-size="10.00">printBT</text>
</a>
</g>
</g>
<!-- Node1&#45;&gt;Node1 -->
<g id="edge4" class="edge">
<title>Node1&#45;&gt;Node1</title>
<path fill="none" stroke="midnightblue" d="M5.89,-57.76C-3.9,-66.57 2.81,-76 26,-76 40.86,-76 48.95,-72.13 50.27,-67.03"/>
<polygon fill="midnightblue" stroke="midnightblue" points="53.4,-65.45 46.11,-57.76 47.01,-68.31 53.4,-65.45"/>
</g>
<!-- Node2 -->
<g id="node2" class="node">
<title>Node2</title>
<g id="a_node2"><a xlink:href="classParseTree.html#ae1cb6829644917b9437f28a08b1e60a1" target="_top" xlink:title="Get the Left node when a node is given.">
<polygon fill="white" stroke="black" points="91.5,-76.5 91.5,-95.5 221.5,-95.5 221.5,-76.5 91.5,-76.5"/>
<text text-anchor="middle" x="156.5" y="-83.5" font-family="Helvetica,sans-Serif" font-size="10.00">ParseTree::getLeftNode</text>
</a>
</g>
</g>
<!-- Node1&#45;&gt;Node2 -->
<g id="edge1" class="edge">
<title>Node1&#45;&gt;Node2</title>
<path fill="none" stroke="midnightblue" d="M52.18,-56.01C63.16,-59.46 76.2,-63.5 88,-67 95.39,-69.19 103.24,-71.46 110.89,-73.63"/>
<polygon fill="midnightblue" stroke="midnightblue" points="110.19,-77.07 120.76,-76.42 112.09,-70.33 110.19,-77.07"/>
</g>
<!-- Node3 -->
<g id="node3" class="node">
<title>Node3</title>
<g id="a_node3"><a xlink:href="classParseTree.html#a101193b71bc7e02d051dd73e6f079aa1" target="_top" xlink:title="Get the Right node when a node is given.">
<polygon fill="white" stroke="black" points="88,-38.5 88,-57.5 225,-57.5 225,-38.5 88,-38.5"/>
<text text-anchor="middle" x="156.5" y="-45.5" font-family="Helvetica,sans-Serif" font-size="10.00">ParseTree::getRightNode</text>
</a>
</g>
</g>
<!-- Node1&#45;&gt;Node3 -->
<g id="edge2" class="edge">
<title>Node1&#45;&gt;Node3</title>
<path fill="none" stroke="midnightblue" d="M52.08,-48C59.7,-48 68.5,-48 77.69,-48"/>
<polygon fill="midnightblue" stroke="midnightblue" points="77.78,-51.5 87.78,-48 77.78,-44.5 77.78,-51.5"/>
</g>
<!-- Node4 -->
<g id="node4" class="node">
<title>Node4</title>
<g id="a_node4"><a xlink:href="classParseTree.html#a816af779bb7d32b6ab6e513cf69648a4" target="_top" xlink:title="Get the value of the node.">
<polygon fill="white" stroke="black" points="100,-0.5 100,-19.5 213,-19.5 213,-0.5 100,-0.5"/>
<text text-anchor="middle" x="156.5" y="-7.5" font-family="Helvetica,sans-Serif" font-size="10.00">ParseTree::getValue</text>
</a>
</g>
</g>
<!-- Node1&#45;&gt;Node4 -->
<g id="edge3" class="edge">
<title>Node1&#45;&gt;Node4</title>
<path fill="none" stroke="midnightblue" d="M52.18,-39.99C63.16,-36.54 76.2,-32.5 88,-29 95.39,-26.81 103.24,-24.54 110.89,-22.37"/>
<polygon fill="midnightblue" stroke="midnightblue" points="112.09,-25.67 120.76,-19.58 110.19,-18.93 112.09,-25.67"/>
</g>
</g>
</svg>
