<?xml version="1.0" encoding="UTF-8" standalone="no"?>
<!DOCTYPE svg PUBLIC "-//W3C//DTD SVG 1.1//EN"
 "http://www.w3.org/Graphics/SVG/1.1/DTD/svg11.dtd">
<!-- Generated by graphviz version 6.0.2 (0)
 -->
<!-- Title: evaluateTreeTruthValue Pages: 1 -->
<svg width="459pt" height="104pt"
 viewBox="0.00 0.00 459.00 104.00" xmlns="http://www.w3.org/2000/svg" xmlns:xlink="http://www.w3.org/1999/xlink">
<g id="graph0" class="graph" transform="scale(1 1) rotate(0) translate(4 100)">
<title>evaluateTreeTruthValue</title>
<polygon fill="white" stroke="none" points="-4,4 -4,-100 455,-100 455,4 -4,4"/>
<!-- Node1 -->
<g id="node1" class="node">
<title>Node1</title>
<g id="a_node1"><a xlink:title="Evaluates the truth value of a given parse tree.">
<polygon fill="#bfbfbf" stroke="black" points="0,-38.5 0,-57.5 132,-57.5 132,-38.5 0,-38.5"/>
<text text-anchor="middle" x="66" y="-45.5" font-family="Helvetica,sans-Serif" font-size="10.00">evaluateTreeTruthValue</text>
</a>
</g>
</g>
<!-- Node2 -->
<g id="node2" class="node">
<title>Node2</title>
<g id="a_node2"><a xlink:href="tree_8cpp.html#aa0c28b938620dfeec544e2f97d6d04ea" target="_top" xlink:title="Get the truth value of a given node.">
<polygon fill="white" stroke="black" points="168,-38.5 168,-57.5 278,-57.5 278,-38.5 168,-38.5"/>
<text text-anchor="middle" x="223" y="-45.5" font-family="Helvetica,sans-Serif" font-size="10.00">getNodeTruthValue</text>
</a>
</g>
</g>
<!-- Node1&#45;&gt;Node2 -->
<g id="edge1" class="edge">
<title>Node1&#45;&gt;Node2</title>
<path fill="none" stroke="midnightblue" d="M132.28,-48C140.64,-48 149.18,-48 157.52,-48"/>
<polygon fill="midnightblue" stroke="midnightblue" points="157.57,-51.5 167.57,-48 157.57,-44.5 157.57,-51.5"/>
</g>
<!-- Node2&#45;&gt;Node2 -->
<g id="edge3" class="edge">
<title>Node2&#45;&gt;Node2</title>
<path fill="none" stroke="midnightblue" d="M198.8,-57.76C187.03,-66.57 195.1,-76 223,-76 241.31,-76 251.08,-71.94 252.31,-66.65"/>
<polygon fill="midnightblue" stroke="midnightblue" points="255.21,-64.69 247.2,-57.76 249.14,-68.17 255.21,-64.69"/>
</g>
<!-- Node3 -->
<g id="node3" class="node">
<title>Node3</title>
<g id="a_node3"><a xlink:href="classParseTree.html#ae1cb6829644917b9437f28a08b1e60a1" target="_top" xlink:title="Get the Left node when a node is given.">
<polygon fill="white" stroke="black" points="317.5,-76.5 317.5,-95.5 447.5,-95.5 447.5,-76.5 317.5,-76.5"/>
<text text-anchor="middle" x="382.5" y="-83.5" font-family="Helvetica,sans-Serif" font-size="10.00">ParseTree::getLeftNode</text>
</a>
</g>
</g>
<!-- Node2&#45;&gt;Node3 -->
<g id="edge2" class="edge">
<title>Node2&#45;&gt;Node3</title>
<path fill="none" stroke="midnightblue" d="M263.74,-57.59C284.53,-62.6 310.16,-68.79 332.2,-74.11"/>
<polygon fill="midnightblue" stroke="midnightblue" points="331.5,-77.54 342.04,-76.48 333.14,-70.73 331.5,-77.54"/>
</g>
<!-- Node4 -->
<g id="node4" class="node">
<title>Node4</title>
<g id="a_node4"><a xlink:href="classParseTree.html#a101193b71bc7e02d051dd73e6f079aa1" target="_top" xlink:title="Get the Right node when a node is given.">
<polygon fill="white" stroke="black" points="314,-38.5 314,-57.5 451,-57.5 451,-38.5 314,-38.5"/>
<text text-anchor="middle" x="382.5" y="-45.5" font-family="Helvetica,sans-Serif" font-size="10.00">ParseTree::getRightNode</text>
</a>
</g>
</g>
<!-- Node2&#45;&gt;Node4 -->
<g id="edge4" class="edge">
<title>Node2&#45;&gt;Node4</title>
<path fill="none" stroke="midnightblue" d="M278.2,-48C286.45,-48 295.1,-48 303.74,-48"/>
<polygon fill="midnightblue" stroke="midnightblue" points="303.84,-51.5 313.84,-48 303.84,-44.5 303.84,-51.5"/>
</g>
<!-- Node5 -->
<g id="node5" class="node">
<title>Node5</title>
<g id="a_node5"><a xlink:href="classParseTree.html#a816af779bb7d32b6ab6e513cf69648a4" target="_top" xlink:title="Get the value of the node.">
<polygon fill="white" stroke="black" points="326,-0.5 326,-19.5 439,-19.5 439,-0.5 326,-0.5"/>
<text text-anchor="middle" x="382.5" y="-7.5" font-family="Helvetica,sans-Serif" font-size="10.00">ParseTree::getValue</text>
</a>
</g>
</g>
<!-- Node2&#45;&gt;Node5 -->
<g id="edge5" class="edge">
<title>Node2&#45;&gt;Node5</title>
<path fill="none" stroke="midnightblue" d="M263.74,-38.41C284.53,-33.4 310.16,-27.21 332.2,-21.89"/>
<polygon fill="midnightblue" stroke="midnightblue" points="333.14,-25.27 342.04,-19.52 331.5,-18.46 333.14,-25.27"/>
</g>
</g>
</svg>
