<?xml version="1.0" encoding="UTF-8" standalone="no"?>
<!DOCTYPE svg PUBLIC "-//W3C//DTD SVG 1.1//EN"
 "http://www.w3.org/Graphics/SVG/1.1/DTD/svg11.dtd">
<!-- Generated by graphviz version 6.0.2 (0)
 -->
<!-- Title: prefixToParseTree Pages: 1 -->
<svg width="414pt" height="66pt"
 viewBox="0.00 0.00 414.00 66.00" xmlns="http://www.w3.org/2000/svg" xmlns:xlink="http://www.w3.org/1999/xlink">
<g id="graph0" class="graph" transform="scale(1 1) rotate(0) translate(4 62)">
<title>prefixToParseTree</title>
<polygon fill="white" stroke="none" points="-4,4 -4,-62 410,-62 410,4 -4,4"/>
<!-- Node1 -->
<g id="node1" class="node">
<title>Node1</title>
<g id="a_node1"><a xlink:title="Takes in a prefix formula and converts it into a rooted binary parse tree.">
<polygon fill="#bfbfbf" stroke="black" points="0,-19.5 0,-38.5 103,-38.5 103,-19.5 0,-19.5"/>
<text text-anchor="middle" x="51.5" y="-26.5" font-family="Helvetica,sans-Serif" font-size="10.00">prefixToParseTree</text>
</a>
</g>
</g>
<!-- Node2 -->
<g id="node2" class="node">
<title>Node2</title>
<g id="a_node2"><a xlink:href="tree_8cpp.html#ac3a144eab5f857eeb3aabaf201b57796" target="_top" xlink:title="Takes in start and end pointers and generates a binary tree recursively.">
<polygon fill="white" stroke="black" points="139,-19.5 139,-38.5 234,-38.5 234,-19.5 139,-19.5"/>
<text text-anchor="middle" x="186.5" y="-26.5" font-family="Helvetica,sans-Serif" font-size="10.00">createParseTree</text>
</a>
</g>
</g>
<!-- Node1&#45;&gt;Node2 -->
<g id="edge1" class="edge">
<title>Node1&#45;&gt;Node2</title>
<path fill="none" stroke="midnightblue" d="M103.16,-29C111.51,-29 120.22,-29 128.7,-29"/>
<polygon fill="midnightblue" stroke="midnightblue" points="128.91,-32.5 138.91,-29 128.91,-25.5 128.91,-32.5"/>
</g>
<!-- Node2&#45;&gt;Node2 -->
<g id="edge2" class="edge">
<title>Node2&#45;&gt;Node2</title>
<path fill="none" stroke="midnightblue" d="M165.69,-38.76C155.57,-47.57 162.51,-57 186.5,-57 201.87,-57 210.24,-53.13 211.61,-48.03"/>
<polygon fill="midnightblue" stroke="midnightblue" points="214.69,-46.35 207.31,-38.76 208.34,-49.3 214.69,-46.35"/>
</g>
<!-- Node3 -->
<g id="node3" class="node">
<title>Node3</title>
<g id="a_node3"><a xlink:href="classParseTree.html#adf597d2ebd88e8275d7ac78b09d68ce4" target="_top" xlink:title="Set the left node of a given node.">
<polygon fill="white" stroke="black" points="273.5,-38.5 273.5,-57.5 402.5,-57.5 402.5,-38.5 273.5,-38.5"/>
<text text-anchor="middle" x="338" y="-45.5" font-family="Helvetica,sans-Serif" font-size="10.00">ParseTree::setLeftNode</text>
</a>
</g>
</g>
<!-- Node2&#45;&gt;Node3 -->
<g id="edge3" class="edge">
<title>Node2&#45;&gt;Node3</title>
<path fill="none" stroke="midnightblue" d="M234.39,-34.96C243.54,-36.12 253.35,-37.37 263.13,-38.61"/>
<polygon fill="midnightblue" stroke="midnightblue" points="262.93,-42.11 273.29,-39.9 263.81,-35.17 262.93,-42.11"/>
</g>
<!-- Node4 -->
<g id="node4" class="node">
<title>Node4</title>
<g id="a_node4"><a xlink:href="classParseTree.html#a0effbd955454ab1beec9940cd6631dba" target="_top" xlink:title="Set the right node of a given node.">
<polygon fill="white" stroke="black" points="270,-0.5 270,-19.5 406,-19.5 406,-0.5 270,-0.5"/>
<text text-anchor="middle" x="338" y="-7.5" font-family="Helvetica,sans-Serif" font-size="10.00">ParseTree::setRightNode</text>
</a>
</g>
</g>
<!-- Node2&#45;&gt;Node4 -->
<g id="edge4" class="edge">
<title>Node2&#45;&gt;Node4</title>
<path fill="none" stroke="midnightblue" d="M234.39,-23.04C242.46,-22.02 251.02,-20.93 259.64,-19.83"/>
<polygon fill="midnightblue" stroke="midnightblue" points="260.26,-23.28 269.74,-18.55 259.38,-16.34 260.26,-23.28"/>
</g>
</g>
</svg>
