<?xml version="1.0" encoding="UTF-8" standalone="no"?>
<!DOCTYPE svg PUBLIC "-//W3C//DTD SVG 1.1//EN"
 "http://www.w3.org/Graphics/SVG/1.1/DTD/svg11.dtd">
<!-- Generated by graphviz version 6.0.2 (0)
 -->
<!-- Title: printBinaryParseTree Pages: 1 -->
<svg width="203pt" height="46pt"
 viewBox="0.00 0.00 203.00 46.00" xmlns="http://www.w3.org/2000/svg" xmlns:xlink="http://www.w3.org/1999/xlink">
<g id="graph0" class="graph" transform="scale(1 1) rotate(0) translate(4 42)">
<title>printBinaryParseTree</title>
<polygon fill="white" stroke="none" points="-4,4 -4,-42 199,-42 199,4 -4,4"/>
<!-- Node1 -->
<g id="node1" class="node">
<title>Node1</title>
<g id="a_node1"><a xlink:title="Prints the binary tree.">
<polygon fill="#bfbfbf" stroke="black" points="77,-0.5 77,-19.5 195,-19.5 195,-0.5 77,-0.5"/>
<text text-anchor="middle" x="136" y="-7.5" font-family="Helvetica,sans-Serif" font-size="10.00">printBinaryParseTree</text>
</a>
</g>
</g>
<!-- Node1&#45;&gt;Node1 -->
<g id="edge2" class="edge">
<title>Node1&#45;&gt;Node1</title>
<path fill="none" stroke="midnightblue" d="M157.39,-29.4C155.96,-34.31 148.83,-38 136,-38 115.47,-38 109.54,-28.57 118.2,-19.76"/>
<polygon fill="midnightblue" stroke="midnightblue" points="160.57,-27.91 153.8,-19.76 154.01,-30.35 160.57,-27.91"/>
</g>
<!-- Node2 -->
<g id="node2" class="node">
<title>Node2</title>
<g id="a_node2"><a xlink:href="main_8cpp.html#ae66f6b31b5ad750f1fe042a706a4e3d4" target="_top" xlink:title="Where the tasks are run.">
<polygon fill="white" stroke="black" points="0,-0.5 0,-19.5 41,-19.5 41,-0.5 0,-0.5"/>
<text text-anchor="middle" x="20.5" y="-7.5" font-family="Helvetica,sans-Serif" font-size="10.00">main</text>
</a>
</g>
</g>
<!-- Node1&#45;&gt;Node2 -->
<g id="edge1" class="edge">
<title>Node1&#45;&gt;Node2</title>
<path fill="none" stroke="midnightblue" d="M66.73,-10C57.45,-10 48.6,-10 41.23,-10"/>
<polygon fill="midnightblue" stroke="midnightblue" points="66.92,-13.5 76.92,-10 66.92,-6.5 66.92,-13.5"/>
</g>
</g>
</svg>
