<?xml version="1.0" encoding="UTF-8" standalone="no"?>
<!DOCTYPE svg PUBLIC "-//W3C//DTD SVG 1.1//EN"
 "http://www.w3.org/Graphics/SVG/1.1/DTD/svg11.dtd">
<!-- Generated by graphviz version 6.0.2 (0)
 -->
<!-- Title: createParseTree Pages: 1 -->
<svg width="275pt" height="66pt"
 viewBox="0.00 0.00 275.00 66.00" xmlns="http://www.w3.org/2000/svg" xmlns:xlink="http://www.w3.org/1999/xlink">
<g id="graph0" class="graph" transform="scale(1 1) rotate(0) translate(4 62)">
<title>createParseTree</title>
<polygon fill="white" stroke="none" points="-4,4 -4,-62 271,-62 271,4 -4,4"/>
<!-- Node1 -->
<g id="node1" class="node">
<title>Node1</title>
<g id="a_node1"><a xlink:title="Takes in start and end pointers and generates a binary tree recursively.">
<polygon fill="#bfbfbf" stroke="black" points="0,-19.5 0,-38.5 95,-38.5 95,-19.5 0,-19.5"/>
<text text-anchor="middle" x="47.5" y="-26.5" font-family="Helvetica,sans-Serif" font-size="10.00">createParseTree</text>
</a>
</g>
</g>
<!-- Node1&#45;&gt;Node1 -->
<g id="edge1" class="edge">
<title>Node1&#45;&gt;Node1</title>
<path fill="none" stroke="midnightblue" d="M24.15,-38.76C12.79,-47.57 20.57,-57 47.5,-57 65.17,-57 74.6,-52.94 75.78,-47.65"/>
<polygon fill="midnightblue" stroke="midnightblue" points="78.76,-45.81 70.85,-38.76 72.63,-49.2 78.76,-45.81"/>
</g>
<!-- Node2 -->
<g id="node2" class="node">
<title>Node2</title>
<g id="a_node2"><a xlink:href="classParseTree.html#adf597d2ebd88e8275d7ac78b09d68ce4" target="_top" xlink:title="Set the left node of a node to the given node.">
<polygon fill="white" stroke="black" points="134.5,-38.5 134.5,-57.5 263.5,-57.5 263.5,-38.5 134.5,-38.5"/>
<text text-anchor="middle" x="199" y="-45.5" font-family="Helvetica,sans-Serif" font-size="10.00">ParseTree::setLeftNode</text>
</a>
</g>
</g>
<!-- Node1&#45;&gt;Node2 -->
<g id="edge2" class="edge">
<title>Node1&#45;&gt;Node2</title>
<path fill="none" stroke="midnightblue" d="M95.39,-34.96C104.54,-36.12 114.35,-37.37 124.13,-38.61"/>
<polygon fill="midnightblue" stroke="midnightblue" points="123.93,-42.11 134.29,-39.9 124.81,-35.17 123.93,-42.11"/>
</g>
<!-- Node3 -->
<g id="node3" class="node">
<title>Node3</title>
<g id="a_node3"><a xlink:href="classParseTree.html#a0effbd955454ab1beec9940cd6631dba" target="_top" xlink:title="Set the right node of a node to the given node.">
<polygon fill="white" stroke="black" points="131,-0.5 131,-19.5 267,-19.5 267,-0.5 131,-0.5"/>
<text text-anchor="middle" x="199" y="-7.5" font-family="Helvetica,sans-Serif" font-size="10.00">ParseTree::setRightNode</text>
</a>
</g>
</g>
<!-- Node1&#45;&gt;Node3 -->
<g id="edge3" class="edge">
<title>Node1&#45;&gt;Node3</title>
<path fill="none" stroke="midnightblue" d="M95.39,-23.04C103.46,-22.02 112.02,-20.93 120.64,-19.83"/>
<polygon fill="midnightblue" stroke="midnightblue" points="121.26,-23.28 130.74,-18.55 120.38,-16.34 121.26,-23.28"/>
</g>
</g>
</svg>
