<?xml version="1.0" encoding="UTF-8" standalone="no"?>
<!DOCTYPE svg PUBLIC "-//W3C//DTD SVG 1.1//EN"
 "http://www.w3.org/Graphics/SVG/1.1/DTD/svg11.dtd">
<!-- Generated by graphviz version 6.0.2 (0)
 -->
<!-- Title: inOrderTraversal Pages: 1 -->
<svg width="279pt" height="104pt"
 viewBox="0.00 0.00 279.00 104.00" xmlns="http://www.w3.org/2000/svg" xmlns:xlink="http://www.w3.org/1999/xlink">
<g id="graph0" class="graph" transform="scale(1 1) rotate(0) translate(4 100)">
<title>inOrderTraversal</title>
<polygon fill="white" stroke="none" points="-4,4 -4,-100 275,-100 275,4 -4,4"/>
<!-- Node1 -->
<g id="node1" class="node">
<title>Node1</title>
<g id="a_node1"><a xlink:title="Utility method which traverses the tree in in&#45;order manner.">
<polygon fill="#bfbfbf" stroke="black" points="0,-38.5 0,-57.5 98,-57.5 98,-38.5 0,-38.5"/>
<text text-anchor="middle" x="49" y="-45.5" font-family="Helvetica,sans-Serif" font-size="10.00">inOrderTraversal</text>
</a>
</g>
</g>
<!-- Node1&#45;&gt;Node1 -->
<g id="edge4" class="edge">
<title>Node1&#45;&gt;Node1</title>
<path fill="none" stroke="midnightblue" d="M25.34,-57.76C13.83,-66.57 21.72,-76 49,-76 66.9,-76 76.45,-71.94 77.65,-66.65"/>
<polygon fill="midnightblue" stroke="midnightblue" points="80.61,-64.76 72.66,-57.76 74.5,-68.19 80.61,-64.76"/>
</g>
<!-- Node2 -->
<g id="node2" class="node">
<title>Node2</title>
<g id="a_node2"><a xlink:href="classParseTree.html#ae1cb6829644917b9437f28a08b1e60a1" target="_top" xlink:title="Get the left node when a node is given.">
<polygon fill="white" stroke="black" points="137.5,-76.5 137.5,-95.5 267.5,-95.5 267.5,-76.5 137.5,-76.5"/>
<text text-anchor="middle" x="202.5" y="-83.5" font-family="Helvetica,sans-Serif" font-size="10.00">ParseTree::getLeftNode</text>
</a>
</g>
</g>
<!-- Node1&#45;&gt;Node2 -->
<g id="edge1" class="edge">
<title>Node1&#45;&gt;Node2</title>
<path fill="none" stroke="midnightblue" d="M88.23,-57.59C108.13,-62.58 132.66,-68.73 153.79,-74.03"/>
<polygon fill="midnightblue" stroke="midnightblue" points="152.99,-77.44 163.55,-76.48 154.7,-70.65 152.99,-77.44"/>
</g>
<!-- Node3 -->
<g id="node3" class="node">
<title>Node3</title>
<g id="a_node3"><a xlink:href="classParseTree.html#a101193b71bc7e02d051dd73e6f079aa1" target="_top" xlink:title="Get the right node when a node is given.">
<polygon fill="white" stroke="black" points="134,-38.5 134,-57.5 271,-57.5 271,-38.5 134,-38.5"/>
<text text-anchor="middle" x="202.5" y="-45.5" font-family="Helvetica,sans-Serif" font-size="10.00">ParseTree::getRightNode</text>
</a>
</g>
</g>
<!-- Node1&#45;&gt;Node3 -->
<g id="edge2" class="edge">
<title>Node1&#45;&gt;Node3</title>
<path fill="none" stroke="midnightblue" d="M98.35,-48C106.51,-48 115.15,-48 123.83,-48"/>
<polygon fill="midnightblue" stroke="midnightblue" points="124,-51.5 134,-48 124,-44.5 124,-51.5"/>
</g>
<!-- Node4 -->
<g id="node4" class="node">
<title>Node4</title>
<g id="a_node4"><a xlink:href="classParseTree.html#a816af779bb7d32b6ab6e513cf69648a4" target="_top" xlink:title="Get the value of the node.">
<polygon fill="white" stroke="black" points="146,-0.5 146,-19.5 259,-19.5 259,-0.5 146,-0.5"/>
<text text-anchor="middle" x="202.5" y="-7.5" font-family="Helvetica,sans-Serif" font-size="10.00">ParseTree::getValue</text>
</a>
</g>
</g>
<!-- Node1&#45;&gt;Node4 -->
<g id="edge3" class="edge">
<title>Node1&#45;&gt;Node4</title>
<path fill="none" stroke="midnightblue" d="M88.23,-38.41C108.13,-33.42 132.66,-27.27 153.79,-21.97"/>
<polygon fill="midnightblue" stroke="midnightblue" points="154.7,-25.35 163.55,-19.52 152.99,-18.56 154.7,-25.35"/>
</g>
</g>
</svg>
