<?xml version="1.0" encoding="UTF-8" standalone="no"?>
<!DOCTYPE svg PUBLIC "-//W3C//DTD SVG 1.1//EN"
 "http://www.w3.org/Graphics/SVG/1.1/DTD/svg11.dtd">
<!-- Generated by graphviz version 6.0.2 (0)
 -->
<!-- Title: getNodeTruthValue Pages: 1 -->
<svg width="291pt" height="104pt"
 viewBox="0.00 0.00 291.00 104.00" xmlns="http://www.w3.org/2000/svg" xmlns:xlink="http://www.w3.org/1999/xlink">
<g id="graph0" class="graph" transform="scale(1 1) rotate(0) translate(4 100)">
<title>getNodeTruthValue</title>
<polygon fill="white" stroke="none" points="-4,4 -4,-100 287,-100 287,4 -4,4"/>
<!-- Node1 -->
<g id="node1" class="node">
<title>Node1</title>
<g id="a_node1"><a xlink:title="Gets the truth value of a given node.">
<polygon fill="#bfbfbf" stroke="black" points="0,-38.5 0,-57.5 110,-57.5 110,-38.5 0,-38.5"/>
<text text-anchor="middle" x="55" y="-45.5" font-family="Helvetica,sans-Serif" font-size="10.00">getNodeTruthValue</text>
</a>
</g>
</g>
<!-- Node1&#45;&gt;Node1 -->
<g id="edge2" class="edge">
<title>Node1&#45;&gt;Node1</title>
<path fill="none" stroke="midnightblue" d="M30.42,-57.76C18.46,-66.57 26.65,-76 55,-76 74.05,-76 84,-71.74 84.85,-66.27"/>
<polygon fill="midnightblue" stroke="midnightblue" points="87.82,-64.42 79.58,-57.76 81.86,-68.1 87.82,-64.42"/>
</g>
<!-- Node2 -->
<g id="node2" class="node">
<title>Node2</title>
<g id="a_node2"><a xlink:href="classParseTree.html#ae1cb6829644917b9437f28a08b1e60a1" target="_top" xlink:title="Get the left node when a node is given.">
<polygon fill="white" stroke="black" points="149.5,-76.5 149.5,-95.5 279.5,-95.5 279.5,-76.5 149.5,-76.5"/>
<text text-anchor="middle" x="214.5" y="-83.5" font-family="Helvetica,sans-Serif" font-size="10.00">ParseTree::getLeftNode</text>
</a>
</g>
</g>
<!-- Node1&#45;&gt;Node2 -->
<g id="edge1" class="edge">
<title>Node1&#45;&gt;Node2</title>
<path fill="none" stroke="midnightblue" d="M95.74,-57.59C116.53,-62.6 142.16,-68.79 164.2,-74.11"/>
<polygon fill="midnightblue" stroke="midnightblue" points="163.5,-77.54 174.04,-76.48 165.14,-70.73 163.5,-77.54"/>
</g>
<!-- Node3 -->
<g id="node3" class="node">
<title>Node3</title>
<g id="a_node3"><a xlink:href="classParseTree.html#a101193b71bc7e02d051dd73e6f079aa1" target="_top" xlink:title="Get the right node when a node is given.">
<polygon fill="white" stroke="black" points="146,-38.5 146,-57.5 283,-57.5 283,-38.5 146,-38.5"/>
<text text-anchor="middle" x="214.5" y="-45.5" font-family="Helvetica,sans-Serif" font-size="10.00">ParseTree::getRightNode</text>
</a>
</g>
</g>
<!-- Node1&#45;&gt;Node3 -->
<g id="edge3" class="edge">
<title>Node1&#45;&gt;Node3</title>
<path fill="none" stroke="midnightblue" d="M110.2,-48C118.45,-48 127.1,-48 135.74,-48"/>
<polygon fill="midnightblue" stroke="midnightblue" points="135.84,-51.5 145.84,-48 135.84,-44.5 135.84,-51.5"/>
</g>
<!-- Node4 -->
<g id="node4" class="node">
<title>Node4</title>
<g id="a_node4"><a xlink:href="classParseTree.html#a816af779bb7d32b6ab6e513cf69648a4" target="_top" xlink:title="Get the value of the node.">
<polygon fill="white" stroke="black" points="158,-0.5 158,-19.5 271,-19.5 271,-0.5 158,-0.5"/>
<text text-anchor="middle" x="214.5" y="-7.5" font-family="Helvetica,sans-Serif" font-size="10.00">ParseTree::getValue</text>
</a>
</g>
</g>
<!-- Node1&#45;&gt;Node4 -->
<g id="edge4" class="edge">
<title>Node1&#45;&gt;Node4</title>
<path fill="none" stroke="midnightblue" d="M95.74,-38.41C116.53,-33.4 142.16,-27.21 164.2,-21.89"/>
<polygon fill="midnightblue" stroke="midnightblue" points="165.14,-25.27 174.04,-19.52 163.5,-18.46 165.14,-25.27"/>
</g>
</g>
</svg>
