<?xml version="1.0" encoding="UTF-8" standalone="no"?>
<!DOCTYPE svg PUBLIC "-//W3C//DTD SVG 1.1//EN"
 "http://www.w3.org/Graphics/SVG/1.1/DTD/svg11.dtd">
<!-- Generated by graphviz version 6.0.2 (0)
 -->
<!-- Title: getNodeTruthValue Pages: 1 -->
<svg width="363pt" height="46pt"
 viewBox="0.00 0.00 363.00 46.00" xmlns="http://www.w3.org/2000/svg" xmlns:xlink="http://www.w3.org/1999/xlink">
<g id="graph0" class="graph" transform="scale(1 1) rotate(0) translate(4 42)">
<title>getNodeTruthValue</title>
<polygon fill="white" stroke="none" points="-4,4 -4,-42 359,-42 359,4 -4,4"/>
<!-- Node1 -->
<g id="node1" class="node">
<title>Node1</title>
<g id="a_node1"><a xlink:title="Gets the truth value of a given node.">
<polygon fill="#bfbfbf" stroke="black" points="245,-0.5 245,-19.5 355,-19.5 355,-0.5 245,-0.5"/>
<text text-anchor="middle" x="300" y="-7.5" font-family="Helvetica,sans-Serif" font-size="10.00">getNodeTruthValue</text>
</a>
</g>
</g>
<!-- Node1&#45;&gt;Node1 -->
<g id="edge3" class="edge">
<title>Node1&#45;&gt;Node1</title>
<path fill="none" stroke="midnightblue" d="M329.31,-28.65C328.08,-33.94 318.31,-38 300,-38 272.1,-38 264.03,-28.57 275.8,-19.76"/>
<polygon fill="midnightblue" stroke="midnightblue" points="332.21,-26.69 324.2,-19.76 326.14,-30.17 332.21,-26.69"/>
</g>
<!-- Node2 -->
<g id="node2" class="node">
<title>Node2</title>
<g id="a_node2"><a xlink:href="tree_8cpp.html#a25643aa8241f085240d87644329f4656" target="_top" xlink:title="Evaluates the truth value of a given parse tree.">
<polygon fill="white" stroke="black" points="77,-0.5 77,-19.5 209,-19.5 209,-0.5 77,-0.5"/>
<text text-anchor="middle" x="143" y="-7.5" font-family="Helvetica,sans-Serif" font-size="10.00">evaluateTreeTruthValue</text>
</a>
</g>
</g>
<!-- Node1&#45;&gt;Node2 -->
<g id="edge1" class="edge">
<title>Node1&#45;&gt;Node2</title>
<path fill="none" stroke="midnightblue" d="M234.63,-10C226.2,-10 217.55,-10 209.1,-10"/>
<polygon fill="midnightblue" stroke="midnightblue" points="234.79,-13.5 244.79,-10 234.79,-6.5 234.79,-13.5"/>
</g>
<!-- Node3 -->
<g id="node3" class="node">
<title>Node3</title>
<g id="a_node3"><a xlink:href="main_8cpp.html#ae66f6b31b5ad750f1fe042a706a4e3d4" target="_top" xlink:title="Where the tasks are run.">
<polygon fill="white" stroke="black" points="0,-0.5 0,-19.5 41,-19.5 41,-0.5 0,-0.5"/>
<text text-anchor="middle" x="20.5" y="-7.5" font-family="Helvetica,sans-Serif" font-size="10.00">main</text>
</a>
</g>
</g>
<!-- Node2&#45;&gt;Node3 -->
<g id="edge2" class="edge">
<title>Node2&#45;&gt;Node3</title>
<path fill="none" stroke="midnightblue" d="M66.58,-10C57.3,-10 48.53,-10 41.24,-10"/>
<polygon fill="midnightblue" stroke="midnightblue" points="66.81,-13.5 76.81,-10 66.81,-6.5 66.81,-13.5"/>
</g>
</g>
</svg>
