<?xml version="1.0" encoding="UTF-8" standalone="no"?>
<!DOCTYPE svg PUBLIC "-//W3C//DTD SVG 1.1//EN"
 "http://www.w3.org/Graphics/SVG/1.1/DTD/svg11.dtd">
<!-- Generated by graphviz version 6.0.2 (0)
 -->
<!-- Title: prefixToParseTree Pages: 1 -->
<svg width="387pt" height="66pt"
 viewBox="0.00 0.00 387.00 66.00" xmlns="http://www.w3.org/2000/svg" xmlns:xlink="http://www.w3.org/1999/xlink">
<g id="graph0" class="graph" transform="scale(1 1) rotate(0) translate(4 62)">
<title>prefixToParseTree</title>
<polygon fill="white" stroke="none" points="-4,4 -4,-62 383,-62 383,4 -4,4"/>
<!-- Node1 -->
<g id="node1" class="node">
<title>Node1</title>
<g id="a_node1"><a xlink:title="Method which takes in a prefix formula and converts it into a rooted binary parse tree.">
<polygon fill="#bfbfbf" stroke="black" points="0,-19.5 0,-38.5 103,-38.5 103,-19.5 0,-19.5"/>
<text text-anchor="middle" x="51.5" y="-26.5" font-family="Helvetica,sans-Serif" font-size="10.00">prefixToParseTree</text>
</a>
</g>
</g>
<!-- Node2 -->
<g id="node2" class="node">
<title>Node2</title>
<g id="a_node2"><a xlink:href="tree_8cpp.html#a383cbc4e98ccb86d6506d9a145cff85b" target="_top" xlink:title="Method which takes in start and end pointers and generates a binary tree recursively.">
<polygon fill="white" stroke="black" points="139,-19.5 139,-38.5 207,-38.5 207,-19.5 139,-19.5"/>
<text text-anchor="middle" x="173" y="-26.5" font-family="Helvetica,sans-Serif" font-size="10.00">createTree</text>
</a>
</g>
</g>
<!-- Node1&#45;&gt;Node2 -->
<g id="edge1" class="edge">
<title>Node1&#45;&gt;Node2</title>
<path fill="none" stroke="midnightblue" d="M103.18,-29C111.68,-29 120.43,-29 128.72,-29"/>
<polygon fill="midnightblue" stroke="midnightblue" points="128.92,-32.5 138.92,-29 128.92,-25.5 128.92,-32.5"/>
</g>
<!-- Node2&#45;&gt;Node2 -->
<g id="edge2" class="edge">
<title>Node2&#45;&gt;Node2</title>
<path fill="none" stroke="midnightblue" d="M154.27,-38.76C145.16,-47.57 151.41,-57 173,-57 186.83,-57 194.37,-53.13 195.6,-48.03"/>
<polygon fill="midnightblue" stroke="midnightblue" points="198.81,-46.63 191.73,-38.76 192.35,-49.33 198.81,-46.63"/>
</g>
<!-- Node3 -->
<g id="node3" class="node">
<title>Node3</title>
<g id="a_node3"><a xlink:href="classParseTree.html#adf597d2ebd88e8275d7ac78b09d68ce4" target="_top" xlink:title="Set the left node when a node is given.">
<polygon fill="white" stroke="black" points="246.5,-38.5 246.5,-57.5 375.5,-57.5 375.5,-38.5 246.5,-38.5"/>
<text text-anchor="middle" x="311" y="-45.5" font-family="Helvetica,sans-Serif" font-size="10.00">ParseTree::setLeftNode</text>
</a>
</g>
</g>
<!-- Node2&#45;&gt;Node3 -->
<g id="edge3" class="edge">
<title>Node2&#45;&gt;Node3</title>
<path fill="none" stroke="midnightblue" d="M207.27,-33.65C216.12,-34.88 226.03,-36.27 236.13,-37.68"/>
<polygon fill="midnightblue" stroke="midnightblue" points="235.86,-41.18 246.24,-39.09 236.83,-34.24 235.86,-41.18"/>
</g>
<!-- Node4 -->
<g id="node4" class="node">
<title>Node4</title>
<g id="a_node4"><a xlink:href="classParseTree.html#a0effbd955454ab1beec9940cd6631dba" target="_top" xlink:title="Set the right node when a node is given.">
<polygon fill="white" stroke="black" points="243,-0.5 243,-19.5 379,-19.5 379,-0.5 243,-0.5"/>
<text text-anchor="middle" x="311" y="-7.5" font-family="Helvetica,sans-Serif" font-size="10.00">ParseTree::setRightNode</text>
</a>
</g>
</g>
<!-- Node2&#45;&gt;Node4 -->
<g id="edge4" class="edge">
<title>Node2&#45;&gt;Node4</title>
<path fill="none" stroke="midnightblue" d="M207.27,-24.35C215.1,-23.26 223.76,-22.05 232.65,-20.81"/>
<polygon fill="midnightblue" stroke="midnightblue" points="233.32,-24.25 242.74,-19.4 232.35,-17.31 233.32,-24.25"/>
</g>
</g>
</svg>
