<?xml version="1.0" encoding="UTF-8" standalone="no"?>
<!DOCTYPE svg PUBLIC "-//W3C//DTD SVG 1.1//EN"
 "http://www.w3.org/Graphics/SVG/1.1/DTD/svg11.dtd">
<!-- Generated by graphviz version 6.0.2 (0)
 -->
<!-- Title: parseTreeToInfix Pages: 1 -->
<svg width="411pt" height="104pt"
 viewBox="0.00 0.00 411.00 104.00" xmlns="http://www.w3.org/2000/svg" xmlns:xlink="http://www.w3.org/1999/xlink">
<g id="graph0" class="graph" transform="scale(1 1) rotate(0) translate(4 100)">
<title>parseTreeToInfix</title>
<polygon fill="white" stroke="none" points="-4,4 -4,-100 407,-100 407,4 -4,4"/>
<!-- Node1 -->
<g id="node1" class="node">
<title>Node1</title>
<g id="a_node1"><a xlink:title="Traverses the parse tree and return the infix formula.">
<polygon fill="#bfbfbf" stroke="black" points="0,-38.5 0,-57.5 96,-57.5 96,-38.5 0,-38.5"/>
<text text-anchor="middle" x="48" y="-45.5" font-family="Helvetica,sans-Serif" font-size="10.00">parseTreeToInfix</text>
</a>
</g>
</g>
<!-- Node2 -->
<g id="node2" class="node">
<title>Node2</title>
<g id="a_node2"><a xlink:href="tree_8cpp.html#aa2112d5255c2ad249f275f84a5c02181" target="_top" xlink:title="Utility method which traverses the tree in in&#45;order manner.">
<polygon fill="white" stroke="black" points="132,-38.5 132,-57.5 230,-57.5 230,-38.5 132,-38.5"/>
<text text-anchor="middle" x="181" y="-45.5" font-family="Helvetica,sans-Serif" font-size="10.00">inOrderTraversal</text>
</a>
</g>
</g>
<!-- Node1&#45;&gt;Node2 -->
<g id="edge1" class="edge">
<title>Node1&#45;&gt;Node2</title>
<path fill="none" stroke="midnightblue" d="M96.29,-48C104.53,-48 113.18,-48 121.66,-48"/>
<polygon fill="midnightblue" stroke="midnightblue" points="121.89,-51.5 131.89,-48 121.89,-44.5 121.89,-51.5"/>
</g>
<!-- Node2&#45;&gt;Node2 -->
<g id="edge5" class="edge">
<title>Node2&#45;&gt;Node2</title>
<path fill="none" stroke="midnightblue" d="M160.5,-57.76C150.53,-66.57 157.36,-76 181,-76 196.14,-76 204.39,-72.13 205.74,-67.03"/>
<polygon fill="midnightblue" stroke="midnightblue" points="208.84,-65.4 201.5,-57.76 202.48,-68.31 208.84,-65.4"/>
</g>
<!-- Node3 -->
<g id="node3" class="node">
<title>Node3</title>
<g id="a_node3"><a xlink:href="classParseTree.html#ae1cb6829644917b9437f28a08b1e60a1" target="_top" xlink:title="Get the left node when a node is given.">
<polygon fill="white" stroke="black" points="269.5,-76.5 269.5,-95.5 399.5,-95.5 399.5,-76.5 269.5,-76.5"/>
<text text-anchor="middle" x="334.5" y="-83.5" font-family="Helvetica,sans-Serif" font-size="10.00">ParseTree::getLeftNode</text>
</a>
</g>
</g>
<!-- Node2&#45;&gt;Node3 -->
<g id="edge2" class="edge">
<title>Node2&#45;&gt;Node3</title>
<path fill="none" stroke="midnightblue" d="M220.23,-57.59C240.13,-62.58 264.66,-68.73 285.79,-74.03"/>
<polygon fill="midnightblue" stroke="midnightblue" points="284.99,-77.44 295.55,-76.48 286.7,-70.65 284.99,-77.44"/>
</g>
<!-- Node4 -->
<g id="node4" class="node">
<title>Node4</title>
<g id="a_node4"><a xlink:href="classParseTree.html#a101193b71bc7e02d051dd73e6f079aa1" target="_top" xlink:title="Get the right node when a node is given.">
<polygon fill="white" stroke="black" points="266,-38.5 266,-57.5 403,-57.5 403,-38.5 266,-38.5"/>
<text text-anchor="middle" x="334.5" y="-45.5" font-family="Helvetica,sans-Serif" font-size="10.00">ParseTree::getRightNode</text>
</a>
</g>
</g>
<!-- Node2&#45;&gt;Node4 -->
<g id="edge3" class="edge">
<title>Node2&#45;&gt;Node4</title>
<path fill="none" stroke="midnightblue" d="M230.35,-48C238.51,-48 247.15,-48 255.83,-48"/>
<polygon fill="midnightblue" stroke="midnightblue" points="256,-51.5 266,-48 256,-44.5 256,-51.5"/>
</g>
<!-- Node5 -->
<g id="node5" class="node">
<title>Node5</title>
<g id="a_node5"><a xlink:href="classParseTree.html#a816af779bb7d32b6ab6e513cf69648a4" target="_top" xlink:title="Get the value of the node.">
<polygon fill="white" stroke="black" points="278,-0.5 278,-19.5 391,-19.5 391,-0.5 278,-0.5"/>
<text text-anchor="middle" x="334.5" y="-7.5" font-family="Helvetica,sans-Serif" font-size="10.00">ParseTree::getValue</text>
</a>
</g>
</g>
<!-- Node2&#45;&gt;Node5 -->
<g id="edge4" class="edge">
<title>Node2&#45;&gt;Node5</title>
<path fill="none" stroke="midnightblue" d="M220.23,-38.41C240.13,-33.42 264.66,-27.27 285.79,-21.97"/>
<polygon fill="midnightblue" stroke="midnightblue" points="286.7,-25.35 295.55,-19.52 284.99,-18.56 286.7,-25.35"/>
</g>
</g>
</svg>
