<?xml version="1.0" encoding="UTF-8" standalone="no"?>
<!DOCTYPE svg PUBLIC "-//W3C//DTD SVG 1.1//EN"
 "http://www.w3.org/Graphics/SVG/1.1/DTD/svg11.dtd">
<!-- Generated by graphviz version 6.0.2 (0)
 -->
<!-- Title: createTree Pages: 1 -->
<svg width="248pt" height="66pt"
 viewBox="0.00 0.00 248.00 66.00" xmlns="http://www.w3.org/2000/svg" xmlns:xlink="http://www.w3.org/1999/xlink">
<g id="graph0" class="graph" transform="scale(1 1) rotate(0) translate(4 62)">
<title>createTree</title>
<polygon fill="white" stroke="none" points="-4,4 -4,-62 244,-62 244,4 -4,4"/>
<!-- Node1 -->
<g id="node1" class="node">
<title>Node1</title>
<g id="a_node1"><a xlink:title="Method which takes in start and end pointers and generates a binary tree recursively.">
<polygon fill="#bfbfbf" stroke="black" points="0,-19.5 0,-38.5 68,-38.5 68,-19.5 0,-19.5"/>
<text text-anchor="middle" x="34" y="-26.5" font-family="Helvetica,sans-Serif" font-size="10.00">createTree</text>
</a>
</g>
</g>
<!-- Node1&#45;&gt;Node1 -->
<g id="edge1" class="edge">
<title>Node1&#45;&gt;Node1</title>
<path fill="none" stroke="midnightblue" d="M12.73,-38.76C2.38,-47.57 9.47,-57 34,-57 49.71,-57 58.27,-53.13 59.67,-48.03"/>
<polygon fill="midnightblue" stroke="midnightblue" points="62.72,-46.29 55.27,-38.76 56.39,-49.29 62.72,-46.29"/>
</g>
<!-- Node2 -->
<g id="node2" class="node">
<title>Node2</title>
<g id="a_node2"><a xlink:href="classParseTree.html#adf597d2ebd88e8275d7ac78b09d68ce4" target="_top" xlink:title="Set the left node when a node is given.">
<polygon fill="white" stroke="black" points="107.5,-38.5 107.5,-57.5 236.5,-57.5 236.5,-38.5 107.5,-38.5"/>
<text text-anchor="middle" x="172" y="-45.5" font-family="Helvetica,sans-Serif" font-size="10.00">ParseTree::setLeftNode</text>
</a>
</g>
</g>
<!-- Node1&#45;&gt;Node2 -->
<g id="edge2" class="edge">
<title>Node1&#45;&gt;Node2</title>
<path fill="none" stroke="midnightblue" d="M68.27,-33.65C77.12,-34.88 87.03,-36.27 97.13,-37.68"/>
<polygon fill="midnightblue" stroke="midnightblue" points="96.86,-41.18 107.24,-39.09 97.83,-34.24 96.86,-41.18"/>
</g>
<!-- Node3 -->
<g id="node3" class="node">
<title>Node3</title>
<g id="a_node3"><a xlink:href="classParseTree.html#a0effbd955454ab1beec9940cd6631dba" target="_top" xlink:title="Set the right node when a node is given.">
<polygon fill="white" stroke="black" points="104,-0.5 104,-19.5 240,-19.5 240,-0.5 104,-0.5"/>
<text text-anchor="middle" x="172" y="-7.5" font-family="Helvetica,sans-Serif" font-size="10.00">ParseTree::setRightNode</text>
</a>
</g>
</g>
<!-- Node1&#45;&gt;Node3 -->
<g id="edge3" class="edge">
<title>Node1&#45;&gt;Node3</title>
<path fill="none" stroke="midnightblue" d="M68.27,-24.35C76.1,-23.26 84.76,-22.05 93.65,-20.81"/>
<polygon fill="midnightblue" stroke="midnightblue" points="94.32,-24.25 103.74,-19.4 93.35,-17.31 94.32,-24.25"/>
</g>
</g>
</svg>
