<?xml version="1.0" encoding="UTF-8" standalone="no"?>
<!DOCTYPE svg PUBLIC "-//W3C//DTD SVG 1.1//EN"
 "http://www.w3.org/Graphics/SVG/1.1/DTD/svg11.dtd">
<!-- Generated by graphviz version 6.0.2 (0)
 -->
<!-- Title: src/utils.cpp Pages: 1 -->
<svg width="324pt" height="196pt"
 viewBox="0.00 0.00 323.50 196.00" xmlns="http://www.w3.org/2000/svg" xmlns:xlink="http://www.w3.org/1999/xlink">
<g id="graph0" class="graph" transform="scale(1 1) rotate(0) translate(4 192)">
<title>src/utils.cpp</title>
<polygon fill="white" stroke="none" points="-4,4 -4,-192 319.5,-192 319.5,4 -4,4"/>
<!-- Node1 -->
<g id="node1" class="node">
<title>Node1</title>
<g id="a_node1"><a xlink:title="Source file for utility functions.">
<polygon fill="#bfbfbf" stroke="black" points="20.5,-168.5 20.5,-187.5 95.5,-187.5 95.5,-168.5 20.5,-168.5"/>
<text text-anchor="middle" x="58" y="-175.5" font-family="Helvetica,sans-Serif" font-size="10.00">src/utils.cpp</text>
</a>
</g>
</g>
<!-- Node2 -->
<g id="node2" class="node">
<title>Node2</title>
<g id="a_node2"><a xlink:href="utils_8h.html" target="_top" xlink:title="Utility functions for tasks.">
<polygon fill="white" stroke="black" points="11,-112.5 11,-131.5 105,-131.5 105,-112.5 11,-112.5"/>
<text text-anchor="middle" x="58" y="-119.5" font-family="Helvetica,sans-Serif" font-size="10.00">../include/utils.h</text>
</a>
</g>
</g>
<!-- Node1&#45;&gt;Node2 -->
<g id="edge1" class="edge">
<title>Node1&#45;&gt;Node2</title>
<path fill="none" stroke="midnightblue" d="M58,-168.08C58,-161.01 58,-150.86 58,-141.99"/>
<polygon fill="midnightblue" stroke="midnightblue" points="61.5,-141.75 58,-131.75 54.5,-141.75 61.5,-141.75"/>
</g>
<!-- Node3 -->
<g id="node3" class="node">
<title>Node3</title>
<g id="a_node3"><a xlink:title=" ">
<polygon fill="white" stroke="#bfbfbf" points="0,-0.5 0,-19.5 44,-19.5 44,-0.5 0,-0.5"/>
<text text-anchor="middle" x="22" y="-7.5" font-family="Helvetica,sans-Serif" font-size="10.00">string</text>
</a>
</g>
</g>
<!-- Node2&#45;&gt;Node3 -->
<g id="edge2" class="edge">
<title>Node2&#45;&gt;Node3</title>
<path fill="none" stroke="midnightblue" d="M55.18,-112.37C49.34,-94.54 35.84,-53.3 27.98,-29.27"/>
<polygon fill="midnightblue" stroke="midnightblue" points="31.25,-28.01 24.81,-19.59 24.6,-30.18 31.25,-28.01"/>
</g>
<!-- Node4 -->
<g id="node4" class="node">
<title>Node4</title>
<g id="a_node4"><a xlink:href="parsetree_8h.html" target="_top" xlink:title="Header file for parse tree.">
<polygon fill="white" stroke="black" points="58,-56.5 58,-75.5 130,-75.5 130,-56.5 58,-56.5"/>
<text text-anchor="middle" x="94" y="-63.5" font-family="Helvetica,sans-Serif" font-size="10.00">parsetree.h</text>
</a>
</g>
</g>
<!-- Node2&#45;&gt;Node4 -->
<g id="edge3" class="edge">
<title>Node2&#45;&gt;Node4</title>
<path fill="none" stroke="midnightblue" d="M63.94,-112.08C68.98,-104.53 76.34,-93.49 82.51,-84.23"/>
<polygon fill="midnightblue" stroke="midnightblue" points="85.53,-86.01 88.17,-75.75 79.71,-82.13 85.53,-86.01"/>
</g>
<!-- Node4&#45;&gt;Node3 -->
<g id="edge6" class="edge">
<title>Node4&#45;&gt;Node3</title>
<path fill="none" stroke="midnightblue" d="M82.43,-56.32C71.58,-48.18 55.12,-35.84 42.12,-26.09"/>
<polygon fill="midnightblue" stroke="midnightblue" points="43.88,-23.03 33.78,-19.83 39.68,-28.63 43.88,-23.03"/>
</g>
<!-- Node5 -->
<g id="node5" class="node">
<title>Node5</title>
<g id="a_node5"><a xlink:title=" ">
<polygon fill="white" stroke="#bfbfbf" points="62,-0.5 62,-19.5 126,-19.5 126,-0.5 62,-0.5"/>
<text text-anchor="middle" x="94" y="-7.5" font-family="Helvetica,sans-Serif" font-size="10.00">algorithm</text>
</a>
</g>
</g>
<!-- Node4&#45;&gt;Node5 -->
<g id="edge4" class="edge">
<title>Node4&#45;&gt;Node5</title>
<path fill="none" stroke="midnightblue" d="M94,-56.08C94,-49.01 94,-38.86 94,-29.99"/>
<polygon fill="midnightblue" stroke="midnightblue" points="97.5,-29.75 94,-19.75 90.5,-29.75 97.5,-29.75"/>
</g>
<!-- Node6 -->
<g id="node6" class="node">
<title>Node6</title>
<g id="a_node6"><a xlink:title=" ">
<polygon fill="white" stroke="#bfbfbf" points="144,-0.5 144,-19.5 204,-19.5 204,-0.5 144,-0.5"/>
<text text-anchor="middle" x="174" y="-7.5" font-family="Helvetica,sans-Serif" font-size="10.00">iostream</text>
</a>
</g>
</g>
<!-- Node4&#45;&gt;Node6 -->
<g id="edge5" class="edge">
<title>Node4&#45;&gt;Node6</title>
<path fill="none" stroke="midnightblue" d="M106.85,-56.32C119.22,-47.98 138.13,-35.21 152.74,-25.35"/>
<polygon fill="midnightblue" stroke="midnightblue" points="154.85,-28.15 161.18,-19.65 150.93,-22.35 154.85,-28.15"/>
</g>
<!-- Node7 -->
<g id="node7" class="node">
<title>Node7</title>
<g id="a_node7"><a xlink:title=" ">
<polygon fill="white" stroke="#bfbfbf" points="222.5,-0.5 222.5,-19.5 315.5,-19.5 315.5,-0.5 222.5,-0.5"/>
<text text-anchor="middle" x="269" y="-7.5" font-family="Helvetica,sans-Serif" font-size="10.00">unordered_map</text>
</a>
</g>
</g>
<!-- Node4&#45;&gt;Node7 -->
<g id="edge7" class="edge">
<title>Node4&#45;&gt;Node7</title>
<path fill="none" stroke="midnightblue" d="M121.73,-56.44C151.43,-47.28 198.72,-32.69 231.67,-22.52"/>
<polygon fill="midnightblue" stroke="midnightblue" points="232.88,-25.81 241.4,-19.52 230.81,-19.12 232.88,-25.81"/>
</g>
</g>
</svg>
