<?xml version="1.0" encoding="UTF-8" standalone="no"?>
<!DOCTYPE svg PUBLIC "-//W3C//DTD SVG 1.1//EN"
 "http://www.w3.org/Graphics/SVG/1.1/DTD/svg11.dtd">
<!-- Generated by graphviz version 7.0.0 (0)
 -->
<!-- Title: createParseTree Pages: 1 -->
<svg width="275pt" height="64pt"
 viewBox="0.00 0.00 275.00 64.00" xmlns="http://www.w3.org/2000/svg" xmlns:xlink="http://www.w3.org/1999/xlink">
<g id="graph0" class="graph" transform="scale(1 1) rotate(0) translate(4 60)">
<title>createParseTree</title>
<!-- Node1 -->
<g id="node1" class="node">
<title>Node1</title>
<g id="a_node1"><a xlink:title="Takes in start and end pointers and generates a binary tree recursively.">
<polygon fill="#999999" stroke="#666666" points="95,-37 0,-37 0,-18 95,-18 95,-37"/>
<text text-anchor="middle" x="47.5" y="-25" font-family="Helvetica,sans-Serif" font-size="10.00">createParseTree</text>
</a>
</g>
</g>
<!-- Node1&#45;&gt;Node1 -->
<g id="edge1" class="edge">
<title>Node1&#45;&gt;Node1</title>
<path fill="none" stroke="#63b8ff" d="M23.78,-37.37C12.96,-45.94 20.87,-55 47.5,-55 62.06,-55 71.03,-52.29 74.39,-48.43"/>
<polygon fill="#63b8ff" stroke="#63b8ff" points="77.76,-47.47 71.64,-38.82 71.03,-49.4 77.76,-47.47"/>
</g>
<!-- Node2 -->
<g id="node2" class="node">
<title>Node2</title>
<g id="a_node2"><a xlink:href="classParseTree.html#adf597d2ebd88e8275d7ac78b09d68ce4" target="_top" xlink:title="Set the left node of a given node.">
<polygon fill="white" stroke="#666666" points="263.5,-56 134.5,-56 134.5,-37 263.5,-37 263.5,-56"/>
<text text-anchor="middle" x="199" y="-44" font-family="Helvetica,sans-Serif" font-size="10.00">ParseTree::setLeftNode</text>
</a>
</g>
</g>
<!-- Node1&#45;&gt;Node2 -->
<g id="edge2" class="edge">
<title>Node1&#45;&gt;Node2</title>
<path fill="none" stroke="#63b8ff" d="M95.39,-33.46C104.1,-34.57 113.39,-35.75 122.7,-36.93"/>
<polygon fill="#63b8ff" stroke="#63b8ff" points="122.15,-40.39 132.51,-38.18 123.03,-33.44 122.15,-40.39"/>
</g>
<!-- Node3 -->
<g id="node3" class="node">
<title>Node3</title>
<g id="a_node3"><a xlink:href="classParseTree.html#a0effbd955454ab1beec9940cd6631dba" target="_top" xlink:title="Set the right node of a given node.">
<polygon fill="white" stroke="#666666" points="267,-19 131,-19 131,0 267,0 267,-19"/>
<text text-anchor="middle" x="199" y="-7" font-family="Helvetica,sans-Serif" font-size="10.00">ParseTree::setRightNode</text>
</a>
</g>
</g>
<!-- Node1&#45;&gt;Node3 -->
<g id="edge3" class="edge">
<title>Node1&#45;&gt;Node3</title>
<path fill="none" stroke="#63b8ff" d="M95.39,-21.85C103.1,-20.93 111.28,-19.94 119.51,-18.95"/>
<polygon fill="#63b8ff" stroke="#63b8ff" points="119.73,-22.45 129.24,-17.78 118.89,-15.5 119.73,-22.45"/>
</g>
</g>
</svg>
