<?xml version="1.0" encoding="UTF-8" standalone="no"?>
<!DOCTYPE svg PUBLIC "-//W3C//DTD SVG 1.1//EN"
 "http://www.w3.org/Graphics/SVG/1.1/DTD/svg11.dtd">
<!-- Generated by graphviz version 6.0.2 (0)
 -->
<!-- Title: include/utils.h Pages: 1 -->
<svg width="314pt" height="196pt"
 viewBox="0.00 0.00 314.00 196.00" xmlns="http://www.w3.org/2000/svg" xmlns:xlink="http://www.w3.org/1999/xlink">
<g id="graph0" class="graph" transform="scale(1 1) rotate(0) translate(4 192)">
<title>include/utils.h</title>
<polygon fill="white" stroke="none" points="-4,4 -4,-192 310,-192 310,4 -4,4"/>
<!-- Node1 -->
<g id="node1" class="node">
<title>Node1</title>
<g id="a_node1"><a xlink:title="Utility functions for tasks.">
<polygon fill="#bfbfbf" stroke="black" points="91,-168.5 91,-187.5 176,-187.5 176,-168.5 91,-168.5"/>
<text text-anchor="middle" x="133.5" y="-175.5" font-family="Helvetica,sans-Serif" font-size="10.00">include/utils.h</text>
</a>
</g>
</g>
<!-- Node2 -->
<g id="node2" class="node">
<title>Node2</title>
<g id="a_node2"><a xlink:href="conversions_8h.html" target="_top" xlink:title="Header file for conversions.">
<polygon fill="white" stroke="black" points="72.5,-112.5 72.5,-131.5 194.5,-131.5 194.5,-112.5 72.5,-112.5"/>
<text text-anchor="middle" x="133.5" y="-119.5" font-family="Helvetica,sans-Serif" font-size="10.00">include/conversions.h</text>
</a>
</g>
</g>
<!-- Node1&#45;&gt;Node2 -->
<g id="edge1" class="edge">
<title>Node1&#45;&gt;Node2</title>
<path fill="none" stroke="midnightblue" d="M133.5,-157.8C133.5,-148.91 133.5,-138.78 133.5,-131.75"/>
<polygon fill="midnightblue" stroke="midnightblue" points="130,-158.08 133.5,-168.08 137,-158.08 130,-158.08"/>
</g>
<!-- Node3 -->
<g id="node3" class="node">
<title>Node3</title>
<g id="a_node3"><a xlink:href="main_8h.html" target="_top" xlink:title="Header file for main.">
<polygon fill="white" stroke="black" points="0,-56.5 0,-75.5 89,-75.5 89,-56.5 0,-56.5"/>
<text text-anchor="middle" x="44.5" y="-63.5" font-family="Helvetica,sans-Serif" font-size="10.00">include/main.h</text>
</a>
</g>
</g>
<!-- Node1&#45;&gt;Node3 -->
<g id="edge6" class="edge">
<title>Node1&#45;&gt;Node3</title>
<path fill="none" stroke="midnightblue" d="M103.24,-163.74C89.33,-156.25 73.69,-145.63 63.5,-132 50.69,-114.86 46.49,-89.24 45.13,-75.86"/>
<polygon fill="midnightblue" stroke="midnightblue" points="102,-167.03 112.51,-168.42 105.16,-160.79 102,-167.03"/>
</g>
<!-- Node6 -->
<g id="node6" class="node">
<title>Node6</title>
<g id="a_node6"><a xlink:href="utils_8cpp.html" target="_top" xlink:title="Source file for utility functions.">
<polygon fill="white" stroke="black" points="231,-112.5 231,-131.5 306,-131.5 306,-112.5 231,-112.5"/>
<text text-anchor="middle" x="268.5" y="-119.5" font-family="Helvetica,sans-Serif" font-size="10.00">src/utils.cpp</text>
</a>
</g>
</g>
<!-- Node1&#45;&gt;Node6 -->
<g id="edge7" class="edge">
<title>Node1&#45;&gt;Node6</title>
<path fill="none" stroke="midnightblue" d="M164.41,-164.64C189.74,-154.5 224.93,-140.43 247.21,-131.52"/>
<polygon fill="midnightblue" stroke="midnightblue" points="162.88,-161.48 154.89,-168.44 165.48,-167.98 162.88,-161.48"/>
</g>
<!-- Node2&#45;&gt;Node2 -->
<g id="edge2" class="edge">
<title>Node2&#45;&gt;Node2</title>
<path fill="none" stroke="midnightblue" d="M177.29,-132.37C196.25,-133.23 212.5,-129.78 212.5,-122 212.5,-112.87 190.09,-109.69 167.19,-112.47"/>
<polygon fill="midnightblue" stroke="midnightblue" points="177.45,-128.87 167.19,-131.53 176.87,-135.85 177.45,-128.87"/>
</g>
<!-- Node2&#45;&gt;Node3 -->
<g id="edge3" class="edge">
<title>Node2&#45;&gt;Node3</title>
<path fill="none" stroke="midnightblue" d="M110.26,-106.9C93.94,-97 72.63,-84.07 58.76,-75.65"/>
<polygon fill="midnightblue" stroke="midnightblue" points="108.84,-110.13 119.2,-112.32 112.47,-104.14 108.84,-110.13"/>
</g>
<!-- Node5 -->
<g id="node5" class="node">
<title>Node5</title>
<g id="a_node5"><a xlink:href="conversions_8cpp.html" target="_top" xlink:title="Source file for conversions.">
<polygon fill="white" stroke="black" points="107,-56.5 107,-75.5 220,-75.5 220,-56.5 107,-56.5"/>
<text text-anchor="middle" x="163.5" y="-63.5" font-family="Helvetica,sans-Serif" font-size="10.00">src/conversions.cpp</text>
</a>
</g>
</g>
<!-- Node2&#45;&gt;Node5 -->
<g id="edge5" class="edge">
<title>Node2&#45;&gt;Node5</title>
<path fill="none" stroke="midnightblue" d="M143.35,-103.27C148.47,-94.05 154.52,-83.17 158.64,-75.75"/>
<polygon fill="midnightblue" stroke="midnightblue" points="140.25,-101.64 138.45,-112.08 146.37,-105.04 140.25,-101.64"/>
</g>
<!-- Node4 -->
<g id="node4" class="node">
<title>Node4</title>
<g id="a_node4"><a xlink:href="main_8cpp.html" target="_top" xlink:title="Source file for main.">
<polygon fill="white" stroke="black" points="5,-0.5 5,-19.5 84,-19.5 84,-0.5 5,-0.5"/>
<text text-anchor="middle" x="44.5" y="-7.5" font-family="Helvetica,sans-Serif" font-size="10.00">src/main.cpp</text>
</a>
</g>
</g>
<!-- Node3&#45;&gt;Node4 -->
<g id="edge4" class="edge">
<title>Node3&#45;&gt;Node4</title>
<path fill="none" stroke="midnightblue" d="M44.5,-45.8C44.5,-36.91 44.5,-26.78 44.5,-19.75"/>
<polygon fill="midnightblue" stroke="midnightblue" points="41,-46.08 44.5,-56.08 48,-46.08 41,-46.08"/>
</g>
</g>
</svg>
