<?xml version="1.0" encoding="UTF-8" standalone="no"?>
<!DOCTYPE svg PUBLIC "-//W3C//DTD SVG 1.1//EN"
 "http://www.w3.org/Graphics/SVG/1.1/DTD/svg11.dtd">
<!-- Generated by graphviz version 7.0.0 (0)
 -->
<!-- Title: evaluateTreeTruthValue Pages: 1 -->
<svg width="459pt" height="101pt"
 viewBox="0.00 0.00 459.00 101.00" xmlns="http://www.w3.org/2000/svg" xmlns:xlink="http://www.w3.org/1999/xlink">
<g id="graph0" class="graph" transform="scale(1 1) rotate(0) translate(4 97)">
<title>evaluateTreeTruthValue</title>
<!-- Node1 -->
<g id="node1" class="node">
<title>Node1</title>
<g id="a_node1"><a xlink:title="Evaluates the truth value of a given parse tree.">
<polygon fill="#999999" stroke="#666666" points="132,-56 0,-56 0,-37 132,-37 132,-56"/>
<text text-anchor="middle" x="66" y="-44" font-family="Helvetica,sans-Serif" font-size="10.00">evaluateTreeTruthValue</text>
</a>
</g>
</g>
<!-- Node2 -->
<g id="node2" class="node">
<title>Node2</title>
<g id="a_node2"><a xlink:href="utils_8cpp.html#aa0c28b938620dfeec544e2f97d6d04ea" target="_top" xlink:title="Gets the truth value of a given node.">
<polygon fill="white" stroke="#666666" points="278,-56 168,-56 168,-37 278,-37 278,-56"/>
<text text-anchor="middle" x="223" y="-44" font-family="Helvetica,sans-Serif" font-size="10.00">getNodeTruthValue</text>
</a>
</g>
</g>
<!-- Node1&#45;&gt;Node2 -->
<g id="edge1" class="edge">
<title>Node1&#45;&gt;Node2</title>
<path fill="none" stroke="#63b8ff" d="M132.28,-46.5C140.18,-46.5 148.25,-46.5 156.15,-46.5"/>
<polygon fill="#63b8ff" stroke="#63b8ff" points="156.05,-50 166.05,-46.5 156.05,-43 156.05,-50"/>
</g>
<!-- Node2&#45;&gt;Node2 -->
<g id="edge3" class="edge">
<title>Node2&#45;&gt;Node2</title>
<path fill="none" stroke="#63b8ff" d="M198.42,-56.37C187.21,-64.94 195.4,-74 223,-74 238.52,-74 247.91,-71.13 251.15,-67.1"/>
<polygon fill="#63b8ff" stroke="#63b8ff" points="254.54,-66.19 248.06,-57.8 247.9,-68.4 254.54,-66.19"/>
</g>
<!-- Node3 -->
<g id="node3" class="node">
<title>Node3</title>
<g id="a_node3"><a xlink:href="classParseTree.html#ae1cb6829644917b9437f28a08b1e60a1" target="_top" xlink:title="Get the left node when a node is given.">
<polygon fill="white" stroke="#666666" points="447.5,-93 317.5,-93 317.5,-74 447.5,-74 447.5,-93"/>
<text text-anchor="middle" x="382.5" y="-81" font-family="Helvetica,sans-Serif" font-size="10.00">ParseTree::getLeftNode</text>
</a>
</g>
</g>
<!-- Node2&#45;&gt;Node3 -->
<g id="edge2" class="edge">
<title>Node2&#45;&gt;Node3</title>
<path fill="none" stroke="#63b8ff" d="M266.21,-56.42C285.27,-60.89 308.01,-66.24 328.24,-70.99"/>
<polygon fill="#63b8ff" stroke="#63b8ff" points="327.17,-74.33 337.7,-73.21 328.77,-67.52 327.17,-74.33"/>
</g>
<!-- Node4 -->
<g id="node4" class="node">
<title>Node4</title>
<g id="a_node4"><a xlink:href="classParseTree.html#a101193b71bc7e02d051dd73e6f079aa1" target="_top" xlink:title="Get the right node when a node is given.">
<polygon fill="white" stroke="#666666" points="451,-56 314,-56 314,-37 451,-37 451,-56"/>
<text text-anchor="middle" x="382.5" y="-44" font-family="Helvetica,sans-Serif" font-size="10.00">ParseTree::getRightNode</text>
</a>
</g>
</g>
<!-- Node2&#45;&gt;Node4 -->
<g id="edge4" class="edge">
<title>Node2&#45;&gt;Node4</title>
<path fill="none" stroke="#63b8ff" d="M278.2,-46.5C285.94,-46.5 294.04,-46.5 302.14,-46.5"/>
<polygon fill="#63b8ff" stroke="#63b8ff" points="302.05,-50 312.05,-46.5 302.05,-43 302.05,-50"/>
</g>
<!-- Node5 -->
<g id="node5" class="node">
<title>Node5</title>
<g id="a_node5"><a xlink:href="classParseTree.html#a816af779bb7d32b6ab6e513cf69648a4" target="_top" xlink:title="Get the value of the node.">
<polygon fill="white" stroke="#666666" points="439,-19 326,-19 326,0 439,0 439,-19"/>
<text text-anchor="middle" x="382.5" y="-7" font-family="Helvetica,sans-Serif" font-size="10.00">ParseTree::getValue</text>
</a>
</g>
</g>
<!-- Node2&#45;&gt;Node5 -->
<g id="edge5" class="edge">
<title>Node2&#45;&gt;Node5</title>
<path fill="none" stroke="#63b8ff" d="M266.21,-36.58C285.27,-32.11 308.01,-26.76 328.24,-22.01"/>
<polygon fill="#63b8ff" stroke="#63b8ff" points="328.77,-25.48 337.7,-19.79 327.17,-18.67 328.77,-25.48"/>
</g>
</g>
</svg>
