<?xml version="1.0" encoding="UTF-8" standalone="no"?>
<!DOCTYPE svg PUBLIC "-//W3C//DTD SVG 1.1//EN"
 "http://www.w3.org/Graphics/SVG/1.1/DTD/svg11.dtd">
<!-- Generated by graphviz version 7.0.0 (0)
 -->
<!-- Title: include/utils.h Pages: 1 -->
<svg width="314pt" height="192pt"
 viewBox="0.00 0.00 314.00 192.00" xmlns="http://www.w3.org/2000/svg" xmlns:xlink="http://www.w3.org/1999/xlink">
<g id="graph0" class="graph" transform="scale(1 1) rotate(0) translate(4 188)">
<title>include/utils.h</title>
<!-- Node1 -->
<g id="node1" class="node">
<title>Node1</title>
<g id="a_node1"><a xlink:title="Utility functions for tasks.">
<polygon fill="#999999" stroke="#666666" points="176,-184 91,-184 91,-165 176,-165 176,-184"/>
<text text-anchor="middle" x="133.5" y="-172" font-family="Helvetica,sans-Serif" font-size="10.00">include/utils.h</text>
</a>
</g>
</g>
<!-- Node2 -->
<g id="node2" class="node">
<title>Node2</title>
<g id="a_node2"><a xlink:href="conversions_8h.html" target="_top" xlink:title="Header file for conversions.">
<polygon fill="white" stroke="#666666" points="194.5,-129 72.5,-129 72.5,-110 194.5,-110 194.5,-129"/>
<text text-anchor="middle" x="133.5" y="-117" font-family="Helvetica,sans-Serif" font-size="10.00">include/conversions.h</text>
</a>
</g>
</g>
<!-- Node1&#45;&gt;Node2 -->
<g id="edge1" class="edge">
<title>Node1&#45;&gt;Node2</title>
<path fill="none" stroke="#63b8ff" d="M133.5,-153.35C133.5,-145.1 133.5,-135.97 133.5,-129.44"/>
<polygon fill="#63b8ff" stroke="#63b8ff" points="130,-153.23 133.5,-163.23 137,-153.23 130,-153.23"/>
</g>
<!-- Node3 -->
<g id="node3" class="node">
<title>Node3</title>
<g id="a_node3"><a xlink:href="main_8h.html" target="_top" xlink:title="Header file for main.">
<polygon fill="white" stroke="#666666" points="89,-74 0,-74 0,-55 89,-55 89,-74"/>
<text text-anchor="middle" x="44.5" y="-62" font-family="Helvetica,sans-Serif" font-size="10.00">include/main.h</text>
</a>
</g>
</g>
<!-- Node1&#45;&gt;Node3 -->
<g id="edge6" class="edge">
<title>Node1&#45;&gt;Node3</title>
<path fill="none" stroke="#63b8ff" d="M101.62,-159.54C88.15,-152.2 73.33,-142 63.5,-129 50.87,-112.3 46.59,-87.25 45.18,-74.16"/>
<polygon fill="#63b8ff" stroke="#63b8ff" points="99.71,-162.49 110.21,-163.9 102.88,-156.25 99.71,-162.49"/>
</g>
<!-- Node6 -->
<g id="node6" class="node">
<title>Node6</title>
<g id="a_node6"><a xlink:href="utils_8cpp.html" target="_top" xlink:title="Source file for utility functions.">
<polygon fill="white" stroke="#666666" points="306,-129 231,-129 231,-110 306,-110 306,-129"/>
<text text-anchor="middle" x="268.5" y="-117" font-family="Helvetica,sans-Serif" font-size="10.00">src/utils.cpp</text>
</a>
</g>
</g>
<!-- Node1&#45;&gt;Node6 -->
<g id="edge7" class="edge">
<title>Node1&#45;&gt;Node6</title>
<path fill="none" stroke="#63b8ff" d="M167.06,-160.32C191.66,-150.67 224.4,-137.82 245.94,-129.36"/>
<polygon fill="#63b8ff" stroke="#63b8ff" points="165.84,-157.04 157.81,-163.96 168.4,-163.56 165.84,-157.04"/>
</g>
<!-- Node2&#45;&gt;Node2 -->
<g id="edge2" class="edge">
<title>Node2&#45;&gt;Node2</title>
<path fill="none" stroke="#63b8ff" d="M184.91,-129.79C200.4,-129.52 212.5,-126.09 212.5,-119.5 212.5,-111.39 194.18,-108.06 173.74,-109.52"/>
<polygon fill="#63b8ff" stroke="#63b8ff" points="185.35,-126.31 175.25,-129.52 185.15,-133.3 185.35,-126.31"/>
</g>
<!-- Node2&#45;&gt;Node3 -->
<g id="edge3" class="edge">
<title>Node2&#45;&gt;Node3</title>
<path fill="none" stroke="#63b8ff" d="M108.7,-103.73C92.84,-94.29 72.81,-82.36 59.37,-74.36"/>
<polygon fill="#63b8ff" stroke="#63b8ff" points="106.72,-106.63 117.1,-108.73 110.3,-100.61 106.72,-106.63"/>
</g>
<!-- Node5 -->
<g id="node5" class="node">
<title>Node5</title>
<g id="a_node5"><a xlink:href="conversions_8cpp.html" target="_top" xlink:title="Source file for conversions.">
<polygon fill="white" stroke="#666666" points="220,-74 107,-74 107,-55 220,-55 220,-74"/>
<text text-anchor="middle" x="163.5" y="-62" font-family="Helvetica,sans-Serif" font-size="10.00">src/conversions.cpp</text>
</a>
</g>
</g>
<!-- Node2&#45;&gt;Node5 -->
<g id="edge5" class="edge">
<title>Node2&#45;&gt;Node5</title>
<path fill="none" stroke="#63b8ff" d="M144.09,-99.79C148.97,-91.18 154.52,-81.36 158.44,-74.44"/>
<polygon fill="#63b8ff" stroke="#63b8ff" points="141.08,-98 139.2,-108.43 147.17,-101.45 141.08,-98"/>
</g>
<!-- Node4 -->
<g id="node4" class="node">
<title>Node4</title>
<g id="a_node4"><a xlink:href="main_8cpp.html" target="_top" xlink:title="Source file for main.">
<polygon fill="white" stroke="#666666" points="84,-19 5,-19 5,0 84,0 84,-19"/>
<text text-anchor="middle" x="44.5" y="-7" font-family="Helvetica,sans-Serif" font-size="10.00">src/main.cpp</text>
</a>
</g>
</g>
<!-- Node3&#45;&gt;Node4 -->
<g id="edge4" class="edge">
<title>Node3&#45;&gt;Node4</title>
<path fill="none" stroke="#63b8ff" d="M44.5,-43.35C44.5,-35.1 44.5,-25.97 44.5,-19.44"/>
<polygon fill="#63b8ff" stroke="#63b8ff" points="41,-43.23 44.5,-53.23 48,-43.23 41,-43.23"/>
</g>
</g>
</svg>
